STARTFONT 2.1
FONT -FontForge-Arial-Book-I-Normal--50-480-75-75-P-254-ISO10646-1
SIZE 48 75 75
FONTBOUNDINGBOX 96 66 -26 -16
COMMENT "Generated by fontforge, http://fontforge.sourceforge.net"
COMMENT "(c) 2006 The Monotype Corporation. All Rights Reserved."
STARTPROPERTIES 41
FOUNDRY "FontForge"
FAMILY_NAME "Arial"
WEIGHT_NAME "Book"
SLANT "I"
SETWIDTH_NAME "Normal"
ADD_STYLE_NAME ""
PIXEL_SIZE 50
POINT_SIZE 480
RESOLUTION_X 75
RESOLUTION_Y 75
SPACING "P"
AVERAGE_WIDTH 254
CHARSET_REGISTRY "ISO10646"
CHARSET_ENCODING "1"
FONTNAME_REGISTRY ""
CHARSET_COLLECTIONS "ASCII ISOLatin1Encoding ISO8859-2 ISO8859-5 ISO8859-7 ISO8859-9 ISO8859-8 ISO8859-4 ISO10646-1"
FONT_NAME "Arial-ItalicMT"
FACE_NAME "Arial Italic"
COPYRIGHT "(c) 2006 The Monotype Corporation. All Rights Reserved."
FONT_VERSION "5.00.2x"
FONT_ASCENT 40
FONT_DESCENT 10
UNDERLINE_POSITION -7
UNDERLINE_THICKNESS 4
X_HEIGHT 25
CAP_HEIGHT 35
RAW_ASCENT 799
RAW_DESCENT 200
ITALIC_ANGLE 4992
NORM_SPACE 14
RELATIVE_WEIGHT 40
RELATIVE_SETWIDTH 50
SUPERSCRIPT_X 2
SUPERSCRIPT_Y 23
SUPERSCRIPT_SIZE 32
SUBSCRIPT_X 0
SUBSCRIPT_Y 6
SUBSCRIPT_SIZE 32
FIGURE_WIDTH 28
AVG_LOWERCASE_WIDTH 265
AVG_UPPERCASE_WIDTH 355
ENDPROPERTIES
CHARS 2523
STARTCHAR space
ENCODING 32
SWIDTH 277 0
DWIDTH 14 0
BBX 1 1 0 0
BITMAP
00
ENDCHAR
STARTCHAR exclam
ENCODING 33
SWIDTH 277 0
DWIDTH 14 0
BBX 11 36 3 0
BITMAP
01E0
01E0
03E0
03C0
03C0
03C0
03C0
07C0
0780
0780
0780
0780
0700
0F00
0F00
0F00
0E00
0E00
1E00
1E00
1E00
1C00
1C00
1C00
3C00
3800
3800
0000
0000
0000
0000
0000
7800
7800
F000
F000
ENDCHAR
STARTCHAR quotedbl
ENCODING 34
SWIDTH 354 0
DWIDTH 18 0
BBX 15 13 6 23
BITMAP
1E1E
1E1E
3C3C
3C3C
3C3C
3C3C
7C7C
7878
7878
7878
7070
F0F0
F0F0
ENDCHAR
STARTCHAR numbersign
ENCODING 35
SWIDTH 556 0
DWIDTH 28 0
BBX 27 36 2 0
BITMAP
003C0780
00780F80
00780F00
00780F00
00780F00
00F80F00
00F01F00
00F01E00
00F01E00
00F01E00
FFFFFFE0
FFFFFFE0
FFFFFFE0
FFFFFFE0
01E03C00
03C03C00
03C07800
03C07800
03C07800
03C07800
0780F800
0780F000
FFFFFFE0
FFFFFFE0
FFFFFFE0
FFFFFFE0
0F01E000
0F01E000
0F01E000
1E01E000
1E03C000
1E03C000
1E03C000
1E03C000
3C07C000
3C078000
ENDCHAR
STARTCHAR dollar
ENCODING 36
SWIDTH 556 0
DWIDTH 28 0
BBX 26 42 3 -4
BITMAP
00007000
00007000
000FF000
003FFE00
007FFF00
00FCFF80
01E0E780
03C1C3C0
03C1C3C0
0781C000
0781C000
0781C000
07838000
07838000
07C38000
03C38000
03E78000
01FF0000
00FF0000
007F8000
003FE000
000FF800
000FFC00
000E7C00
000E3E00
000E1E00
001C0F00
001C0F00
001C0F00
F01C0F00
F03C0F00
F0380E00
78381E00
7C383E00
3C387C00
3F70F800
1FFFF000
07FFE000
01FF0000
00700000
00E00000
00E00000
ENDCHAR
STARTCHAR percent
ENCODING 37
SWIDTH 889 0
DWIDTH 44 0
BBX 37 37 5 -1
BITMAP
03F00001E0
0FFC0003C0
1FFE000780
3FFE000F00
3E1F001E00
7C0F001E00
780F003C00
780F007800
F80F00F000
F00F00F000
F01F01E000
F01E03C000
F01E078000
F03E0F0000
F87C0F0000
7FFC1E0000
7FF83C0000
3FF0780000
0FC0F81F80
0000F07FE0
0001E0FFF0
0003C1FFF0
000781F0F8
000783E078
000F03C078
001E03C078
003C07C078
0078078078
00780780F8
00F00780F0
01E00780F0
03C00781F0
03C007C3E0
078003FFE0
0F0003FFC0
1E0001FF80
3C00007E00
ENDCHAR
STARTCHAR ampersand
ENCODING 38
SWIDTH 666 0
DWIDTH 33 0
BBX 28 37 4 -1
BITMAP
0007E000
001FF800
003FFC00
007FFC00
00FC7E00
00F03E00
01F01E00
01E01E00
01E01E00
01E03C00
01E07C00
01E0F800
00F1F000
00F7E000
00FFC000
00FF0000
01FE0000
07FE0000
0FDE0000
1F1F0000
3C0F8000
780F8040
7807C0E0
F003C1F0
F003E1E0
F001F3E0
F000FFC0
F0007FC0
F0007F80
F8003F00
78007F00
7C01FF80
3F07FFC0
3FFFF7E0
1FFFC3F0
07FF81E0
01FE0080
ENDCHAR
STARTCHAR quotesingle
ENCODING 39
SWIDTH 190 0
DWIDTH 10 0
BBX 7 13 6 23
BITMAP
1E
1E
3C
3C
3C
3C
7C
78
78
78
70
F0
F0
ENDCHAR
STARTCHAR parenleft
ENCODING 40
SWIDTH 333 0
DWIDTH 17 0
BBX 16 46 4 -10
BITMAP
0007
000E
001C
0038
0070
00F0
00E0
01E0
03C0
0380
0780
0F00
0F00
1E00
1E00
1E00
3C00
3C00
7C00
7800
7800
7800
7800
F000
F000
F000
F000
F000
F000
F000
F000
F000
F000
F000
F000
7000
7800
7800
7800
7800
3800
3C00
3C00
1C00
1C00
0E00
ENDCHAR
STARTCHAR parenright
ENCODING 41
SWIDTH 333 0
DWIDTH 17 0
BBX 16 46 -2 -10
BITMAP
0070
0078
0038
0038
003C
001C
001C
001E
001E
001E
000E
000F
000F
000F
000F
000F
000F
000F
000F
000F
000F
000F
001F
001E
001E
001E
001E
003E
003C
003C
0078
0078
0078
00F0
00F0
01E0
01C0
03C0
0780
0700
0F00
0E00
1C00
3800
7000
E000
ENDCHAR
STARTCHAR asterisk
ENCODING 42
SWIDTH 389 0
DWIDTH 19 0
BBX 18 15 6 21
BITMAP
01E000
01E000
01E000
01E000
71E380
7FDF80
FFFFC0
3FFF00
03E000
07F800
0FFC00
1F3E00
1E1F00
1E1E00
040800
ENDCHAR
STARTCHAR plus
ENCODING 43
SWIDTH 583 0
DWIDTH 29 0
BBX 24 24 5 6
BITMAP
003C00
003C00
003C00
003C00
003C00
003C00
003C00
003C00
003C00
003C00
FFFFFF
FFFFFF
FFFFFF
FFFFFF
003C00
003C00
003C00
003C00
003C00
003C00
003C00
003C00
003C00
003C00
ENDCHAR
STARTCHAR comma
ENCODING 44
SWIDTH 277 0
DWIDTH 14 0
BBX 7 12 1 -8
BITMAP
1E
1E
3E
3C
0C
0C
1C
18
38
70
E0
C0
ENDCHAR
STARTCHAR hyphen
ENCODING 45
SWIDTH 333 0
DWIDTH 17 0
BBX 15 4 2 11
BITMAP
7FFE
7FFE
FFFC
FFFC
ENDCHAR
STARTCHAR period
ENCODING 46
SWIDTH 277 0
DWIDTH 14 0
BBX 5 4 3 0
BITMAP
78
78
F0
F0
ENDCHAR
STARTCHAR slash
ENCODING 47
SWIDTH 277 0
DWIDTH 14 0
BBX 24 36 -3 0
BITMAP
00000F
00001E
00001E
00003C
00007C
000078
0000F0
0000F0
0001E0
0001E0
0003C0
0003C0
000780
000F80
000F00
001E00
001E00
003C00
003C00
007800
007800
00F000
01F000
01E000
03C000
03C000
078000
078000
0F0000
0F0000
1E0000
3E0000
3C0000
780000
780000
F00000
ENDCHAR
STARTCHAR zero
ENCODING 48
SWIDTH 556 0
DWIDTH 28 0
BBX 25 36 3 0
BITMAP
000FC000
003FF000
007FFC00
01FFFE00
03F83E00
03E01F00
07C00F00
0F800780
0F000780
1F000780
1E000780
3E000780
3E000780
3C000780
7C000780
7C000780
78000F80
78000F80
F8000F00
F8000F00
F0001F00
F0001F00
F0001E00
F0003E00
F0003E00
F0003C00
F0007C00
F000F800
7800F800
7801F000
7C03E000
3E0FE000
3FFFC000
1FFF8000
07FE0000
01F80000
ENDCHAR
STARTCHAR one
ENCODING 49
SWIDTH 556 0
DWIDTH 28 0
BBX 16 36 8 0
BITMAP
0007
0007
000F
001E
003E
00FE
01FE
07FC
0FFC
3FFC
FF3C
FE3C
F078
C078
0078
0078
00F0
00F0
00F0
00F0
01F0
01E0
01E0
01E0
01E0
03C0
03C0
03C0
03C0
07C0
0780
0780
0780
0780
0F00
0F00
ENDCHAR
STARTCHAR two
ENCODING 50
SWIDTH 556 0
DWIDTH 28 0
BBX 25 36 3 0
BITMAP
001FC000
007FF000
01FFFC00
03FFFE00
07F07E00
07C01F00
0F800F00
0F000F80
1F000780
1E000780
1E000780
00000780
00000F80
00000F00
00001F00
00003E00
00007E00
0000FC00
0001F800
0003F000
0007E000
001F8000
003F0000
007E0000
00FC0000
03F00000
07E00000
0FC00000
1F800000
1F000000
3E000000
7C000000
7FFFFC00
7FFFFC00
FFFFF800
FFFFF800
ENDCHAR
STARTCHAR three
ENCODING 51
SWIDTH 556 0
DWIDTH 28 0
BBX 25 36 3 0
BITMAP
000FE000
007FF800
00FFFC00
01FFFE00
03F03F00
07E01F00
07C00F80
0F800780
0F000780
03000780
00000780
00000F80
00000F00
00001F00
00007E00
000FFC00
001FF000
001FE000
001FF800
0001F800
00007C00
00003E00
00001E00
00001E00
00001E00
00001E00
F0001E00
F0003E00
F8003C00
78007C00
7C00F800
3F03F000
3FFFE000
0FFFC000
07FF8000
01FC0000
ENDCHAR
STARTCHAR four
ENCODING 52
SWIDTH 556 0
DWIDTH 28 0
BBX 24 36 3 0
BITMAP
00000F
00001F
00003F
00007E
0000FE
0001FE
0001DE
0003BC
00073C
000F3C
001E3C
003C7C
007878
007078
00E078
01E078
03C0F0
0780F0
0F00F0
0E00F0
1C01F0
3C01E0
7801E0
7FFFFF
7FFFFF
FFFFFE
FFFFFE
0003C0
0003C0
0007C0
000780
000780
000780
000780
000F00
000F00
ENDCHAR
STARTCHAR five
ENCODING 53
SWIDTH 556 0
DWIDTH 28 0
BBX 26 36 3 0
BITMAP
00FFFFC0
00FFFF80
01FFFF80
01FFFF80
01E00000
01E00000
03C00000
03C00000
03C00000
03C00000
07800000
078FE000
07BFF800
0FFFFC00
0FFFFE00
0FE07F00
0F801F00
1F000F00
1E000F80
00000780
00000780
00000780
00000780
00000780
00000F80
F0000F00
F0000F00
F0001F00
F8003E00
78007E00
7C00FC00
3F03F800
3FFFF000
1FFFE000
07FF8000
01FE0000
ENDCHAR
STARTCHAR six
ENCODING 54
SWIDTH 556 0
DWIDTH 28 0
BBX 24 36 4 0
BITMAP
000FC0
003FF0
00FFFC
01FFFC
03F87E
07E01E
07C01F
0F800F
0F000F
1F0000
1E0000
3E0000
3C3F00
3CFFC0
7DFFE0
7FFFF0
7FC3F8
7F00F8
FE007C
FC007C
F8003C
F8003C
F0003C
F0003C
F0003C
F0007C
F00078
F00078
7800F8
7801F0
7C03F0
3F0FE0
1FFFC0
0FFF80
07FF00
01F800
ENDCHAR
STARTCHAR seven
ENCODING 55
SWIDTH 556 0
DWIDTH 28 0
BBX 24 36 6 0
BITMAP
7FFFFF
FFFFFF
FFFFFE
FFFFFE
00007E
0000F8
0001F0
0001E0
0003E0
0007C0
000F80
000F00
001E00
003E00
003C00
007800
00F800
00F000
01F000
01E000
03E000
03C000
07C000
078000
078000
0F0000
0F0000
1F0000
1E0000
1E0000
3E0000
3C0000
3C0000
7C0000
780000
780000
ENDCHAR
STARTCHAR eight
ENCODING 56
SWIDTH 556 0
DWIDTH 28 0
BBX 24 36 4 0
BITMAP
003FC0
00FFF0
03FFF8
07FFFC
07E07E
0F801E
1F000F
1F000F
1E000F
1E000F
1E000F
1E001E
0F003E
0FC0FC
07FFF8
01FFE0
07FFC0
1FFFF0
3F81F0
3E00F8
7C0078
78003C
F8003C
F0003C
F0003C
F0003C
F0007C
F00078
F000F8
F800F8
7C01F0
7F07E0
3FFFC0
1FFF80
0FFF00
01FC00
ENDCHAR
STARTCHAR nine
ENCODING 57
SWIDTH 556 0
DWIDTH 28 0
BBX 24 36 3 0
BITMAP
001F80
00FFE0
01FFF0
03FFF8
07F0FC
0FC03E
0F801E
1F001E
1E000F
1E000F
3C000F
3C000F
3C000F
3C000F
3C001F
3C001F
3E003F
3E007F
1F00FE
1FC3FE
0FFFFE
07FFBE
03FF3C
00FC7C
00007C
000078
0000F8
F000F0
F001F0
F803E0
7807E0
7E1FC0
3FFF80
3FFF00
0FFC00
03F000
ENDCHAR
STARTCHAR colon
ENCODING 58
SWIDTH 277 0
DWIDTH 14 0
BBX 9 26 3 0
BITMAP
0780
0780
0F00
0F00
0000
0000
0000
0000
0000
0000
0000
0000
0000
0000
0000
0000
0000
0000
0000
0000
0000
0000
7800
7800
F000
F000
ENDCHAR
STARTCHAR semicolon
ENCODING 59
SWIDTH 277 0
DWIDTH 14 0
BBX 11 34 1 -8
BITMAP
01E0
01E0
03C0
03C0
0000
0000
0000
0000
0000
0000
0000
0000
0000
0000
0000
0000
0000
0000
0000
0000
0000
0000
1E00
1E00
3E00
3C00
0C00
0C00
1C00
1800
3800
7000
E000
C000
ENDCHAR
STARTCHAR less
ENCODING 60
SWIDTH 583 0
DWIDTH 29 0
BBX 24 25 4 5
BITMAP
000001
000007
00001F
0000FF
0003FF
000FFE
003FF0
00FF80
07FE00
1FF000
7F8000
FE0000
F00000
FE0000
7F8000
1FF000
07FE00
00FF80
003FF0
000FFE
0003FF
0000FF
00001F
000007
000001
ENDCHAR
STARTCHAR equal
ENCODING 61
SWIDTH 583 0
DWIDTH 29 0
BBX 23 15 5 10
BITMAP
FFFFFE
FFFFFE
FFFFFE
FFFFFE
000000
000000
000000
000000
000000
000000
000000
FFFFFE
FFFFFE
FFFFFE
FFFFFE
ENDCHAR
STARTCHAR greater
ENCODING 62
SWIDTH 583 0
DWIDTH 29 0
BBX 24 25 4 5
BITMAP
800000
E00000
F80000
FF0000
FFC000
7FF000
0FFC00
01FF00
007FE0
000FF8
0001FE
00007F
00000F
00007F
0001FE
000FF8
007FE0
01FF00
0FFC00
7FF000
FFC000
FF0000
F80000
E00000
800000
ENDCHAR
STARTCHAR question
ENCODING 63
SWIDTH 556 0
DWIDTH 28 0
BBX 21 36 6 0
BITMAP
00FC00
07FF80
0FFFC0
1FFFE0
3F03F0
3E00F0
7C00F8
780078
F80078
F00078
300078
0000F0
0001F0
0003E0
0007E0
000FC0
001F80
003F00
007E00
00FC00
01F800
01F000
03E000
03C000
07C000
078000
078000
000000
000000
000000
000000
000000
0F0000
0F0000
1E0000
1E0000
ENDCHAR
STARTCHAR at
ENCODING 64
SWIDTH 1015 0
DWIDTH 50 0
BBX 46 47 3 -11
BITMAP
00001FF80000
0001FFFF8000
0007FFFFE000
001FFFFFF800
007FE00FFC00
00FF0000FE00
01FC00003F00
03F000001F80
07E000000FC0
07C03F0007C0
0F80FF8783E0
1F01FFE781E0
1E03FFE781F0
3E07E0FF00F0
3C0F807F00F8
3C0F003F0078
781F003F0078
781E001F0078
783E001E0078
783C001E0078
F03C001E0078
F078001E0078
F078001E00F8
F078003E00F0
F078003C00F0
F078003C01F0
F078003C01E0
F078007C03E0
F07C007C07C0
F03C00FC0F80
783E01F81F00
781F07FC7F00
781FFFFFFC00
7C0FFF7FF800
3C07FC3FF000
3E01F01F8000
1F000000007C
1F80000000F8
0FC0000001F0
07E0000003F0
03F800000FE0
01FE00003F80
00FFE003FF00
003FFFFFFE00
000FFFFFF800
0003FFFFC000
00003FFE0000
ENDCHAR
STARTCHAR A
ENCODING 65
SWIDTH 666 0
DWIDTH 33 0
BBX 30 36 0 0
BITMAP
00003F80
00003F80
00007F80
00007BC0
0000FBC0
0000F3C0
0001F3C0
0001E3C0
0003E3C0
0003C3E0
0007C1E0
000781E0
000F81E0
000F01E0
001F01E0
001E01E0
003E00F0
003C00F0
007C00F0
00F800F0
00F800F0
01F000F0
01FFFFF8
03FFFFF8
03FFFFF8
07FFFFF8
07800078
0F800078
0F000078
1F00003C
1E00003C
3E00003C
3C00003C
7C00003C
7800003C
F800003C
ENDCHAR
STARTCHAR B
ENCODING 66
SWIDTH 666 0
DWIDTH 33 0
BBX 30 36 2 0
BITMAP
01FFFF00
01FFFFE0
01FFFFF0
03FFFFF8
03C001F8
03C0007C
03C0007C
03C0003C
0780003C
0780003C
0780003C
07800078
07800078
0F0000F0
0F0007F0
0FFFFFE0
0FFFFF80
0FFFFF80
1FFFFFE0
1E0003F0
1E0000F0
1E0000F8
1E000078
3E000078
3C000078
3C000078
3C000078
3C0000F8
7C0000F0
780001F0
780003E0
78001FC0
7FFFFFC0
FFFFFF00
FFFFFE00
FFFFF000
ENDCHAR
STARTCHAR C
ENCODING 67
SWIDTH 722 0
DWIDTH 36 0
BBX 31 38 5 -1
BITMAP
0003FC00
001FFF80
007FFFC0
00FFFFF0
01FE07F0
03F001F8
07E000FC
0FC0007C
0F80003C
1F00003E
3E00001E
3E000018
3C000000
7C000000
78000000
78000000
78000000
F0000000
F0000000
F0000000
F0000000
F0000000
F0000000
F0000000
F0000060
F00000F8
F00000F0
780000F0
780001F0
7C0003E0
7C0003C0
3E000FC0
1F001F80
1FE07F00
0FFFFE00
07FFFC00
01FFF000
007F8000
ENDCHAR
STARTCHAR D
ENCODING 68
SWIDTH 722 0
DWIDTH 36 0
BBX 34 36 2 0
BITMAP
00FFFF0000
00FFFFE000
01FFFFF800
01FFFFFC00
01E000FE00
01E0003F00
01E0001F00
03C0000F80
03C0000780
03C0000780
03C00003C0
07C00003C0
07800003C0
07800003C0
07800003C0
07800003C0
0F000003C0
0F000003C0
0F000003C0
0F000007C0
1F00000780
1E00000780
1E00000F80
1E00000F00
1E00001F00
3C00001E00
3C00003E00
3C00007C00
3C0000FC00
7C0003F800
78000FF000
78007FE000
7FFFFFC000
7FFFFF0000
FFFFFC0000
FFFFE00000
ENDCHAR
STARTCHAR E
ENCODING 69
SWIDTH 666 0
DWIDTH 33 0
BBX 33 36 2 0
BITMAP
01FFFFFF80
01FFFFFF80
03FFFFFF80
03FFFFFF00
03C0000000
03C0000000
03C0000000
03C0000000
0780000000
0780000000
0780000000
0780000000
0780000000
0F00000000
0F00000000
0FFFFFFC00
0FFFFFFC00
0FFFFFF800
1FFFFFF800
1E00000000
1E00000000
1E00000000
1E00000000
3E00000000
3C00000000
3C00000000
3C00000000
3C00000000
7C00000000
7800000000
7800000000
7800000000
7FFFFFF000
FFFFFFF000
FFFFFFF000
FFFFFFE000
ENDCHAR
STARTCHAR F
ENCODING 70
SWIDTH 610 0
DWIDTH 31 0
BBX 30 36 2 0
BITMAP
00FFFFFC
00FFFFFC
01FFFFF8
01FFFFF8
01E00000
01E00000
01E00000
03C00000
03C00000
03C00000
03C00000
07800000
07800000
07800000
07800000
07800000
0FFFFFE0
0FFFFFE0
0FFFFFE0
0FFFFFE0
1E000000
1E000000
1E000000
1E000000
1E000000
3C000000
3C000000
3C000000
3C000000
7C000000
78000000
78000000
78000000
78000000
F0000000
F0000000
ENDCHAR
STARTCHAR G
ENCODING 71
SWIDTH 777 0
DWIDTH 39 0
BBX 34 38 5 -1
BITMAP
0000FF0000
000FFFE000
003FFFF800
007FFFFC00
00FF01FE00
03F8003F00
03F0001F00
07C0000F80
0F80000F80
1F00000780
1E000007C0
3E00000300
3C00000000
3C00000000
7800000000
7800000000
7800000000
F800000000
F000000000
F000FFFF00
F000FFFF00
F001FFFF00
F001FFFE00
F000001E00
F000001E00
F000001E00
F000003E00
7800003C00
7800003C00
7C00003C00
3C00003C00
3E0000F800
1F8003F800
1FE01FF800
0FFFFFF000
03FFFFC000
01FFFE0000
003FF00000
ENDCHAR
STARTCHAR H
ENCODING 72
SWIDTH 722 0
DWIDTH 36 0
BBX 34 36 2 0
BITMAP
01E00003C0
01E00003C0
03E00003C0
03C0000780
03C0000780
03C0000780
03C0000780
03C0000780
0780000F00
0780000F00
0780000F00
0780000F00
0780000F00
0F00001E00
0F00001E00
0FFFFFFE00
0FFFFFFE00
0FFFFFFE00
1FFFFFFC00
1E00003C00
1E00003C00
1E00003C00
1E00003C00
3E00007C00
3C00007800
3C00007800
3C00007800
3C00007800
7C0000F800
780000F000
780000F000
780000F000
780000F000
F80001F000
F00001E000
F00001E000
ENDCHAR
STARTCHAR I
ENCODING 73
SWIDTH 277 0
DWIDTH 14 0
BBX 11 36 3 0
BITMAP
01E0
01E0
03E0
03C0
03C0
03C0
03C0
03C0
0780
0780
0780
0780
0780
0F00
0F00
0F00
0F00
0F00
1E00
1E00
1E00
1E00
1E00
3C00
3C00
3C00
3C00
3C00
7C00
7800
7800
7800
7800
F800
F000
F000
ENDCHAR
STARTCHAR J
ENCODING 74
SWIDTH 500 0
DWIDTH 25 0
BBX 24 37 2 -1
BITMAP
00000F
00000F
00001F
00001E
00001E
00001E
00001E
00001E
00003C
00003C
00003C
00003C
00003C
000078
000078
000078
000078
000078
0000F0
0000F0
0000F0
0000F0
0000F0
0001E0
0001E0
0001E0
F001E0
F001E0
F003C0
F003C0
F007C0
F80780
7C1F80
7FFF00
3FFE00
1FFC00
07F000
ENDCHAR
STARTCHAR K
ENCODING 75
SWIDTH 666 0
DWIDTH 33 0
BBX 34 36 2 0
BITMAP
00F00007C0
00F0000F80
01E0003F00
01E0007E00
01E000FC00
01E001F800
01E003F000
03C007E000
03C00F8000
03C01F0000
03C07E0000
07C0FC0000
0781F80000
0783F00000
0787E00000
078FC00000
0F1FC00000
0F7FE00000
0FFDF00000
0FF8F00000
1FF0F80000
1FE0780000
1F807C0000
1F003C0000
1E001E0000
3C001F0000
3C000F0000
3C000F8000
3C00078000
7C0007C000
780003C000
780003E000
780001E000
780000F000
F00000F800
F000007800
ENDCHAR
STARTCHAR L
ENCODING 76
SWIDTH 556 0
DWIDTH 28 0
BBX 25 36 2 0
BITMAP
01E00000
01E00000
03E00000
03C00000
03C00000
03C00000
03C00000
03C00000
07800000
07800000
07800000
07800000
07800000
0F000000
0F000000
0F000000
0F000000
0F000000
1E000000
1E000000
1E000000
1E000000
1E000000
3C000000
3C000000
3C000000
3C000000
3C000000
7C000000
78000000
78000000
78000000
7FFFFF80
FFFFFF80
FFFFFF00
FFFFFF00
ENDCHAR
STARTCHAR M
ENCODING 77
SWIDTH 833 0
DWIDTH 42 0
BBX 40 36 4 0
BITMAP
03FC00007F
03FC00007E
03FC0000FE
03FC0000FE
03FC0001FE
03FC0003EE
07BC0003DC
07BC0007DC
07BC00079C
07BC000F1C
079E000F3C
0F1E001E38
0F1E001E38
0F1E003C78
0F1E007C78
0F1E007870
0F1E00F870
1E1E00F0F0
1E1E01F0F0
1E1E01E0F0
1E0F03C0E0
1E0F07C1E0
3C0F0781E0
3C0F0F81E0
3C0F0F01E0
3C0F1F01C0
3C0F1E03C0
3C0F3E03C0
780F3C03C0
780F780380
7807780780
7807F00780
7807F00780
F007E00780
F007E00F00
F007C00F00
ENDCHAR
STARTCHAR N
ENCODING 78
SWIDTH 722 0
DWIDTH 36 0
BBX 35 36 2 0
BITMAP
01F80001E0
01F80001E0
03F80003E0
03FC0003C0
03FC0003C0
03FE0003C0
03DE0003C0
03DE0007C0
079F000780
078F000780
078F800780
0787800780
0787800F00
0F07C00F00
0F03C00F00
0F03E00F00
0F03E01F00
0F01E01E00
1E01F01E00
1E01F01E00
1E00F01E00
1E00F83E00
1E00783C00
3C007C3C00
3C007C3C00
3C003C3C00
3C003E7800
3C003E7800
7C001E7800
78001E7800
78000FF800
78000FF000
78000FF000
F80007F000
F00007F000
F00007F000
ENDCHAR
STARTCHAR O
ENCODING 79
SWIDTH 777 0
DWIDTH 39 0
BBX 33 38 5 -1
BITMAP
0003FC0000
001FFF8000
003FFFE000
00FFFFF000
01FE03F800
03F800FC00
07E0007C00
0FC0003E00
0F80001E00
1F00001F00
3E00000F00
3E00000F00
3C00000780
7C00000780
7800000780
7800000780
F800000780
F000000780
F000000780
F000000780
F000000F80
F000000F80
F000000F00
F000000F00
F000001F00
F000001E00
7800003E00
7800003C00
7800007C00
3C0000F800
3E0001F800
1F0003F000
1F800FE000
0FF03FC000
07FFFF8000
03FFFE0000
00FFF80000
001FE00000
ENDCHAR
STARTCHAR P
ENCODING 80
SWIDTH 666 0
DWIDTH 33 0
BBX 33 36 2 0
BITMAP
00FFFFE000
00FFFFFC00
01FFFFFE00
01FFFFFE00
01E0003F00
01E0000F00
01E0000F80
03C0000780
03C0000780
03C0000780
03C0000780
0780000F80
0780000F00
0780001F00
0780003E00
0780007E00
0F0001FC00
0FFFFFF800
0FFFFFF000
0FFFFFC000
1FFFFC0000
1E00000000
1E00000000
1E00000000
1E00000000
3C00000000
3C00000000
3C00000000
3C00000000
7C00000000
7800000000
7800000000
7800000000
7800000000
F000000000
F000000000
ENDCHAR
STARTCHAR Q
ENCODING 81
SWIDTH 777 0
DWIDTH 39 0
BBX 33 43 5 -6
BITMAP
0003FC0000
001FFF8000
007FFFE000
00FFFFF000
01FE03F800
03F800FC00
07E0007C00
0FC0003E00
0F80001E00
1F00001F00
3E00000F00
3E00000F00
3C00000780
7C00000780
7800000780
7800000780
F800000780
F000000780
F000000780
F000000780
F000000780
F000000F80
F000000F00
F000000F00
F000001F00
F000001E00
7800003E00
7800803E00
7C00E07C00
3C01F0FC00
3E01F9F800
1F00FFF000
1F803FE000
0FE03FC000
07FFFF8000
01FFFFC000
00FFFDE000
000FE1F000
000000F800
0000007C00
0000003800
0000003800
0000001000
ENDCHAR
STARTCHAR R
ENCODING 82
SWIDTH 722 0
DWIDTH 36 0
BBX 34 36 2 0
BITMAP
01FFFFF000
01FFFFFE00
03FFFFFF00
03FFFFFF80
03C0001F80
03C00007C0
03C00007C0
03C00003C0
07800003C0
07800003C0
07800003C0
07800007C0
0780000780
0F00000F80
0F00001F80
0F00007F00
0FFFFFFE00
0FFFFFFC00
1FFFFFF000
1FFFFF8000
1E003E0000
1E000F0000
1E00078000
3C0003C000
3C0003C000
3C0001E000
3C0001E000
3C0000F000
7C0000F000
780000F800
7800007800
7800007C00
7800003C00
F800003E00
F000001E00
F000001E00
ENDCHAR
STARTCHAR S
ENCODING 83
SWIDTH 666 0
DWIDTH 33 0
BBX 29 38 4 -1
BITMAP
000FF000
007FFE00
00FFFF80
03FFFFC0
03F01FE0
07C003E0
078001F0
0F0000F0
0F0000F8
0F000078
0F000078
0F000078
0F800000
07C00000
07F00000
03FC0000
01FF0000
007FE000
003FF800
000FFE00
0001FF00
00007F80
00001FC0
000007C0
000003E0
300003E0
F00001E0
F00001E0
F00001E0
F80001E0
780003C0
7C0007C0
7E000F80
3FC03F80
1FFFFF00
0FFFFE00
03FFF800
007FC000
ENDCHAR
STARTCHAR T
ENCODING 84
SWIDTH 610 0
DWIDTH 31 0
BBX 30 36 6 0
BITMAP
7FFFFFFC
7FFFFFF8
7FFFFFF8
FFFFFFF8
00078000
00078000
000F8000
000F0000
000F0000
000F0000
000F0000
001E0000
001E0000
001E0000
001E0000
001E0000
003C0000
003C0000
003C0000
003C0000
00780000
00780000
00780000
00780000
00780000
00F00000
00F00000
00F00000
00F00000
01F00000
01E00000
01E00000
01E00000
01E00000
03C00000
03C00000
ENDCHAR
STARTCHAR U
ENCODING 85
SWIDTH 722 0
DWIDTH 36 0
BBX 32 37 5 -1
BITMAP
0780000F
0780000F
0780000F
0F00001E
0F00001E
0F00001E
0F00001E
1F00001E
1E00003C
1E00003C
1E00003C
1E00003C
3E00007C
3C000078
3C000078
3C000078
3C000078
7C0000F8
780000F0
780000F0
780000F0
780000F0
F80001F0
F00001E0
F00001E0
F00003E0
F00003C0
F00003C0
F00007C0
F8000F80
7C001F80
7E003F00
3F80FE00
1FFFFC00
0FFFF800
03FFE000
00FF8000
ENDCHAR
STARTCHAR V
ENCODING 86
SWIDTH 666 0
DWIDTH 33 0
BBX 29 36 8 0
BITMAP
F00000F8
F00000F0
F00001F0
F00001E0
F00003E0
F00003C0
780007C0
78000780
78000F00
78000F00
78001E00
78001E00
7C003C00
3C007C00
3C007800
3C00F800
3C00F000
3C01F000
3C01E000
1E03E000
1E03C000
1E07C000
1E078000
1E0F8000
1E0F0000
0F1F0000
0F1E0000
0F3E0000
0F3C0000
0F7C0000
0F780000
07F80000
07F00000
07F00000
07E00000
07C00000
ENDCHAR
STARTCHAR W
ENCODING 87
SWIDTH 943 0
DWIDTH 48 0
BBX 47 36 6 0
BITMAP
F00007C0001E
F00007C0003E
F0000FC0003C
F0000FC0007C
F0001FC00078
F0003FC000F8
F0003FC000F0
F8007BE001F0
F8007BE001E0
7800FBE003E0
7800F3E003C0
7801F3E007C0
7801E3E00780
7803E3E00F80
7803C1E00F00
7807C1E01F00
780781E01E00
780F81E03E00
780F01E03C00
781F01E07C00
781E01E07800
783E01E0F800
7C3C01E0F000
7C7C01F1F000
7C7801F1E000
7CF001F3E000
7CF001F3C000
3CE001F7C000
3DE001F78000
3DC000F78000
3FC000FF0000
3F8000FE0000
3F8000FE0000
3F0000FC0000
3F0000FC0000
3E0000F80000
ENDCHAR
STARTCHAR X
ENCODING 88
SWIDTH 666 0
DWIDTH 33 0
BBX 40 36 -2 0
BITMAP
01E000001F
01F000003E
00F000007C
00780000F8
007C0001F0
003C0003E0
003E0007C0
001E000F80
000F001F00
000F803E00
0007807C00
0007C0F800
0003C1F000
0001E3E000
0001F7C000
0000FF8000
0000FF0000
00007E0000
00007C0000
0000FE0000
0001FE0000
0003FF0000
0007CF0000
000F878000
001F07C000
003E03C000
007C03E000
00F801E000
01F000F000
03E000F800
07C0007800
0F80007C00
1F00003C00
3E00001E00
7C00001F00
F800000F00
ENDCHAR
STARTCHAR Y
ENCODING 89
SWIDTH 666 0
DWIDTH 33 0
BBX 30 36 7 0
BITMAP
F000007C
F8000078
780000F0
7C0001F0
3C0003E0
3C0003C0
1E0007C0
1E000F80
1F000F00
0F001F00
0F803E00
07807C00
07C07800
03C0F800
03E1F000
01E1E000
01F3E000
00F7C000
00FF8000
007F0000
007F0000
003E0000
003C0000
003C0000
003C0000
00780000
00780000
00780000
00780000
00F80000
00F00000
00F00000
00F00000
00F00000
01E00000
01E00000
ENDCHAR
STARTCHAR Z
ENCODING 90
SWIDTH 610 0
DWIDTH 31 0
BBX 32 36 1 0
BITMAP
03FFFFFF
03FFFFFF
03FFFFFF
03FFFFFE
0000003E
0000007C
000000F8
000001F0
000003E0
000007C0
00000F80
00000F00
00001F00
00003E00
00007C00
0000F800
0001F000
0003E000
0003C000
0007C000
000F8000
001F0000
003E0000
007C0000
00F80000
01F00000
01E00000
03E00000
07C00000
0F800000
1F000000
3E000000
7FFFFFF0
7FFFFFF0
FFFFFFF0
FFFFFFE0
ENDCHAR
STARTCHAR bracketleft
ENCODING 91
SWIDTH 277 0
DWIDTH 14 0
BBX 18 46 1 -10
BITMAP
007FC0
007FC0
00FF80
00FF80
00F000
00F000
00F000
00F000
01E000
01E000
01E000
01E000
01E000
03C000
03C000
03C000
03C000
03C000
078000
078000
078000
078000
078000
0F0000
0F0000
0F0000
0F0000
0F0000
1E0000
1E0000
1E0000
1E0000
1E0000
3E0000
3C0000
3C0000
3C0000
3C0000
7C0000
780000
780000
780000
7F8000
FF8000
FF0000
FF0000
ENDCHAR
STARTCHAR backslash
ENCODING 92
SWIDTH 277 0
DWIDTH 14 0
BBX 10 36 4 0
BITMAP
F000
F000
F000
7800
7800
7800
7800
7800
7800
3C00
3C00
3C00
3C00
3C00
3C00
1E00
1E00
1E00
1E00
1E00
1E00
0F00
0F00
0F00
0F00
0F00
0F00
0780
0780
0780
0780
0780
0780
03C0
03C0
03C0
ENDCHAR
STARTCHAR bracketright
ENCODING 93
SWIDTH 277 0
DWIDTH 14 0
BBX 19 46 -3 -10
BITMAP
003FE0
003FE0
007FC0
007FC0
0003C0
0003C0
0007C0
000780
000780
000780
000780
000F00
000F00
000F00
000F00
000F00
001E00
001E00
001E00
001E00
001E00
003C00
003C00
003C00
003C00
007C00
007800
007800
007800
007800
00F800
00F000
00F000
00F000
00F000
01E000
01E000
01E000
01E000
01E000
03C000
03C000
7FC000
7FC000
FFC000
FF8000
ENDCHAR
STARTCHAR asciicircum
ENCODING 94
SWIDTH 469 0
DWIDTH 23 0
BBX 20 20 4 16
BITMAP
00F000
01F800
01F800
01F800
03FC00
039C00
079E00
079E00
070E00
0F0F00
0F0F00
1E0780
1E0780
1C0380
3C03C0
3C03C0
7801E0
7801E0
7801E0
F000F0
ENDCHAR
STARTCHAR underscore
ENCODING 95
SWIDTH 556 0
DWIDTH 28 0
BBX 29 4 -3 -10
BITMAP
FFFFFFF8
FFFFFFF8
FFFFFFF8
FFFFFFF8
ENDCHAR
STARTCHAR grave
ENCODING 96
SWIDTH 333 0
DWIDTH 17 0
BBX 8 8 7 28
BITMAP
F8
7C
7C
3C
1E
1E
0E
0F
ENDCHAR
STARTCHAR a
ENCODING 97
SWIDTH 556 0
DWIDTH 28 0
BBX 24 28 2 -1
BITMAP
001FC0
00FFF8
01FFFC
03FFFE
07E07F
0F801F
0F000F
1E000F
00000F
00000F
00001F
001FFF
07FFFE
1FFFFE
3FFFDE
7F801E
7C001E
F8003E
F0003C
F0003C
F0007C
F000FC
F801FC
7E07FC
7FFFBC
3FFF3C
1FFC3C
07F000
ENDCHAR
STARTCHAR b
ENCODING 98
SWIDTH 556 0
DWIDTH 28 0
BBX 24 37 2 -1
BITMAP
01E000
01E000
03E000
03C000
03C000
03C000
03C000
03C000
078000
0787C0
079FF0
07BFF8
07FFFC
0FF07E
0FE03E
0FC01E
0F801F
0F000F
1F000F
1E000F
1E000F
1E000F
1C000F
3C000F
3C001F
3C001E
3C001E
3C003E
7C003C
7C007C
7E00F8
7F01F8
7F83F0
FBFFE0
F1FFC0
F0FF80
007E00
ENDCHAR
STARTCHAR c
ENCODING 99
SWIDTH 500 0
DWIDTH 25 0
BBX 24 28 2 -1
BITMAP
001FC0
00FFF0
03FFF8
07FFFC
0FE07E
1F801E
1F001F
3E000F
3C000F
7C0000
780000
780000
780000
F00000
F00000
F00000
F00000
F00000
F0003C
F00078
F00078
7800F0
7C03F0
7E07E0
3FFFC0
1FFF80
0FFF00
03F800
ENDCHAR
STARTCHAR d
ENCODING 100
SWIDTH 556 0
DWIDTH 28 0
BBX 28 37 2 -1
BITMAP
000000F0
000000F0
000001F0
000001E0
000001E0
000001E0
000001E0
000003E0
000003C0
003F03C0
00FFC3C0
03FFE7C0
07FFF7C0
0FE0FF80
0F803F80
1F001F80
3E001F80
3C000F80
7C000F00
78000F00
78000F00
F8000F00
F0000F00
F0000E00
F0001E00
F0001E00
F0001E00
F0003E00
F0003C00
F8007C00
7800FC00
7C01FC00
7F07FC00
3FFFBC00
1FFF7800
0FFC7800
03F00000
ENDCHAR
STARTCHAR e
ENCODING 101
SWIDTH 556 0
DWIDTH 28 0
BBX 25 28 2 -1
BITMAP
001FC000
00FFF000
01FFFC00
07FFFE00
0FE07E00
0F801F00
1F000F00
3E000780
3C000780
78000780
78000780
7FFFFF80
FFFFFF80
FFFFFF80
FFFFFF80
F0000000
F0000000
F0000000
F0000000
F0001E00
F8003E00
78007C00
7C00FC00
3F07F800
1FFFF000
0FFFE000
07FF8000
01FC0000
ENDCHAR
STARTCHAR f
ENCODING 102
SWIDTH 277 0
DWIDTH 14 0
BBX 18 36 2 0
BITMAP
003F80
00FFC0
00FFC0
01FF80
01F000
01E000
03E000
03C000
03C000
03C000
3FFE00
3FFE00
7FFC00
7FFC00
078000
078000
0F0000
0F0000
0F0000
0F0000
1F0000
1E0000
1E0000
1E0000
1E0000
3C0000
3C0000
3C0000
3C0000
7C0000
780000
780000
780000
780000
F00000
F00000
ENDCHAR
STARTCHAR g
ENCODING 103
SWIDTH 556 0
DWIDTH 28 0
BBX 26 37 1 -10
BITMAP
001F8000
007FE3C0
01FFF3C0
03FFFBC0
07E0FFC0
0FC03FC0
0F801F80
1F000F80
1E000F80
3C000F80
3C000F00
7C000F00
78000F00
78000F00
78000F00
78001E00
78001E00
78001E00
78003E00
7C007C00
3C007C00
3E01FC00
3F07FC00
1FFFFC00
0FFF7800
07FE7800
01F87800
0000F800
0000F000
F000F000
F001F000
F803E000
FC07E000
7FFFC000
3FFF8000
1FFF0000
07F80000
ENDCHAR
STARTCHAR h
ENCODING 104
SWIDTH 556 0
DWIDTH 28 0
BBX 24 36 2 0
BITMAP
01E000
01E000
03E000
03C000
03C000
03C000
03C000
03C000
078000
0783F0
078FFC
079FFE
07BFFE
0F7C1F
0FF00F
0FC00F
0F800F
0F800F
1F000F
1F001F
1E001E
1E001E
1E001E
3E001E
3C003E
3C003C
3C003C
3C003C
7C003C
780078
780078
780078
780078
F80078
F000F0
F000F0
ENDCHAR
STARTCHAR i
ENCODING 105
SWIDTH 222 0
DWIDTH 10 0
BBX 11 36 1 0
BITMAP
01E0
01E0
03E0
03C0
0000
0000
0000
0000
0000
0000
0780
0780
0780
0F00
0F00
0F00
0F00
0F00
1E00
1E00
1E00
1E00
1E00
3C00
3C00
3C00
3C00
3C00
7C00
7800
7800
7800
7800
F800
F000
F000
ENDCHAR
STARTCHAR j
ENCODING 106
SWIDTH 222 0
DWIDTH 11 0
BBX 20 46 -6 -10
BITMAP
0000F0
0000F0
0001F0
0001E0
000000
000000
000000
000000
000000
000000
0003C0
0007C0
000780
000780
000780
000780
000F00
000F00
000F00
000F00
001F00
001E00
001E00
001E00
001E00
003C00
003C00
003C00
003C00
007C00
007800
007800
007800
007800
00F000
00F000
00F000
00F000
01F000
01E000
01E000
03E000
7FC000
FFC000
FF8000
7E0000
ENDCHAR
STARTCHAR k
ENCODING 107
SWIDTH 500 0
DWIDTH 25 0
BBX 25 36 2 0
BITMAP
00F00000
00F00000
01E00000
01E00000
01E00000
01E00000
01E00000
03C00000
03C00000
03C00000
03C01F80
07803F00
07807E00
0780FC00
0781F800
0783F000
0F07C000
0F0F8000
0F1F0000
0F3E0000
1F7E0000
1EFE0000
1FFF0000
1FCF0000
1F8F8000
3F078000
3E078000
3C03C000
3C03C000
7803E000
7801E000
7801E000
7800F000
7800F000
F000F800
F0007800
ENDCHAR
STARTCHAR l
ENCODING 108
SWIDTH 222 0
DWIDTH 11 0
BBX 12 36 1 0
BITMAP
00F0
00F0
01F0
01E0
01E0
01E0
01E0
03C0
03C0
03C0
03C0
07C0
0780
0780
0780
0780
0F00
0F00
0F00
0F00
1F00
1E00
1E00
1E00
1E00
3C00
3C00
3C00
3C00
7C00
7800
7800
7800
7800
F000
F000
ENDCHAR
STARTCHAR m
ENCODING 109
SWIDTH 833 0
DWIDTH 42 0
BBX 39 27 2 0
BITMAP
0001F007E0
03C7FC1FF8
07DFFE3FFC
07BFFE7FFC
07BC3EF87C
07F01FE03E
07E01F803E
0FC01F003E
0F801F003C
0F001E003C
0F001E003C
1F003E007C
1E003C007C
1E003C0078
1E003C0078
1E003C0078
3C007800F8
3C007800F0
3C007800F0
3C007800F0
7C00F801F0
7800F001E0
7800F001E0
7800F001E0
7800F001E0
F001E003C0
F001E003C0
ENDCHAR
STARTCHAR n
ENCODING 110
SWIDTH 556 0
DWIDTH 28 0
BBX 25 27 2 0
BITMAP
0001F800
03C7FC00
07CFFE00
079FFF00
07BC1F00
07F00F00
07E00F80
0FC00F80
0F800F00
0F800F00
0F000F00
1F000F00
1E001F00
1E001E00
1E001E00
1E001E00
3C003E00
3C003C00
3C003C00
3C003C00
7C007C00
78007800
78007800
78007800
78007800
F000F000
F000F000
ENDCHAR
STARTCHAR o
ENCODING 111
SWIDTH 556 0
DWIDTH 28 0
BBX 25 28 2 -1
BITMAP
001FC000
00FFF000
03FFF800
07FFFC00
0FE07E00
0F801F00
1F000F00
3E000F80
3C000780
7C000780
78000780
78000780
F8000780
F0000780
F0000780
F0000F80
F0000F00
F0000F00
F0001F00
F0003E00
F8003E00
78007C00
7C01FC00
3F07F800
3FFFF000
1FFFE000
07FF8000
01FC0000
ENDCHAR
STARTCHAR p
ENCODING 112
SWIDTH 556 0
DWIDTH 28 0
BBX 27 37 0 -10
BITMAP
0000FC00
00F3FE00
00F7FF00
01FFFF80
01FE0FC0
01F807C0
01F003C0
01F003E0
03E001E0
03C001E0
03C001E0
03C001E0
078001E0
078001E0
078001E0
078003E0
078003C0
0F8003C0
0F8007C0
0F800780
0F800F80
1FC01F00
1FC03F00
1FF07E00
1EFFFC00
1C7FF800
3C3FE000
3C0F8000
3C000000
3C000000
78000000
78000000
78000000
78000000
78000000
F0000000
F0000000
ENDCHAR
STARTCHAR q
ENCODING 113
SWIDTH 556 0
DWIDTH 27 0
BBX 25 37 2 -10
BITMAP
003E0000
01FF8780
03FFC780
07FFEF80
0FC1EF00
1F807F00
1F003F00
3E003F00
3C001E00
7C001E00
78001E00
78001E00
F8003E00
F0003C00
F0003C00
F0007C00
F0007C00
F0007800
F000F800
F000F800
F801F800
7803F800
7C07F000
7E0FF000
3FFEF000
1FFDF000
0FF9E000
03E1E000
0001E000
0001E000
0003E000
0003C000
0003C000
0003C000
0007C000
00078000
00078000
ENDCHAR
STARTCHAR r
ENCODING 114
SWIDTH 333 0
DWIDTH 17 0
BBX 19 27 2 0
BITMAP
0007C0
078FE0
079FC0
073FC0
0F7880
0FE000
0FC000
0F8000
0F8000
1F0000
1F0000
1E0000
1E0000
1E0000
3E0000
3C0000
3C0000
3C0000
3C0000
7C0000
780000
780000
780000
780000
F80000
F00000
F00000
ENDCHAR
STARTCHAR s
ENCODING 115
SWIDTH 500 0
DWIDTH 25 0
BBX 23 28 2 -1
BITMAP
007F80
01FFE0
07FFF8
0FFFF8
0F80FC
1F003E
1E001E
1E001E
1F0000
1FC000
0FF000
0FFC00
07FF00
01FFC0
007FE0
001FF0
0007F0
0001F8
F000F8
F00078
F00078
F80078
7C00F0
7F03F0
3FFFE0
1FFFC0
0FFF80
01FC00
ENDCHAR
STARTCHAR t
ENCODING 116
SWIDTH 277 0
DWIDTH 14 0
BBX 14 37 2 -1
BITMAP
0020
0060
01E0
03C0
03C0
03C0
03C0
07C0
0780
0780
3FFC
3FFC
7FF8
7FF8
0F00
0F00
1E00
1E00
1E00
1E00
1E00
1C00
3C00
3C00
3C00
3C00
3800
7800
7800
7800
7800
7800
F800
FF80
7F80
7F00
1F00
ENDCHAR
STARTCHAR u
ENCODING 117
SWIDTH 556 0
DWIDTH 28 0
BBX 25 27 3 -1
BITMAP
07800780
0F000F80
0F000F00
0F000F00
0F000F00
1F000F00
1E001E00
1E001E00
1E001E00
3E001E00
3C003E00
3C003C00
3C003C00
3C003C00
78007C00
78007800
78007800
7800F800
F800F800
F001F800
F003F000
F807F000
FC1EF000
7FFCF000
7FF9E000
3FE1E000
0F800000
ENDCHAR
STARTCHAR v
ENCODING 118
SWIDTH 500 0
DWIDTH 25 0
BBX 23 26 4 0
BITMAP
F0001E
F0003E
F0003C
78007C
780078
7800F0
7801F0
7801E0
7C03E0
3C03C0
3C07C0
3C0780
3C0F80
3C0F00
3E1F00
1E1E00
1E3E00
1E3C00
1E7C00
1E7800
0EF800
0EF000
0FF000
0FE000
0FC000
0FC000
ENDCHAR
STARTCHAR w
ENCODING 119
SWIDTH 722 0
DWIDTH 36 0
BBX 34 26 4 0
BITMAP
F001F003C0
F003F003C0
F003F00780
F003F00780
7807F00780
7807700F00
780F700F00
780E781E00
780E781E00
781E781C00
781C783C00
781C783800
7838787800
3C38787800
3C78787000
3C7078F000
3C7078E000
3CE039E000
3CE039C000
3CE039C000
3DC03B8000
3FC03F8000
1F803F8000
1F803F0000
1F803F0000
1F003E0000
ENDCHAR
STARTCHAR x
ENCODING 120
SWIDTH 500 0
DWIDTH 24 0
BBX 25 26 -1 0
BITMAP
07800780
03C00F00
03C01E00
01E03C00
01E07800
00F07800
00F0F000
0079E000
007BC000
003F8000
003F8000
001F0000
001E0000
003F0000
007F0000
00F78000
00F78000
01E3C000
03C3C000
0781E000
0F01E000
0F00F000
1E00F000
3C007800
78007800
F0003C00
ENDCHAR
STARTCHAR y
ENCODING 121
SWIDTH 500 0
DWIDTH 25 0
BBX 27 36 0 -10
BITMAP
078001E0
078003E0
078003C0
03C007C0
03C00780
03C00F00
03C01F00
03C01E00
03C03E00
03C03C00
01E07C00
01E07800
01E0F800
01E0F000
01E1F000
01E1E000
01E3C000
00E7C000
00F78000
00FF8000
00FF0000
00FF0000
00FE0000
00FE0000
007C0000
007C0000
00780000
00F00000
01F00000
01E00000
03E00000
07C00000
FF800000
FF800000
FE000000
FC000000
ENDCHAR
STARTCHAR z
ENCODING 122
SWIDTH 500 0
DWIDTH 23 0
BBX 23 26 1 0
BITMAP
0FFFFE
0FFFFE
1FFFFC
1FFFFC
0000F8
0001F0
0003E0
0003C0
0007C0
000F80
001F00
003E00
007C00
00F800
01F000
03E000
03E000
07C000
0F8000
1F0000
3E0000
7C0000
7FFFF0
FFFFF0
FFFFE0
FFFFE0
ENDCHAR
STARTCHAR braceleft
ENCODING 123
SWIDTH 333 0
DWIDTH 17 0
BBX 21 46 2 -10
BITMAP
0001F8
0007F8
000FF0
001FF0
001F00
003E00
003C00
003C00
007800
007800
007800
007800
00F000
00F000
00F000
00E000
01E000
01E000
03C000
078000
0F0000
7E0000
780000
F80000
FC0000
3E0000
1F0000
0F0000
0F0000
0F0000
0F0000
0F0000
1E0000
1E0000
1E0000
3E0000
3C0000
3C0000
7C0000
780000
780000
7C0000
7F8000
7F8000
3F0000
1F0000
ENDCHAR
STARTCHAR bar
ENCODING 124
SWIDTH 259 0
DWIDTH 13 0
BBX 4 46 4 -10
BITMAP
F0
F0
F0
F0
F0
F0
F0
F0
F0
F0
F0
F0
F0
F0
F0
F0
F0
F0
F0
F0
F0
F0
F0
F0
F0
F0
F0
F0
F0
F0
F0
F0
F0
F0
F0
F0
F0
F0
F0
F0
F0
F0
F0
F0
F0
F0
ENDCHAR
STARTCHAR braceright
ENCODING 125
SWIDTH 333 0
DWIDTH 17 0
BBX 20 46 -4 -10
BITMAP
000F80
000FC0
001FE0
001FE0
0003E0
0001E0
0001E0
0001E0
0001E0
0003E0
0003C0
0003C0
0003C0
0007C0
000780
000780
000780
000780
000780
000780
0003C0
0003F0
0001F0
0001E0
0007E0
000F80
001F00
001E00
003E00
003C00
003C00
007C00
007800
007800
007800
00F800
00F000
00F000
00F000
01E000
01E000
03E000
7FC000
7F8000
FF0000
FC0000
ENDCHAR
STARTCHAR asciitilde
ENCODING 126
SWIDTH 583 0
DWIDTH 29 0
BBX 25 8 4 14
BITMAP
0FC00000
3FF00080
FFFC0380
FFFF0780
F07FFF80
C01FFF80
8007FE00
0001F800
ENDCHAR
STARTCHAR space.dup1
ENCODING 160
SWIDTH 277 0
DWIDTH 14 0
BBX 1 1 0 0
BITMAP
00
ENDCHAR
STARTCHAR exclamdown
ENCODING 161
SWIDTH 333 0
DWIDTH 17 0
BBX 11 36 3 -10
BITMAP
01E0
01E0
03C0
03C0
0000
0000
0000
0000
0380
0380
0780
0700
0700
0700
0700
0F00
0F00
0E00
0E00
1E00
1E00
1E00
1E00
1C00
3C00
3C00
3C00
3C00
7800
7800
7800
7800
7800
F800
F000
F000
ENDCHAR
STARTCHAR cent
ENCODING 162
SWIDTH 556 0
DWIDTH 28 0
BBX 25 46 4 -10
BITMAP
00000200
00000700
00000700
00000E00
00000E00
00001C00
00001C00
00003C00
00003800
000FF800
007FFC00
01FFFE00
03FFFF00
07F1FF00
0FC1DF00
1F03CF80
1E038780
3E078780
3C070000
7C070000
780E0000
780E0000
F81C0000
F01C0000
F0380000
F0380000
F0700000
F0701E00
F0F03C00
F8E03C00
79E07800
7DC1F800
7FC7F000
3FFFE000
1FFFC000
0FFF0000
0FFC0000
0E000000
0E000000
1C000000
1C000000
38000000
38000000
70000000
70000000
20000000
ENDCHAR
STARTCHAR sterling
ENCODING 163
SWIDTH 556 0
DWIDTH 28 0
BBX 28 37 2 -1
BITMAP
0003F800
000FFE00
003FFF00
007FFF80
00FE0FC0
01F803E0
01F003E0
03E001E0
03E001F0
03C000F0
03C000F0
03C00000
03C00000
03C00000
03E00000
01E00000
1FFFC000
3FFFC000
3FFFC000
3FFF8000
01E00000
01E00000
01E00000
01E00000
03C00000
03C00000
07800000
07800000
0F000000
1E000000
3FE00100
7FFC0300
FFFF0F00
FFFFFF80
F81FFF80
E003FF00
8000F800
ENDCHAR
STARTCHAR currency
ENCODING 164
SWIDTH 556 0
DWIDTH 28 0
BBX 25 25 3 4
BITMAP
10000400
38000E00
787F0F00
FDFFDF80
7FFFFF00
1FFFFE00
0FC1F800
1F007C00
1E003C00
3E003C00
3C001E00
3C001E00
3C001E00
3C001E00
3C001E00
1E003E00
1E003C00
1F007C00
0FC1F800
3FFFFC00
7FFFFF00
FDFFDF80
787F0F00
38000E00
10000400
ENDCHAR
STARTCHAR yen
ENCODING 165
SWIDTH 556 0
DWIDTH 28 0
BBX 30 36 2 0
BITMAP
0F00003C
07800078
078000F8
078001F0
03C001E0
03C003E0
03E007C0
01E00780
01E00F80
01F01F00
00F01E00
00F03E00
00F87C00
0078F800
0078F800
007DF000
003FE000
003FE000
3FFFFFC0
3FFFFFC0
3FFFFFC0
7FFFFFC0
003C0000
003C0000
003C0000
00780000
FFFFFF80
FFFFFF80
FFFFFF80
FFFFFF00
00F00000
00F00000
00F00000
00F00000
01E00000
01E00000
ENDCHAR
STARTCHAR brokenbar
ENCODING 166
SWIDTH 259 0
DWIDTH 13 0
BBX 4 46 4 -10
BITMAP
F0
F0
F0
F0
F0
F0
F0
F0
F0
F0
F0
F0
F0
F0
F0
F0
F0
F0
F0
F0
00
00
00
00
00
00
F0
F0
F0
F0
F0
F0
F0
F0
F0
F0
F0
F0
F0
F0
F0
F0
F0
F0
F0
F0
ENDCHAR
STARTCHAR section
ENCODING 167
SWIDTH 556 0
DWIDTH 28 0
BBX 26 46 2 -10
BITMAP
0007F000
003FFC00
007FFF00
00FFFF00
00FC1F80
01F00780
01E003C0
01E003C0
01E00000
01F00000
00F00000
00F80000
00FC0000
01FE0000
07FF8000
0F8FC000
1F07E000
1E03F000
3C01F800
3C00FC00
3C007E00
3C001F00
3C000F80
3E000780
1F000780
1F800780
0FC00780
07E00F00
03F81F00
01FC3E00
007E7C00
003FF800
001FE000
000FC000
0007E000
0003E000
0001F000
3000F000
F800F000
F800F000
7C01F000
7F07E000
3FFFE000
1FFFC000
0FFF0000
01FC0000
ENDCHAR
STARTCHAR dieresis
ENCODING 168
SWIDTH 333 0
DWIDTH 17 0
BBX 13 4 6 32
BITMAP
7878
7878
F0F0
F0F0
ENDCHAR
STARTCHAR copyright
ENCODING 169
SWIDTH 736 0
DWIDTH 37 0
BBX 37 38 2 -1
BITMAP
0003FC0000
001FFFC000
007FFFF000
00FE03F800
03F0007E00
07C0001F00
0780000F00
0F00000780
1E00FC03C0
3C07FF01E0
380FFF80E0
781F07C0E0
703C03C070
703C01E070
703800C070
E078000038
E070000038
E070000038
E070000038
E070000038
E070000038
E070000038
E070008038
703801E070
703801E070
703C03C070
781F0F80F0
380FFF80E0
3C07FE01E0
1E01FC03C0
0F00000780
0F80000F80
07C0001F00
03F0007E00
00FE03F800
007FFFF000
001FFFC000
0003FE0000
ENDCHAR
STARTCHAR ordfeminine
ENCODING 170
SWIDTH 370 0
DWIDTH 19 0
BBX 18 19 4 18
BITMAP
01FC00
07FF00
0FFF80
1F07C0
1E03C0
3C03C0
0003C0
0007C0
07FF80
3FFF80
7FEF80
7C0F00
F00F00
F01E00
F03E00
F87E00
7FFE00
7FDE00
1F1E00
ENDCHAR
STARTCHAR guillemotleft
ENCODING 171
SWIDTH 556 0
DWIDTH 28 0
BBX 21 22 4 2
BITMAP
007038
00E070
01C0E0
0381C0
0783C0
0F0780
1E0F00
1E1F00
3C1E00
783C00
F07800
F07800
783800
783C00
383C00
3C1C00
1C1E00
1C1E00
1E0E00
0E0E00
0E0F00
070700
ENDCHAR
STARTCHAR logicalnot
ENCODING 172
SWIDTH 583 0
DWIDTH 29 0
BBX 23 15 5 10
BITMAP
FFFFFE
FFFFFE
FFFFFE
FFFFFE
00001E
00001E
00001E
00001E
00001E
00001E
00001E
00001E
00001E
00001E
00001E
ENDCHAR
STARTCHAR hyphen.dup2
ENCODING 173
SWIDTH 333 0
DWIDTH 17 0
BBX 15 4 2 11
BITMAP
7FFE
7FFE
FFFC
FFFC
ENDCHAR
STARTCHAR registered
ENCODING 174
SWIDTH 736 0
DWIDTH 37 0
BBX 37 38 2 -1
BITMAP
0003FC0000
001FFFC000
007FFFF000
00FE03F800
03F0007E00
07C0001F00
0780000F00
0F00000780
1E000003C0
3C3FFC01E0
383FFF00E0
783FFF80E0
703807C070
703801C070
703801C070
E03801C038
E03801C038
E038078038
E03FFF0038
E03FFE0038
E03FF00038
E038780038
E0383C0038
70381E0070
70380F0070
70380F0070
78380780F0
38380380E0
3C3803C1E0
1E3801E3C0
0F00000780
0F80000F80
07C0001F00
03F0007E00
00FE03F800
007FFFF000
001FFFC000
0003FE0000
ENDCHAR
STARTCHAR overscore
ENCODING 175
SWIDTH 552 0
DWIDTH 28 0
BBX 29 4 5 38
BITMAP
FFFFFFF8
FFFFFFF8
FFFFFFF8
FFFFFFF8
ENDCHAR
STARTCHAR degree
ENCODING 176
SWIDTH 399 0
DWIDTH 20 0
BBX 13 13 6 23
BITMAP
0F80
3FE0
7FF0
78F0
F078
E038
E038
E038
F078
78F0
7FF0
3FE0
0F80
ENDCHAR
STARTCHAR plusminus
ENCODING 177
SWIDTH 548 0
DWIDTH 27 0
BBX 24 30 3 0
BITMAP
003C00
003C00
003C00
003C00
003C00
003C00
003C00
003C00
003C00
003C00
FFFFFF
FFFFFF
FFFFFF
FFFFFF
003C00
003C00
003C00
003C00
003C00
003C00
003C00
003C00
003C00
003C00
000000
000000
FFFFFF
FFFFFF
FFFFFF
FFFFFF
ENDCHAR
STARTCHAR twosuperior
ENCODING 178
SWIDTH 333 0
DWIDTH 17 0
BBX 16 19 4 17
BITMAP
03F8
07FC
0FFE
1E1F
3C0F
380F
000F
001F
003E
00FC
01F8
07F0
0FC0
1F80
3E00
3C00
7FFE
FFFE
FFFC
ENDCHAR
STARTCHAR threesuperior
ENCODING 179
SWIDTH 333 0
DWIDTH 15 0
BBX 15 19 4 17
BITMAP
03F0
0FF8
0FFC
1E3E
3C1E
381E
001E
003C
01F8
03E0
03F0
0078
003C
E03C
F03C
787C
3FF8
1FF0
0FC0
ENDCHAR
STARTCHAR acute
ENCODING 180
SWIDTH 333 0
DWIDTH 17 0
BBX 10 8 8 28
BITMAP
0FC0
1F80
1F00
3E00
3C00
7800
7000
E000
ENDCHAR
STARTCHAR mu1
ENCODING 181
SWIDTH 576 0
DWIDTH 27 0
BBX 29 36 -2 -10
BITMAP
00F00078
01F000F8
01E000F0
01E000F0
01E000F0
01E000F0
03C001E0
03C001E0
03C001E0
03C001E0
07C003E0
078003C0
078003C0
078003C0
070003C0
0F000780
0F000780
0F000780
0F000F80
1F000F80
1F001F00
1F803F00
1FE0FF00
1FFFFF00
3CFFFE00
3C7F9E00
3C3E0000
3C000000
7C000000
78000000
78000000
78000000
78000000
F0000000
F0000000
F0000000
ENDCHAR
STARTCHAR paragraph
ENCODING 182
SWIDTH 537 0
DWIDTH 27 0
BBX 28 46 2 -10
BITMAP
00FFFFF0
07FFFFF0
1FFFFFF0
3FFC0380
3FFC0380
7FFC0380
7FFC0380
FFFC0380
FFFC0380
FFFC0380
FFFC0380
FFFC0380
FFFC0380
7FFC0380
7FFC0380
3FFC0380
3FFC0380
1FFC0380
07FC0380
01FC0380
001C0380
001C0380
001C0380
001C0380
001C0380
001C0380
001C0380
001C0380
001C0380
001C0380
001C0380
001C0380
001C0380
001C0380
001C0380
001C0380
001C0380
001C0380
001C0380
001C0380
001C0380
001C0380
001C0380
001C0380
001C0380
001C0380
ENDCHAR
STARTCHAR middot
ENCODING 183
SWIDTH 333 0
DWIDTH 17 0
BBX 5 4 8 15
BITMAP
78
78
F0
F0
ENDCHAR
STARTCHAR cedilla
ENCODING 184
SWIDTH 333 0
DWIDTH 17 0
BBX 12 10 2 -10
BITMAP
0700
0700
0FC0
01E0
00F0
00F0
01F0
FFF0
FFE0
FF00
ENDCHAR
STARTCHAR onesuperior
ENCODING 185
SWIDTH 333 0
DWIDTH 17 0
BBX 11 19 8 17
BITMAP
00E0
01E0
07E0
0FC0
3FC0
FFC0
F3C0
C780
0780
0780
0780
0F80
0F00
0F00
0F00
0F00
1E00
1E00
1E00
ENDCHAR
STARTCHAR ordmasculine
ENCODING 186
SWIDTH 365 0
DWIDTH 18 0
BBX 17 19 3 18
BITMAP
03F000
07FC00
1FFE00
3FFF00
3E1F00
7C0F80
780780
780780
F00780
F00780
F00780
F00F00
F00F00
F81F00
7C7E00
7FFC00
3FFC00
1FF800
07E000
ENDCHAR
STARTCHAR guillemotright
ENCODING 187
SWIDTH 556 0
DWIDTH 28 0
BBX 21 22 4 2
BITMAP
070380
0783C0
0381C0
0381C0
03C1E0
03C1E0
01C0E0
01E0F0
01E0F0
00E070
00F078
00F078
01E0F0
03C1E0
03C1E0
0783C0
0F0780
1E0F00
1C0E00
381C00
703800
E07000
ENDCHAR
STARTCHAR onequarter
ENCODING 188
SWIDTH 833 0
DWIDTH 42 0
BBX 37 37 5 -1
BITMAP
001C0000F8
003C0001F0
00FC0003E0
01F80007C0
07F8000FC0
1FF8001F80
1E78001F00
18F8003E00
00F0007C00
00F000F800
00F001F000
00F003E000
01E007C000
01E00FC000
01E01F8000
01E01F0000
03C03E0000
03C07C01E0
0000F803E0
0001F007E0
0003E00FE0
0007C00FC0
000FC01FC0
001F803BC0
001F007BC0
003E00F7C0
007C01E780
00F803C780
01F0038780
03E0070F80
07C007FFC0
0F800FFFC0
1F800FFF80
1F00000F00
3E00001E00
7C00001E00
F800000000
ENDCHAR
STARTCHAR onehalf
ENCODING 189
SWIDTH 833 0
DWIDTH 42 0
BBX 38 37 4 -1
BITMAP
001E00007C
003E0000F8
007E0001F0
01FE0003E0
07FC0007C0
0FFC000FC0
0F3C000F80
003C001F00
0078003E00
0078007C00
007800F800
007801F000
00F803E000
00F007C000
00F00F8000
00F01F0000
00F03E0000
01E07E0000
01E0FC1FC0
0000F87FF0
0001F0FFF8
0003E1E07C
0007C1C03C
000F83803C
001F00003C
003E00007C
007C0001F8
00F80003F0
01F0000FE0
03E0003F80
07E0007E00
07C000FC00
0F8001F000
1F0003E000
3E0007FFF8
7C0007FFF8
F8000FFFF0
ENDCHAR
STARTCHAR threequarters
ENCODING 190
SWIDTH 833 0
DWIDTH 42 0
BBX 38 37 5 -1
BITMAP
03F800007C
0FFC0000F8
1FFE0001F0
3C1F0003E0
000F0007E0
000F000FC0
003E000F80
01FC001F00
01F0003E00
03F8007C00
003C00F800
001E01F000
001E03E000
E01E07E000
F03E0FC000
787C0F8000
3FFC1F0000
1FF83E0000
07E07C0078
0000F800F8
0001F001F8
0003E003F8
0007E007F0
000FC007F0
000F800EF0
001F001CF0
003E0039E0
007C0071E0
00F800E1E0
01F001C1E0
03E003C3E0
07E007FFF0
0FC007FFF0
0F8007FFE0
1F000003C0
3E00000780
7C00000780
ENDCHAR
STARTCHAR questiondown
ENCODING 191
SWIDTH 610 0
DWIDTH 31 0
BBX 21 36 3 -10
BITMAP
000078
000078
0000F0
0000F0
000000
000000
000000
000000
000000
0001E0
0001E0
0003C0
0003C0
0007C0
000F80
001F00
007E00
00FC00
01F800
07E000
0FC000
1F8000
3E0000
7C0000
780000
F80060
F00078
F000F8
F000F0
F801F0
7803E0
7E07E0
3FFFC0
1FFF80
0FFF00
03F800
ENDCHAR
STARTCHAR Agrave
ENCODING 192
SWIDTH 666 0
DWIDTH 33 0
BBX 30 46 0 0
BITMAP
00001F00
00000F80
00000F80
00000780
000003C0
000003C0
000001C0
000001E0
00000000
00000000
00003F80
00003F80
00007F80
00007BC0
0000FBC0
0000F3C0
0001F3C0
0001E3C0
0003E3C0
0003C3E0
0007C1E0
000781E0
000F81E0
000F01E0
001F01E0
001E01E0
003E00F0
003C00F0
007C00F0
00F800F0
00F800F0
01F000F0
01FFFFF8
03FFFFF8
03FFFFF8
07FFFFF8
07800078
0F800078
0F000078
1F00003C
1E00003C
3E00003C
3C00003C
7C00003C
7800003C
F800003C
ENDCHAR
STARTCHAR Aacute
ENCODING 193
SWIDTH 666 0
DWIDTH 33 0
BBX 30 46 0 0
BITMAP
000000FC
000001F8
000001F0
000003E0
000003C0
00000780
00000700
00000E00
00000000
00000000
00003F80
00003F80
00007F80
00007BC0
0000FBC0
0000F3C0
0001F3C0
0001E3C0
0003E3C0
0003C3E0
0007C1E0
000781E0
000F81E0
000F01E0
001F01E0
001E01E0
003E00F0
003C00F0
007C00F0
00F800F0
00F800F0
01F000F0
01FFFFF8
03FFFFF8
03FFFFF8
07FFFFF8
07800078
0F800078
0F000078
1F00003C
1E00003C
3E00003C
3C00003C
7C00003C
7800003C
F800003C
ENDCHAR
STARTCHAR Acircumflex
ENCODING 194
SWIDTH 666 0
DWIDTH 33 0
BBX 30 45 0 0
BITMAP
000007C0
00000FC0
00001FE0
00003DE0
000078F0
0000F0F0
0001E078
00000000
00000000
00003F80
00003F80
00007F80
00007BC0
0000FBC0
0000F3C0
0001F3C0
0001E3C0
0003E3C0
0003C3E0
0007C1E0
000781E0
000F81E0
000F01E0
001F01E0
001E01E0
003E00F0
003C00F0
007C00F0
00F800F0
00F800F0
01F000F0
01FFFFF8
03FFFFF8
03FFFFF8
07FFFFF8
07800078
0F800078
0F000078
1F00003C
1E00003C
3E00003C
3C00003C
7C00003C
7800003C
F800003C
ENDCHAR
STARTCHAR Atilde
ENCODING 195
SWIDTH 666 0
DWIDTH 33 0
BBX 32 45 0 0
BITMAP
00003C07
00007F07
0000FF8F
0000FFFE
0000E7FE
0001C1FC
0001C078
00000000
00000000
00003F80
00003F80
00007F80
00007BC0
0000FBC0
0000F3C0
0001F3C0
0001E3C0
0003E3C0
0003C3E0
0007C1E0
000781E0
000F81E0
000F01E0
001F01E0
001E01E0
003E00F0
003C00F0
007C00F0
00F800F0
00F800F0
01F000F0
01FFFFF8
03FFFFF8
03FFFFF8
07FFFFF8
07800078
0F800078
0F000078
1F00003C
1E00003C
3E00003C
3C00003C
7C00003C
7800003C
F800003C
ENDCHAR
STARTCHAR Adieresis
ENCODING 196
SWIDTH 666 0
DWIDTH 33 0
BBX 30 42 0 0
BITMAP
00003C3C
00003C3C
00007878
00007878
00000000
00000000
00003F80
00003F80
00007F80
00007BC0
0000FBC0
0000F3C0
0001F3C0
0001E3C0
0003E3C0
0003C3E0
0007C1E0
000781E0
000F81E0
000F01E0
001F01E0
001E01E0
003E00F0
003C00F0
007C00F0
00F800F0
00F800F0
01F000F0
01FFFFF8
03FFFFF8
03FFFFF8
07FFFFF8
07800078
0F800078
0F000078
1F00003C
1E00003C
3E00003C
3C00003C
7C00003C
7800003C
F800003C
ENDCHAR
STARTCHAR Aring
ENCODING 197
SWIDTH 666 0
DWIDTH 33 0
BBX 30 43 0 0
BITMAP
00000F80
00001FC0
000038E0
00003060
00003060
00003060
000038E0
00003FC0
00003F80
00007F80
00007BC0
0000FBC0
0000F3C0
0001F3C0
0001E3C0
0003E3C0
0003C3E0
0007C1E0
000781E0
000F81E0
000F01E0
001F01E0
001E01E0
003E00F0
003C00F0
007C00F0
00F800F0
00F800F0
01F000F0
01FFFFF8
03FFFFF8
03FFFFF8
07FFFFF8
07800078
0F800078
0F000078
1F00003C
1E00003C
3E00003C
3C00003C
7C00003C
7800003C
F800003C
ENDCHAR
STARTCHAR AE
ENCODING 198
SWIDTH 1000 0
DWIDTH 50 0
BBX 54 36 -2 0
BITMAP
000003FFFFFFFC
000007FFFFFFFC
00000FFFFFFFF8
00000FFFFFFFF8
00001F07800000
00001E07800000
00003E07800000
00007C0F000000
0000780F000000
0000F80F000000
0000F00F000000
0001E01F000000
0003E01E000000
0003C01E000000
0007C01E000000
0007801FFFFFE0
000F003FFFFFE0
001F003FFFFFC0
001E003FFFFFC0
003E003C000000
007C007C000000
00780078000000
00FFFFF8000000
00FFFFF8000000
01FFFFF8000000
03FFFFF0000000
03C000F0000000
07C000F0000000
078000F0000000
0F0001F0000000
1F0001E0000000
1E0001E0000000
3E0001FFFFFF80
3C0001FFFFFF80
780003FFFFFF00
F80003FFFFFF00
ENDCHAR
STARTCHAR Ccedilla
ENCODING 199
SWIDTH 722 0
DWIDTH 36 0
BBX 31 47 5 -10
BITMAP
0003FC00
001FFF80
007FFFC0
00FFFFF0
01FE07F0
03F001F8
07E000FC
0FC0007C
0F80003C
1F00003E
3E00001E
3E000018
3C000000
7C000000
78000000
78000000
78000000
F0000000
F0000000
F0000000
F0000000
F0000000
F0000000
F0000000
F0000060
F00000F8
F00000F0
780000F0
780001F0
7C0003E0
7C0003C0
3E000FC0
1F001F80
1FE07F00
0FFFFE00
07FFFC00
01FFF000
007F8000
00380000
007E0000
000F0000
00078000
00078000
000F8000
07FF8000
07FF0000
07F80000
ENDCHAR
STARTCHAR Egrave
ENCODING 200
SWIDTH 666 0
DWIDTH 33 0
BBX 33 46 2 0
BITMAP
00003E0000
00001F0000
00001F0000
00000F0000
0000078000
0000078000
0000038000
000003C000
0000000000
0000000000
01FFFFFF80
01FFFFFF80
03FFFFFF80
03FFFFFF00
03C0000000
03C0000000
03C0000000
03C0000000
0780000000
0780000000
0780000000
0780000000
0780000000
0F00000000
0F00000000
0FFFFFFC00
0FFFFFFC00
0FFFFFF800
1FFFFFF800
1E00000000
1E00000000
1E00000000
1E00000000
3E00000000
3C00000000
3C00000000
3C00000000
3C00000000
7C00000000
7800000000
7800000000
7800000000
7FFFFFF000
FFFFFFF000
FFFFFFF000
FFFFFFE000
ENDCHAR
STARTCHAR Eacute
ENCODING 201
SWIDTH 666 0
DWIDTH 33 0
BBX 33 46 2 0
BITMAP
000003F000
000007E000
000007C000
00000F8000
00000F0000
00001E0000
00001C0000
0000380000
0000000000
0000000000
01FFFFFF80
01FFFFFF80
03FFFFFF80
03FFFFFF00
03C0000000
03C0000000
03C0000000
03C0000000
0780000000
0780000000
0780000000
0780000000
0780000000
0F00000000
0F00000000
0FFFFFFC00
0FFFFFFC00
0FFFFFF800
1FFFFFF800
1E00000000
1E00000000
1E00000000
1E00000000
3E00000000
3C00000000
3C00000000
3C00000000
3C00000000
7C00000000
7800000000
7800000000
7800000000
7FFFFFF000
FFFFFFF000
FFFFFFF000
FFFFFFE000
ENDCHAR
STARTCHAR Ecircumflex
ENCODING 202
SWIDTH 666 0
DWIDTH 33 0
BBX 33 45 2 0
BITMAP
00000F8000
00001F8000
00003FC000
00007BC000
0000F1E000
0001E1E000
0003C0F000
0000000000
0000000000
01FFFFFF80
01FFFFFF80
03FFFFFF80
03FFFFFF00
03C0000000
03C0000000
03C0000000
03C0000000
0780000000
0780000000
0780000000
0780000000
0780000000
0F00000000
0F00000000
0FFFFFFC00
0FFFFFFC00
0FFFFFF800
1FFFFFF800
1E00000000
1E00000000
1E00000000
1E00000000
3E00000000
3C00000000
3C00000000
3C00000000
3C00000000
7C00000000
7800000000
7800000000
7800000000
7FFFFFF000
FFFFFFF000
FFFFFFF000
FFFFFFE000
ENDCHAR
STARTCHAR Edieresis
ENCODING 203
SWIDTH 666 0
DWIDTH 33 0
BBX 33 42 2 0
BITMAP
0001E1E000
0001E1E000
0003C3C000
0003C3C000
0000000000
0000000000
01FFFFFF80
01FFFFFF80
03FFFFFF80
03FFFFFF00
03C0000000
03C0000000
03C0000000
03C0000000
0780000000
0780000000
0780000000
0780000000
0780000000
0F00000000
0F00000000
0FFFFFFC00
0FFFFFFC00
0FFFFFF800
1FFFFFF800
1E00000000
1E00000000
1E00000000
1E00000000
3E00000000
3C00000000
3C00000000
3C00000000
3C00000000
7C00000000
7800000000
7800000000
7800000000
7FFFFFF000
FFFFFFF000
FFFFFFF000
FFFFFFE000
ENDCHAR
STARTCHAR Igrave
ENCODING 204
SWIDTH 277 0
DWIDTH 14 0
BBX 13 46 3 0
BITMAP
07C0
03E0
03E0
01E0
00F0
00F0
0070
0078
0000
0000
01E0
01E0
03E0
03C0
03C0
03C0
03C0
03C0
0780
0780
0780
0780
0780
0F00
0F00
0F00
0F00
0F00
1E00
1E00
1E00
1E00
1E00
3C00
3C00
3C00
3C00
3C00
7C00
7800
7800
7800
7800
F800
F000
F000
ENDCHAR
STARTCHAR Iacute
ENCODING 205
SWIDTH 277 0
DWIDTH 14 0
BBX 16 46 3 0
BITMAP
003F
007E
007C
00F8
00F0
01E0
01C0
0380
0000
0000
01E0
01E0
03E0
03C0
03C0
03C0
03C0
03C0
0780
0780
0780
0780
0780
0F00
0F00
0F00
0F00
0F00
1E00
1E00
1E00
1E00
1E00
3C00
3C00
3C00
3C00
3C00
7C00
7800
7800
7800
7800
F800
F000
F000
ENDCHAR
STARTCHAR Icircumflex
ENCODING 206
SWIDTH 277 0
DWIDTH 14 0
BBX 17 45 3 0
BITMAP
007C00
00FC00
01FE00
03DE00
078F00
0F0F00
1E0780
000000
000000
01E000
01E000
03E000
03C000
03C000
03C000
03C000
03C000
078000
078000
078000
078000
078000
0F0000
0F0000
0F0000
0F0000
0F0000
1E0000
1E0000
1E0000
1E0000
1E0000
3C0000
3C0000
3C0000
3C0000
3C0000
7C0000
780000
780000
780000
780000
F80000
F00000
F00000
ENDCHAR
STARTCHAR Idieresis
ENCODING 207
SWIDTH 277 0
DWIDTH 14 0
BBX 17 42 3 0
BITMAP
078780
078780
0F0F00
0F0F00
000000
000000
01E000
01E000
03E000
03C000
03C000
03C000
03C000
03C000
078000
078000
078000
078000
078000
0F0000
0F0000
0F0000
0F0000
0F0000
1E0000
1E0000
1E0000
1E0000
1E0000
3C0000
3C0000
3C0000
3C0000
3C0000
7C0000
780000
780000
780000
780000
F80000
F00000
F00000
ENDCHAR
STARTCHAR Eth
ENCODING 208
SWIDTH 722 0
DWIDTH 36 0
BBX 33 36 3 0
BITMAP
01FFFF0000
01FFFFE000
01FFFFF000
03FFFFF800
03C001FC00
03C0007E00
03C0003E00
03C0001F00
0780000F00
0780000F00
0780000780
0780000780
0780000780
0F00000780
0F00000780
7FFFE00780
7FFFE00780
FFFFC00780
FFFFC00780
1E00000F00
1E00000F00
1E00000F00
1E00001F00
3E00001E00
3C00003E00
3C00003C00
3C00007C00
3C0000F800
7C0001F000
780003F000
78000FE000
7800FFC000
7FFFFF0000
FFFFFE0000
FFFFF00000
FFFF800000
ENDCHAR
STARTCHAR Ntilde
ENCODING 209
SWIDTH 722 0
DWIDTH 36 0
BBX 35 45 2 0
BITMAP
0000780E00
0000FE0E00
0001FF1E00
0001FFFC00
0001CFFC00
000383F800
000380F000
0000000000
0000000000
01F80001E0
01F80001E0
03F80003E0
03FC0003C0
03FC0003C0
03FE0003C0
03DE0003C0
03DE0007C0
079F000780
078F000780
078F800780
0787800780
0787800F00
0F07C00F00
0F03C00F00
0F03E00F00
0F03E01F00
0F01E01E00
1E01F01E00
1E01F01E00
1E00F01E00
1E00F83E00
1E00783C00
3C007C3C00
3C007C3C00
3C003C3C00
3C003E7800
3C003E7800
7C001E7800
78001E7800
78000FF800
78000FF000
78000FF000
F80007F000
F00007F000
F00007F000
ENDCHAR
STARTCHAR Ograve
ENCODING 210
SWIDTH 777 0
DWIDTH 39 0
BBX 33 47 5 -1
BITMAP
0000F80000
00007C0000
00007C0000
00003C0000
00001E0000
00001E0000
00000E0000
00000F0000
0000000000
0003FC0000
001FFF8000
003FFFE000
00FFFFF000
01FE03F800
03F800FC00
07E0007C00
0FC0003E00
0F80001E00
1F00001F00
3E00000F00
3E00000F00
3C00000780
7C00000780
7800000780
7800000780
F800000780
F000000780
F000000780
F000000780
F000000F80
F000000F80
F000000F00
F000000F00
F000001F00
F000001E00
7800003E00
7800003C00
7800007C00
3C0000F800
3E0001F800
1F0003F000
1F800FE000
0FF03FC000
07FFFF8000
03FFFE0000
00FFF80000
001FE00000
ENDCHAR
STARTCHAR Oacute
ENCODING 211
SWIDTH 777 0
DWIDTH 39 0
BBX 33 47 5 -1
BITMAP
000007E000
00000FC000
00000F8000
00001F0000
00001E0000
00003C0000
0000380000
0000700000
0000000000
0003FC0000
001FFF8000
003FFFE000
00FFFFF000
01FE03F800
03F800FC00
07E0007C00
0FC0003E00
0F80001E00
1F00001F00
3E00000F00
3E00000F00
3C00000780
7C00000780
7800000780
7800000780
F800000780
F000000780
F000000780
F000000780
F000000F80
F000000F80
F000000F00
F000000F00
F000001F00
F000001E00
7800003E00
7800003C00
7800007C00
3C0000F800
3E0001F800
1F0003F000
1F800FE000
0FF03FC000
07FFFF8000
03FFFE0000
00FFF80000
001FE00000
ENDCHAR
STARTCHAR Ocircumflex
ENCODING 212
SWIDTH 777 0
DWIDTH 39 0
BBX 33 46 5 -1
BITMAP
00003E0000
00007E0000
0000FF0000
0001EF0000
0003C78000
0007878000
000F03C000
0000000000
0003FC0000
001FFF8000
003FFFE000
00FFFFF000
01FE03F800
03F800FC00
07E0007C00
0FC0003E00
0F80001E00
1F00001F00
3E00000F00
3E00000F00
3C00000780
7C00000780
7800000780
7800000780
F800000780
F000000780
F000000780
F000000780
F000000F80
F000000F80
F000000F00
F000000F00
F000001F00
F000001E00
7800003E00
7800003C00
7800007C00
3C0000F800
3E0001F800
1F0003F000
1F800FE000
0FF03FC000
07FFFF8000
03FFFE0000
00FFF80000
001FE00000
ENDCHAR
STARTCHAR Otilde
ENCODING 213
SWIDTH 777 0
DWIDTH 39 0
BBX 33 46 5 -1
BITMAP
0003C07000
0007F07000
000FF8F000
000FFFE000
000E7FE000
001C1FC000
001C078000
0000000000
0003FC0000
001FFF8000
003FFFE000
00FFFFF000
01FE03F800
03F800FC00
07E0007C00
0FC0003E00
0F80001E00
1F00001F00
3E00000F00
3E00000F00
3C00000780
7C00000780
7800000780
7800000780
F800000780
F000000780
F000000780
F000000780
F000000F80
F000000F80
F000000F00
F000000F00
F000001F00
F000001E00
7800003E00
7800003C00
7800007C00
3C0000F800
3E0001F800
1F0003F000
1F800FE000
0FF03FC000
07FFFF8000
03FFFE0000
00FFF80000
001FE00000
ENDCHAR
STARTCHAR Odieresis
ENCODING 214
SWIDTH 777 0
DWIDTH 39 0
BBX 33 43 5 -1
BITMAP
0003C3C000
0003C3C000
0007878000
0007878000
0000000000
0003FC0000
001FFF8000
003FFFE000
00FFFFF000
01FE03F800
03F800FC00
07E0007C00
0FC0003E00
0F80001E00
1F00001F00
3E00000F00
3E00000F00
3C00000780
7C00000780
7800000780
7800000780
F800000780
F000000780
F000000780
F000000780
F000000F80
F000000F80
F000000F00
F000000F00
F000001F00
F000001E00
7800003E00
7800003C00
7800007C00
3C0000F800
3E0001F800
1F0003F000
1F800FE000
0FF03FC000
07FFFF8000
03FFFE0000
00FFF80000
001FE00000
ENDCHAR
STARTCHAR multiply
ENCODING 215
SWIDTH 583 0
DWIDTH 29 0
BBX 21 21 6 7
BITMAP
200020
700070
F800F8
7C01F0
3E03E0
1F07C0
0F8F80
07DF00
03FE00
01FC00
00F800
01FC00
03FE00
07DF00
0F8F80
1F07C0
3E03E0
7C01F0
F800F8
700070
200020
ENDCHAR
STARTCHAR Oslash
ENCODING 216
SWIDTH 777 0
DWIDTH 39 0
BBX 34 42 4 -3
BITMAP
0000000100
00000003C0
0001FF03C0
000FFFE7C0
003FFFFF80
007FFFFF00
00FF03FE00
01F8007E00
03F0007F00
07C000FF00
0F8001FF80
0F8003EF80
1F0007C780
1E000787C0
3E000F83C0
3C001F03C0
3C003E03C0
3C007C03C0
7C007803C0
7800F803C0
7801F003C0
7803E003C0
7807C007C0
78078007C0
780F800780
781F000780
783E000F80
7C7C000F00
3C78001F00
3CF8001E00
3FF0003E00
3FE0007C00
1FC000FC00
1F8001F800
0FC007F000
1FF81FE000
3FFFFFC000
7DFFFF0000
787FFC0000
F81FE00000
7000000000
2000000000
ENDCHAR
STARTCHAR Ugrave
ENCODING 217
SWIDTH 722 0
DWIDTH 36 0
BBX 32 47 5 -1
BITMAP
0001F000
0000F800
0000F800
00007800
00003C00
00003C00
00001C00
00001E00
00000000
00000000
0780000F
0780000F
0780000F
0F00001E
0F00001E
0F00001E
0F00001E
1F00001E
1E00003C
1E00003C
1E00003C
1E00003C
3E00007C
3C000078
3C000078
3C000078
3C000078
7C0000F8
780000F0
780000F0
780000F0
780000F0
F80001F0
F00001E0
F00001E0
F00003E0
F00003C0
F00003C0
F00007C0
F8000F80
7C001F80
7E003F00
3F80FE00
1FFFFC00
0FFFF800
03FFE000
00FF8000
ENDCHAR
STARTCHAR Uacute
ENCODING 218
SWIDTH 722 0
DWIDTH 36 0
BBX 32 47 5 -1
BITMAP
00001F80
00003F00
00003E00
00007C00
00007800
0000F000
0000E000
0001C000
00000000
00000000
0780000F
0780000F
0780000F
0F00001E
0F00001E
0F00001E
0F00001E
1F00001E
1E00003C
1E00003C
1E00003C
1E00003C
3E00007C
3C000078
3C000078
3C000078
3C000078
7C0000F8
780000F0
780000F0
780000F0
780000F0
F80001F0
F00001E0
F00001E0
F00003E0
F00003C0
F00003C0
F00007C0
F8000F80
7C001F80
7E003F00
3F80FE00
1FFFFC00
0FFFF800
03FFE000
00FF8000
ENDCHAR
STARTCHAR Ucircumflex
ENCODING 219
SWIDTH 722 0
DWIDTH 36 0
BBX 32 46 5 -1
BITMAP
00003E00
00007E00
0000FF00
0001EF00
0003C780
00078780
000F03C0
00000000
00000000
0780000F
0780000F
0780000F
0F00001E
0F00001E
0F00001E
0F00001E
1F00001E
1E00003C
1E00003C
1E00003C
1E00003C
3E00007C
3C000078
3C000078
3C000078
3C000078
7C0000F8
780000F0
780000F0
780000F0
780000F0
F80001F0
F00001E0
F00001E0
F00003E0
F00003C0
F00003C0
F00007C0
F8000F80
7C001F80
7E003F00
3F80FE00
1FFFFC00
0FFFF800
03FFE000
00FF8000
ENDCHAR
STARTCHAR Udieresis
ENCODING 220
SWIDTH 722 0
DWIDTH 36 0
BBX 32 43 5 -1
BITMAP
0003C3C0
0003C3C0
00078780
00078780
00000000
00000000
0780000F
0780000F
0780000F
0F00001E
0F00001E
0F00001E
0F00001E
1F00001E
1E00003C
1E00003C
1E00003C
1E00003C
3E00007C
3C000078
3C000078
3C000078
3C000078
7C0000F8
780000F0
780000F0
780000F0
780000F0
F80001F0
F00001E0
F00001E0
F00003E0
F00003C0
F00003C0
F00007C0
F8000F80
7C001F80
7E003F00
3F80FE00
1FFFFC00
0FFFF800
03FFE000
00FF8000
ENDCHAR
STARTCHAR Yacute
ENCODING 221
SWIDTH 666 0
DWIDTH 33 0
BBX 30 46 7 0
BITMAP
00007E00
0000FC00
0000F800
0001F000
0001E000
0003C000
00038000
00070000
00000000
00000000
F000007C
F8000078
780000F0
7C0001F0
3C0003E0
3C0003C0
1E0007C0
1E000F80
1F000F00
0F001F00
0F803E00
07807C00
07C07800
03C0F800
03E1F000
01E1E000
01F3E000
00F7C000
00FF8000
007F0000
007F0000
003E0000
003C0000
003C0000
003C0000
00780000
00780000
00780000
00780000
00F80000
00F00000
00F00000
00F00000
00F00000
01E00000
01E00000
ENDCHAR
STARTCHAR Thorn
ENCODING 222
SWIDTH 666 0
DWIDTH 33 0
BBX 31 36 2 0
BITMAP
00F00000
00F00000
01E00000
01E00000
01E00000
01E00000
01E00000
03FFFF80
03FFFFE0
03FFFFF8
03FFFFF8
078000FC
0780003C
0780003E
0780001E
0780001E
0F00001E
0F00001E
0F00001E
0F00003E
1F00003C
1E00007C
1E0000F8
1E0001F8
1E000FF0
3FFFFFE0
3FFFFFC0
3FFFFF00
3FFFF000
7C000000
78000000
78000000
78000000
78000000
F0000000
F0000000
ENDCHAR
STARTCHAR germandbls
ENCODING 223
SWIDTH 610 0
DWIDTH 31 0
BBX 25 37 2 -1
BITMAP
0007F000
001FF800
007FFE00
00FFFE00
01FC1F00
01F00F00
03E00F00
03C00F00
03C01F00
07801E00
07803E00
07807C00
07807800
0F80F000
0F01F000
0F01E000
0F03C000
0F03C000
1F03C000
1E03E000
1E01F000
1E01F800
1E00FC00
3E007E00
3C003F00
3C001F00
3C000F80
3C000780
7C000780
78200780
78700F80
78F81F00
787C3F00
F83FFE00
F03FFC00
F00FF800
0007E000
ENDCHAR
STARTCHAR agrave
ENCODING 224
SWIDTH 556 0
DWIDTH 28 0
BBX 24 38 2 -1
BITMAP
000F80
0007C0
0007C0
0003C0
0001E0
0001E0
0000E0
0000F0
000000
000000
001FC0
00FFF8
01FFFC
03FFFE
07E07F
0F801F
0F000F
1E000F
00000F
00000F
00001F
001FFF
07FFFE
1FFFFE
3FFFDE
7F801E
7C001E
F8003E
F0003C
F0003C
F0007C
F000FC
F801FC
7E07FC
7FFFBC
3FFF3C
1FFC3C
07F000
ENDCHAR
STARTCHAR aacute
ENCODING 225
SWIDTH 556 0
DWIDTH 28 0
BBX 24 38 2 -1
BITMAP
00007E
0000FC
0000F8
0001F0
0001E0
0003C0
000380
000700
000000
000000
001FC0
00FFF8
01FFFC
03FFFE
07E07F
0F801F
0F000F
1E000F
00000F
00000F
00001F
001FFF
07FFFE
1FFFFE
3FFFDE
7F801E
7C001E
F8003E
F0003C
F0003C
F0007C
F000FC
F801FC
7E07FC
7FFFBC
3FFF3C
1FFC3C
07F000
ENDCHAR
STARTCHAR acircumflex
ENCODING 226
SWIDTH 556 0
DWIDTH 28 0
BBX 24 37 2 -1
BITMAP
0001F0
0003F0
0007F8
000F78
001E3C
003C3C
00781E
000000
000000
001FC0
00FFF8
01FFFC
03FFFE
07E07F
0F801F
0F000F
1E000F
00000F
00000F
00001F
001FFF
07FFFE
1FFFFE
3FFFDE
7F801E
7C001E
F8003E
F0003C
F0003C
F0007C
F000FC
F801FC
7E07FC
7FFFBC
3FFF3C
1FFC3C
07F000
ENDCHAR
STARTCHAR atilde
ENCODING 227
SWIDTH 556 0
DWIDTH 28 0
BBX 26 37 2 -1
BITMAP
000F01C0
001FC1C0
003FE3C0
003FFF80
0039FF80
00707F00
00701E00
00000000
00000000
001FC000
00FFF800
01FFFC00
03FFFE00
07E07F00
0F801F00
0F000F00
1E000F00
00000F00
00000F00
00001F00
001FFF00
07FFFE00
1FFFFE00
3FFFDE00
7F801E00
7C001E00
F8003E00
F0003C00
F0003C00
F0007C00
F000FC00
F801FC00
7E07FC00
7FFFBC00
3FFF3C00
1FFC3C00
07F00000
ENDCHAR
STARTCHAR adieresis
ENCODING 228
SWIDTH 556 0
DWIDTH 28 0
BBX 24 34 2 -1
BITMAP
001E1E
001E1E
003C3C
003C3C
000000
000000
001FC0
00FFF8
01FFFC
03FFFE
07E07F
0F801F
0F000F
1E000F
00000F
00000F
00001F
001FFF
07FFFE
1FFFFE
3FFFDE
7F801E
7C001E
F8003E
F0003C
F0003C
F0007C
F000FC
F801FC
7E07FC
7FFFBC
3FFF3C
1FFC3C
07F000
ENDCHAR
STARTCHAR aring
ENCODING 229
SWIDTH 556 0
DWIDTH 28 0
BBX 24 39 2 -1
BITMAP
0007C0
000FE0
001C70
001830
001830
001830
001C70
000FE0
0007C0
000000
000000
001FC0
00FFF8
01FFFC
03FFFE
07E07F
0F801F
0F000F
1E000F
00000F
00000F
00001F
001FFF
07FFFE
1FFFFE
3FFFDE
7F801E
7C001E
F8003E
F0003C
F0003C
F0007C
F000FC
F801FC
7E07FC
7FFFBC
3FFF3C
1FFC3C
07F000
ENDCHAR
STARTCHAR ae
ENCODING 230
SWIDTH 889 0
DWIDTH 44 0
BBX 40 28 2 -1
BITMAP
003FC00FC0
00FFF83FF0
03FFFC7FF8
07FFFEFFFC
0FC07FF07C
1F003FE03E
1E001F801E
3C001F800F
00001F000F
00001F000F
00003E000F
000FFFFFFF
07FFFFFFFF
1FFFFFFFFF
3FFFBFFFFF
7FC03E0000
7C007E0000
F8007E0000
F000FE001E
F000FE003C
F001FF003C
F003FF0078
F807DF80F8
7C0F9FC3F0
7FFF0FFFE0
3FFE07FFC0
1FFC03FF80
07E000FC00
ENDCHAR
STARTCHAR ccedilla
ENCODING 231
SWIDTH 500 0
DWIDTH 25 0
BBX 24 37 2 -10
BITMAP
001FC0
00FFF0
03FFF8
07FFFC
0FE07E
1F801E
1F001F
3E000F
3C000F
7C0000
780000
780000
780000
F00000
F00000
F00000
F00000
F00000
F0003C
F00078
F00078
7800F0
7C03F0
7E07E0
3FFFC0
1FFF80
0FFF00
03F800
00E000
01F800
003C00
001E00
001E00
003E00
1FFE00
1FFC00
1FE000
ENDCHAR
STARTCHAR egrave
ENCODING 232
SWIDTH 556 0
DWIDTH 28 0
BBX 25 38 2 -1
BITMAP
000F8000
0007C000
0007C000
0003C000
0001E000
0001E000
0000E000
0000F000
00000000
00000000
001FC000
00FFF000
01FFFC00
07FFFE00
0FE07E00
0F801F00
1F000F00
3E000780
3C000780
78000780
78000780
7FFFFF80
FFFFFF80
FFFFFF80
FFFFFF80
F0000000
F0000000
F0000000
F0000000
F0001E00
F8003E00
78007C00
7C00FC00
3F07F800
1FFFF000
0FFFE000
07FF8000
01FC0000
ENDCHAR
STARTCHAR eacute
ENCODING 233
SWIDTH 556 0
DWIDTH 28 0
BBX 25 38 2 -1
BITMAP
00007E00
0000FC00
0000F800
0001F000
0001E000
0003C000
00038000
00070000
00000000
00000000
001FC000
00FFF000
01FFFC00
07FFFE00
0FE07E00
0F801F00
1F000F00
3E000780
3C000780
78000780
78000780
7FFFFF80
FFFFFF80
FFFFFF80
FFFFFF80
F0000000
F0000000
F0000000
F0000000
F0001E00
F8003E00
78007C00
7C00FC00
3F07F800
1FFFF000
0FFFE000
07FF8000
01FC0000
ENDCHAR
STARTCHAR ecircumflex
ENCODING 234
SWIDTH 556 0
DWIDTH 28 0
BBX 25 37 2 -1
BITMAP
0001F000
0003F000
0007F800
000F7800
001E3C00
003C3C00
00781E00
00000000
00000000
001FC000
00FFF000
01FFFC00
07FFFE00
0FE07E00
0F801F00
1F000F00
3E000780
3C000780
78000780
78000780
7FFFFF80
FFFFFF80
FFFFFF80
FFFFFF80
F0000000
F0000000
F0000000
F0000000
F0001E00
F8003E00
78007C00
7C00FC00
3F07F800
1FFFF000
0FFFE000
07FF8000
01FC0000
ENDCHAR
STARTCHAR edieresis
ENCODING 235
SWIDTH 556 0
DWIDTH 28 0
BBX 25 34 2 -1
BITMAP
001E1E00
001E1E00
003C3C00
003C3C00
00000000
00000000
001FC000
00FFF000
01FFFC00
07FFFE00
0FE07E00
0F801F00
1F000F00
3E000780
3C000780
78000780
78000780
7FFFFF80
FFFFFF80
FFFFFF80
FFFFFF80
F0000000
F0000000
F0000000
F0000000
F0001E00
F8003E00
78007C00
7C00FC00
3F07F800
1FFFF000
0FFFE000
07FF8000
01FC0000
ENDCHAR
STARTCHAR igrave
ENCODING 236
SWIDTH 277 0
DWIDTH 14 0
BBX 12 37 3 0
BITMAP
0F80
07C0
07C0
03C0
01E0
01E0
00E0
00F0
0000
0000
0000
0780
0780
0780
0F00
0F00
0F00
0F00
0F00
1E00
1E00
1E00
1E00
1E00
3C00
3C00
3C00
3C00
3C00
7C00
7800
7800
7800
7800
F800
F000
F000
ENDCHAR
STARTCHAR iacute
ENCODING 237
SWIDTH 277 0
DWIDTH 14 0
BBX 14 37 3 0
BITMAP
00FC
01F8
01F0
03E0
03C0
0780
0700
0E00
0000
0000
0000
0780
0780
0780
0F00
0F00
0F00
0F00
0F00
1E00
1E00
1E00
1E00
1E00
3C00
3C00
3C00
3C00
3C00
7C00
7800
7800
7800
7800
F800
F000
F000
ENDCHAR
STARTCHAR icircumflex
ENCODING 238
SWIDTH 277 0
DWIDTH 14 0
BBX 15 36 3 0
BITMAP
01F0
03F0
07F8
0F78
1E3C
3C3C
781E
0000
0000
0000
0780
0780
0780
0F00
0F00
0F00
0F00
0F00
1E00
1E00
1E00
1E00
1E00
3C00
3C00
3C00
3C00
3C00
7C00
7800
7800
7800
7800
F800
F000
F000
ENDCHAR
STARTCHAR idieresis
ENCODING 239
SWIDTH 277 0
DWIDTH 14 0
BBX 14 33 3 0
BITMAP
3C3C
3C3C
7878
7878
0000
0000
0000
0780
0780
0780
0F00
0F00
0F00
0F00
0F00
1E00
1E00
1E00
1E00
1E00
3C00
3C00
3C00
3C00
3C00
7C00
7800
7800
7800
7800
F800
F000
F000
ENDCHAR
STARTCHAR eth
ENCODING 240
SWIDTH 556 0
DWIDTH 28 0
BBX 25 37 2 -1
BITMAP
0003E000
0001F380
0001FF80
0000FE00
0000FC00
0007FC00
001F3E00
000C1E00
00001E00
00000F00
003F8F00
00FFEF00
03FFF700
07FFFF80
0FE07F80
1F801F80
1F000F80
3E000F80
3C000780
7C000780
78000780
78000780
F0000780
F0000780
F0000F00
F0000F00
F0000F00
F0001E00
F0001E00
F8003C00
78007C00
7C00F800
3F03F800
3FFFF000
1FFFE000
07FF8000
01FE0000
ENDCHAR
STARTCHAR ntilde
ENCODING 241
SWIDTH 556 0
DWIDTH 28 0
BBX 26 36 2 0
BITMAP
000F01C0
001FC1C0
003FE3C0
003FFF80
0039FF80
00707F00
00701E00
00000000
00000000
0001F800
03C7FC00
07CFFE00
079FFF00
07BC1F00
07F00F00
07E00F80
0FC00F80
0F800F00
0F800F00
0F000F00
1F000F00
1E001F00
1E001E00
1E001E00
1E001E00
3C003E00
3C003C00
3C003C00
3C003C00
7C007C00
78007800
78007800
78007800
78007800
F000F000
F000F000
ENDCHAR
STARTCHAR ograve
ENCODING 242
SWIDTH 556 0
DWIDTH 28 0
BBX 25 38 2 -1
BITMAP
000F8000
0007C000
0007C000
0003C000
0001E000
0001E000
0000E000
0000F000
00000000
00000000
001FC000
00FFF000
03FFF800
07FFFC00
0FE07E00
0F801F00
1F000F00
3E000F80
3C000780
7C000780
78000780
78000780
F8000780
F0000780
F0000780
F0000F80
F0000F00
F0000F00
F0001F00
F0003E00
F8003E00
78007C00
7C01FC00
3F07F800
3FFFF000
1FFFE000
07FF8000
01FC0000
ENDCHAR
STARTCHAR oacute
ENCODING 243
SWIDTH 556 0
DWIDTH 28 0
BBX 25 38 2 -1
BITMAP
0000FC00
0001F800
0001F000
0003E000
0003C000
00078000
00070000
000E0000
00000000
00000000
001FC000
00FFF000
03FFF800
07FFFC00
0FE07E00
0F801F00
1F000F00
3E000F80
3C000780
7C000780
78000780
78000780
F8000780
F0000780
F0000780
F0000F80
F0000F00
F0000F00
F0001F00
F0003E00
F8003E00
78007C00
7C01FC00
3F07F800
3FFFF000
1FFFE000
07FF8000
01FC0000
ENDCHAR
STARTCHAR ocircumflex
ENCODING 244
SWIDTH 556 0
DWIDTH 28 0
BBX 25 37 2 -1
BITMAP
0003E000
0007E000
000FF000
001EF000
003C7800
00787800
00F03C00
00000000
00000000
001FC000
00FFF000
03FFF800
07FFFC00
0FE07E00
0F801F00
1F000F00
3E000F80
3C000780
7C000780
78000780
78000780
F8000780
F0000780
F0000780
F0000F80
F0000F00
F0000F00
F0001F00
F0003E00
F8003E00
78007C00
7C01FC00
3F07F800
3FFFF000
1FFFE000
07FF8000
01FC0000
ENDCHAR
STARTCHAR otilde
ENCODING 245
SWIDTH 556 0
DWIDTH 28 0
BBX 25 37 2 -1
BITMAP
003C0700
007F0700
00FF8F00
00FFFE00
00E7FE00
01C1FC00
01C07800
00000000
00000000
001FC000
00FFF000
03FFF800
07FFFC00
0FE07E00
0F801F00
1F000F00
3E000F80
3C000780
7C000780
78000780
78000780
F8000780
F0000780
F0000780
F0000F80
F0000F00
F0000F00
F0001F00
F0003E00
F8003E00
78007C00
7C01FC00
3F07F800
3FFFF000
1FFFE000
07FF8000
01FC0000
ENDCHAR
STARTCHAR odieresis
ENCODING 246
SWIDTH 556 0
DWIDTH 28 0
BBX 25 34 2 -1
BITMAP
001E1E00
001E1E00
003C3C00
003C3C00
00000000
00000000
001FC000
00FFF000
03FFF800
07FFFC00
0FE07E00
0F801F00
1F000F00
3E000F80
3C000780
7C000780
78000780
78000780
F8000780
F0000780
F0000780
F0000F80
F0000F00
F0000F00
F0001F00
F0003E00
F8003E00
78007C00
7C01FC00
3F07F800
3FFFF000
1FFFE000
07FF8000
01FC0000
ENDCHAR
STARTCHAR divide
ENCODING 247
SWIDTH 548 0
DWIDTH 27 0
BBX 22 18 3 8
BITMAP
007800
007800
007800
007800
000000
000000
000000
FFFFFC
FFFFFC
FFFFFC
FFFFFC
000000
000000
000000
007800
007800
007800
007800
ENDCHAR
STARTCHAR oslash
ENCODING 248
SWIDTH 610 0
DWIDTH 31 0
BBX 26 32 4 -3
BITMAP
00000080
000001C0
001FE3C0
00FFFF80
01FFFF00
07FFFE00
0FF03E00
0FC03F00
1F007F00
3E007780
3E00E780
7C01E3C0
7803C3C0
780783C0
F80703C0
F00E03C0
F01E07C0
F03C07C0
F0780780
F0700F80
F0E00F80
F1E01F00
FBC01F00
7F803E00
7F00FE00
3F03FC00
1FFFF800
3FFFE000
7FFFC000
71FE0000
E0000000
60000000
ENDCHAR
STARTCHAR ugrave
ENCODING 249
SWIDTH 556 0
DWIDTH 28 0
BBX 25 38 3 -1
BITMAP
001F0000
000F8000
000F8000
00078000
0003C000
0003C000
0001C000
0001E000
00000000
00000000
00000000
07800780
0F000F80
0F000F00
0F000F00
0F000F00
1F000F00
1E001E00
1E001E00
1E001E00
3E001E00
3C003E00
3C003C00
3C003C00
3C003C00
78007C00
78007800
78007800
7800F800
F800F800
F001F800
F003F000
F807F000
FC1EF000
7FFCF000
7FF9E000
3FE1E000
0F800000
ENDCHAR
STARTCHAR uacute
ENCODING 250
SWIDTH 556 0
DWIDTH 28 0
BBX 25 38 3 -1
BITMAP
0000FC00
0001F800
0001F000
0003E000
0003C000
00078000
00070000
000E0000
00000000
00000000
00000000
07800780
0F000F80
0F000F00
0F000F00
0F000F00
1F000F00
1E001E00
1E001E00
1E001E00
3E001E00
3C003E00
3C003C00
3C003C00
3C003C00
78007C00
78007800
78007800
7800F800
F800F800
F001F800
F003F000
F807F000
FC1EF000
7FFCF000
7FF9E000
3FE1E000
0F800000
ENDCHAR
STARTCHAR ucircumflex
ENCODING 251
SWIDTH 556 0
DWIDTH 28 0
BBX 25 37 3 -1
BITMAP
0003E000
0007E000
000FF000
001EF000
003C7800
00787800
00F03C00
00000000
00000000
00000000
07800780
0F000F80
0F000F00
0F000F00
0F000F00
1F000F00
1E001E00
1E001E00
1E001E00
3E001E00
3C003E00
3C003C00
3C003C00
3C003C00
78007C00
78007800
78007800
7800F800
F800F800
F001F800
F003F000
F807F000
FC1EF000
7FFCF000
7FF9E000
3FE1E000
0F800000
ENDCHAR
STARTCHAR udieresis
ENCODING 252
SWIDTH 556 0
DWIDTH 28 0
BBX 25 34 3 -1
BITMAP
003C3C00
003C3C00
00787800
00787800
00000000
00000000
00000000
07800780
0F000F80
0F000F00
0F000F00
0F000F00
1F000F00
1E001E00
1E001E00
1E001E00
3E001E00
3C003E00
3C003C00
3C003C00
3C003C00
78007C00
78007800
78007800
7800F800
F800F800
F001F800
F003F000
F807F000
FC1EF000
7FFCF000
7FF9E000
3FE1E000
0F800000
ENDCHAR
STARTCHAR yacute
ENCODING 253
SWIDTH 500 0
DWIDTH 25 0
BBX 27 47 0 -10
BITMAP
00003F00
00007E00
00007C00
0000F800
0000F000
0001E000
0001C000
00038000
00000000
00000000
00000000
078001E0
078003E0
078003C0
03C007C0
03C00780
03C00F00
03C01F00
03C01E00
03C03E00
03C03C00
01E07C00
01E07800
01E0F800
01E0F000
01E1F000
01E1E000
01E3C000
00E7C000
00F78000
00FF8000
00FF0000
00FF0000
00FE0000
00FE0000
007C0000
007C0000
00780000
00F00000
01F00000
01E00000
03E00000
07C00000
FF800000
FF800000
FE000000
FC000000
ENDCHAR
STARTCHAR thorn
ENCODING 254
SWIDTH 556 0
DWIDTH 28 0
BBX 27 46 0 -10
BITMAP
003C0000
003C0000
007C0000
00780000
00780000
00780000
00780000
00F00000
00F00000
00F0F800
00F3FE00
01F7FF00
01EFFF80
01FE0FC0
01F807C0
01F003C0
03F003E0
03E001E0
03C001E0
03C001E0
03C001E0
078001E0
078001E0
078001E0
078003E0
0F8003C0
0F8003C0
0F8007C0
0F800780
0F800F80
1F801F00
1FC03F00
1FF07E00
1EFFFC00
3E7FF800
3C3FE000
3C1F8000
3C000000
3C000000
78000000
78000000
78000000
78000000
78000000
F0000000
F0000000
ENDCHAR
STARTCHAR ydieresis
ENCODING 255
SWIDTH 500 0
DWIDTH 25 0
BBX 27 43 0 -10
BITMAP
000F0F00
000F0F00
001E1E00
001E1E00
00000000
00000000
00000000
078001E0
078003E0
078003C0
03C007C0
03C00780
03C00F00
03C01F00
03C01E00
03C03E00
03C03C00
01E07C00
01E07800
01E0F800
01E0F000
01E1F000
01E1E000
01E3C000
00E7C000
00F78000
00FF8000
00FF0000
00FF0000
00FE0000
00FE0000
007C0000
007C0000
00780000
00F00000
01F00000
01E00000
03E00000
07C00000
FF800000
FF800000
FE000000
FC000000
ENDCHAR
STARTCHAR Amacron
ENCODING 256
SWIDTH 666 0
DWIDTH 33 0
BBX 31 41 0 0
BITMAP
0000FFFE
0001FFFE
0001FFFC
00000000
00000000
00003F80
00003F80
00007F80
00007BC0
0000FBC0
0000F3C0
0001F3C0
0001E3C0
0003E3C0
0003C3E0
0007C1E0
000781E0
000F81E0
000F01E0
001F01E0
001E01E0
003E00F0
003C00F0
007C00F0
00F800F0
00F800F0
01F000F0
01FFFFF8
03FFFFF8
03FFFFF8
07FFFFF8
07800078
0F800078
0F000078
1F00003C
1E00003C
3E00003C
3C00003C
7C00003C
7800003C
F800003C
ENDCHAR
STARTCHAR amacron
ENCODING 257
SWIDTH 556 0
DWIDTH 28 0
BBX 24 33 2 -1
BITMAP
007FFF
00FFFF
00FFFE
000000
000000
001FC0
00FFF8
01FFFC
03FFFE
07E07F
0F801F
0F000F
1E000F
00000F
00000F
00001F
001FFF
07FFFE
1FFFFE
3FFFDE
7F801E
7C001E
F8003E
F0003C
F0003C
F0007C
F000FC
F801FC
7E07FC
7FFFBC
3FFF3C
1FFC3C
07F000
ENDCHAR
STARTCHAR Abreve
ENCODING 258
SWIDTH 666 0
DWIDTH 33 0
BBX 31 45 0 0
BITMAP
0001E01E
0001E03C
0001F07C
0000FFF8
00007FF0
00003FE0
00001F80
00000000
00000000
00003F80
00003F80
00007F80
00007BC0
0000FBC0
0000F3C0
0001F3C0
0001E3C0
0003E3C0
0003C3E0
0007C1E0
000781E0
000F81E0
000F01E0
001F01E0
001E01E0
003E00F0
003C00F0
007C00F0
00F800F0
00F800F0
01F000F0
01FFFFF8
03FFFFF8
03FFFFF8
07FFFFF8
07800078
0F800078
0F000078
1F00003C
1E00003C
3E00003C
3C00003C
7C00003C
7800003C
F800003C
ENDCHAR
STARTCHAR abreve
ENCODING 259
SWIDTH 556 0
DWIDTH 28 0
BBX 24 37 2 -1
BITMAP
00F00F
00F01E
00F83E
007FFC
003FF8
001FF0
000FC0
000000
000000
001FC0
00FFF8
01FFFC
03FFFE
07E07F
0F801F
0F000F
1E000F
00000F
00000F
00001F
001FFF
07FFFE
1FFFFE
3FFFDE
7F801E
7C001E
F8003E
F0003C
F0003C
F0007C
F000FC
F801FC
7E07FC
7FFFBC
3FFF3C
1FFC3C
07F000
ENDCHAR
STARTCHAR Aogonek
ENCODING 260
SWIDTH 666 0
DWIDTH 33 0
BBX 31 47 0 -11
BITMAP
00003F80
00003F80
00007F80
00007BC0
0000FBC0
0000F3C0
0001F3C0
0001E3C0
0003E3C0
0003C3E0
0007C1E0
000781E0
000F81E0
000F01E0
001F01E0
001E01E0
003E00F0
003C00F0
007C00F0
00F800F0
00F800F0
01F000F0
01FFFFF8
03FFFFF8
03FFFFF8
07FFFFF8
07800078
0F800078
0F000078
1F00003C
1E00003C
3E00003C
3C00003C
7C00003C
7800003C
F800003C
00000038
00000070
00000060
000000E0
000000C0
000001C0
000001C0
000001E2
000001FC
000000FC
00000078
ENDCHAR
STARTCHAR aogonek
ENCODING 261
SWIDTH 556 0
DWIDTH 28 0
BBX 24 38 2 -11
BITMAP
001FC0
00FFF8
01FFFC
03FFFE
07E07F
0F801F
0F000F
1E000F
00000F
00000F
00001F
001FFF
07FFFE
1FFFFE
3FFFDE
7F801E
7C001E
F8003E
F0003C
F0003C
F0007C
F000FC
F801FC
7E07FC
7FFFBC
3FFF3C
1FFC3C
07F038
000070
000060
0000E0
0000C0
0001C0
0001C0
0001E2
0001FC
0000FC
000078
ENDCHAR
STARTCHAR Cacute
ENCODING 262
SWIDTH 722 0
DWIDTH 36 0
BBX 31 47 5 -1
BITMAP
00000FC0
00001F80
00001F00
00003E00
00003C00
00007800
00007000
0000E000
00000000
0003FC00
001FFF80
007FFFC0
00FFFFF0
01FE07F0
03F001F8
07E000FC
0FC0007C
0F80003C
1F00003E
3E00001E
3E000018
3C000000
7C000000
78000000
78000000
78000000
F0000000
F0000000
F0000000
F0000000
F0000000
F0000000
F0000000
F0000060
F00000F8
F00000F0
780000F0
780001F0
7C0003E0
7C0003C0
3E000FC0
1F001F80
1FE07F00
0FFFFE00
07FFFC00
01FFF000
007F8000
ENDCHAR
STARTCHAR cacute
ENCODING 263
SWIDTH 500 0
DWIDTH 25 0
BBX 24 38 2 -1
BITMAP
00007E
0000FC
0000F8
0001F0
0001E0
0003C0
000380
000700
000000
000000
001FC0
00FFF0
03FFF8
07FFFC
0FE07E
1F801E
1F001F
3E000F
3C000F
7C0000
780000
780000
780000
F00000
F00000
F00000
F00000
F00000
F0003C
F00078
F00078
7800F0
7C03F0
7E07E0
3FFFC0
1FFF80
0FFF00
03F800
ENDCHAR
STARTCHAR Ccircumflex
ENCODING 264
SWIDTH 722 0
DWIDTH 36 0
BBX 31 46 5 -1
BITMAP
00007C00
0000FC00
0001FE00
0003DE00
00078F00
000F0F00
001E0780
00000000
0003FC00
001FFF80
007FFFC0
00FFFFF0
01FE07F0
03F001F8
07E000FC
0FC0007C
0F80003C
1F00003E
3E00001E
3E000018
3C000000
7C000000
78000000
78000000
78000000
F0000000
F0000000
F0000000
F0000000
F0000000
F0000000
F0000000
F0000060
F00000F8
F00000F0
780000F0
780001F0
7C0003E0
7C0003C0
3E000FC0
1F001F80
1FE07F00
0FFFFE00
07FFFC00
01FFF000
007F8000
ENDCHAR
STARTCHAR ccircumflex
ENCODING 265
SWIDTH 500 0
DWIDTH 25 0
BBX 24 37 2 -1
BITMAP
0003E0
0007E0
000FF0
001EF0
003C78
007878
00F03C
000000
000000
001FC0
00FFF0
03FFF8
07FFFC
0FE07E
1F801E
1F001F
3E000F
3C000F
7C0000
780000
780000
780000
F00000
F00000
F00000
F00000
F00000
F0003C
F00078
F00078
7800F0
7C03F0
7E07E0
3FFFC0
1FFF80
0FFF00
03F800
ENDCHAR
STARTCHAR Cdotaccent
ENCODING 266
SWIDTH 722 0
DWIDTH 36 0
BBX 31 43 5 -1
BITMAP
00007800
00007800
0000F000
0000F000
00000000
0003FC00
001FFF80
007FFFC0
00FFFFF0
01FE07F0
03F001F8
07E000FC
0FC0007C
0F80003C
1F00003E
3E00001E
3E000018
3C000000
7C000000
78000000
78000000
78000000
F0000000
F0000000
F0000000
F0000000
F0000000
F0000000
F0000000
F0000060
F00000F8
F00000F0
780000F0
780001F0
7C0003E0
7C0003C0
3E000FC0
1F001F80
1FE07F00
0FFFFE00
07FFFC00
01FFF000
007F8000
ENDCHAR
STARTCHAR cdotaccent
ENCODING 267
SWIDTH 500 0
DWIDTH 25 0
BBX 24 34 2 -1
BITMAP
0003C0
0003C0
000780
000780
000000
000000
001FC0
00FFF0
03FFF8
07FFFC
0FE07E
1F801E
1F001F
3E000F
3C000F
7C0000
780000
780000
780000
F00000
F00000
F00000
F00000
F00000
F0003C
F00078
F00078
7800F0
7C03F0
7E07E0
3FFFC0
1FFF80
0FFF00
03F800
ENDCHAR
STARTCHAR Ccaron
ENCODING 268
SWIDTH 722 0
DWIDTH 36 0
BBX 31 46 5 -1
BITMAP
000781E0
0003C3C0
0003C780
0001CF00
0001FE00
0000FC00
0000F800
00000000
0003FC00
001FFF80
007FFFC0
00FFFFF0
01FE07F0
03F001F8
07E000FC
0FC0007C
0F80003C
1F00003E
3E00001E
3E000018
3C000000
7C000000
78000000
78000000
78000000
F0000000
F0000000
F0000000
F0000000
F0000000
F0000000
F0000000
F0000060
F00000F8
F00000F0
780000F0
780001F0
7C0003E0
7C0003C0
3E000FC0
1F001F80
1FE07F00
0FFFFE00
07FFFC00
01FFF000
007F8000
ENDCHAR
STARTCHAR ccaron
ENCODING 269
SWIDTH 500 0
DWIDTH 25 0
BBX 24 37 2 -1
BITMAP
00781E
003C3C
003C78
001CF0
001FE0
000FC0
000F80
000000
000000
001FC0
00FFF0
03FFF8
07FFFC
0FE07E
1F801E
1F001F
3E000F
3C000F
7C0000
780000
780000
780000
F00000
F00000
F00000
F00000
F00000
F0003C
F00078
F00078
7800F0
7C03F0
7E07E0
3FFFC0
1FFF80
0FFF00
03F800
ENDCHAR
STARTCHAR Dcaron
ENCODING 270
SWIDTH 722 0
DWIDTH 36 0
BBX 34 45 2 0
BITMAP
000781E000
0003C3C000
0003C78000
0001CF0000
0001FE0000
0000FC0000
0000F80000
0000000000
0000000000
00FFFF0000
00FFFFE000
01FFFFF800
01FFFFFC00
01E000FE00
01E0003F00
01E0001F00
03C0000F80
03C0000780
03C0000780
03C00003C0
07C00003C0
07800003C0
07800003C0
07800003C0
07800003C0
0F000003C0
0F000003C0
0F000003C0
0F000007C0
1F00000780
1E00000780
1E00000F80
1E00000F00
1E00001F00
3C00001E00
3C00003E00
3C00007C00
3C0000FC00
7C0003F800
78000FF000
78007FE000
7FFFFFC000
7FFFFF0000
FFFFFC0000
FFFFE00000
ENDCHAR
STARTCHAR dcaron
ENCODING 271
SWIDTH 625 0
DWIDTH 31 0
BBX 35 37 2 -1
BITMAP
000000F1E0
000000F1E0
000001F3C0
000001E3C0
000001E0C0
000001E0C0
000001E080
000003E180
000003C300
003F03C700
00FFC3C400
03FFE7C000
07FFF7C000
0FE0FF8000
0F803F8000
1F001F8000
3E001F8000
3C000F8000
7C000F0000
78000F0000
78000F0000
F8000F0000
F0000F0000
F0000E0000
F0001E0000
F0001E0000
F0001E0000
F0003E0000
F0003C0000
F8007C0000
7800FC0000
7C01FC0000
7F07FC0000
3FFFBC0000
1FFF780000
0FFC780000
03F0000000
ENDCHAR
STARTCHAR Dcroat
ENCODING 272
SWIDTH 722 0
DWIDTH 36 0
BBX 33 36 3 0
BITMAP
01FFFF0000
01FFFFE000
01FFFFF000
03FFFFF800
03C001FC00
03C0007E00
03C0003E00
03C0001F00
0780000F00
0780000F00
0780000780
0780000780
0780000780
0F00000780
0F00000780
7FFFE00780
7FFFE00780
FFFFC00780
FFFFC00780
1E00000F00
1E00000F00
1E00000F00
1E00001F00
3E00001E00
3C00003E00
3C00003C00
3C00007C00
3C0000F800
7C0001F000
780003F000
78000FE000
7800FFC000
7FFFFF0000
FFFFFE0000
FFFFF00000
FFFF800000
ENDCHAR
STARTCHAR dcroat
ENCODING 273
SWIDTH 556 0
DWIDTH 28 0
BBX 33 37 2 -1
BITMAP
000000F000
000000F000
000000F000
0000FFFF80
0000FFFF80
0001FFFF00
0001FFFF00
000001E000
000003C000
003F03C000
00FFC3C000
03FFE3C000
07FFF7C000
0FE0FF8000
0F803F8000
1F001F8000
3E001F8000
3C000F8000
7C000F0000
78000F0000
78000F0000
F8000F0000
F0000F0000
F0000E0000
F0001E0000
F0001E0000
F0001E0000
F0003E0000
F0003C0000
F8007C0000
7800FC0000
7C01FC0000
7F07FC0000
3FFFBC0000
1FFF780000
0FFC780000
03F0000000
ENDCHAR
STARTCHAR Emacron
ENCODING 274
SWIDTH 666 0
DWIDTH 33 0
BBX 33 41 2 0
BITMAP
0003FFF800
0007FFF800
0007FFF000
0000000000
0000000000
01FFFFFF80
01FFFFFF80
03FFFFFF80
03FFFFFF00
03C0000000
03C0000000
03C0000000
03C0000000
0780000000
0780000000
0780000000
0780000000
0780000000
0F00000000
0F00000000
0FFFFFFC00
0FFFFFFC00
0FFFFFF800
1FFFFFF800
1E00000000
1E00000000
1E00000000
1E00000000
3E00000000
3C00000000
3C00000000
3C00000000
3C00000000
7C00000000
7800000000
7800000000
7800000000
7FFFFFF000
FFFFFFF000
FFFFFFF000
FFFFFFE000
ENDCHAR
STARTCHAR emacron
ENCODING 275
SWIDTH 556 0
DWIDTH 28 0
BBX 25 33 2 -1
BITMAP
00FFFE00
01FFFE00
01FFFC00
00000000
00000000
001FC000
00FFF000
01FFFC00
07FFFE00
0FE07E00
0F801F00
1F000F00
3E000780
3C000780
78000780
78000780
7FFFFF80
FFFFFF80
FFFFFF80
FFFFFF80
F0000000
F0000000
F0000000
F0000000
F0001E00
F8003E00
78007C00
7C00FC00
3F07F800
1FFFF000
0FFFE000
07FF8000
01FC0000
ENDCHAR
STARTCHAR Ebreve
ENCODING 276
SWIDTH 666 0
DWIDTH 33 0
BBX 33 45 2 0
BITMAP
0003C03C00
0003C07800
0003E0F800
0001FFF000
0000FFE000
00007FC000
00003F0000
0000000000
0000000000
01FFFFFF80
01FFFFFF80
03FFFFFF80
03FFFFFF00
03C0000000
03C0000000
03C0000000
03C0000000
0780000000
0780000000
0780000000
0780000000
0780000000
0F00000000
0F00000000
0FFFFFFC00
0FFFFFFC00
0FFFFFF800
1FFFFFF800
1E00000000
1E00000000
1E00000000
1E00000000
3E00000000
3C00000000
3C00000000
3C00000000
3C00000000
7C00000000
7800000000
7800000000
7800000000
7FFFFFF000
FFFFFFF000
FFFFFFF000
FFFFFFE000
ENDCHAR
STARTCHAR ebreve
ENCODING 277
SWIDTH 556 0
DWIDTH 28 0
BBX 25 37 2 -1
BITMAP
00780780
00780F00
007C1F00
003FFE00
001FFC00
000FF800
0007E000
00000000
00000000
001FC000
00FFF000
01FFFC00
07FFFE00
0FE07E00
0F801F00
1F000F00
3E000780
3C000780
78000780
78000780
7FFFFF80
FFFFFF80
FFFFFF80
FFFFFF80
F0000000
F0000000
F0000000
F0000000
F0001E00
F8003E00
78007C00
7C00FC00
3F07F800
1FFFF000
0FFFE000
07FF8000
01FC0000
ENDCHAR
STARTCHAR Edotaccent
ENCODING 278
SWIDTH 666 0
DWIDTH 33 0
BBX 33 42 2 0
BITMAP
00001E0000
00001E0000
00003C0000
00003C0000
0000000000
0000000000
01FFFFFF80
01FFFFFF80
03FFFFFF80
03FFFFFF00
03C0000000
03C0000000
03C0000000
03C0000000
0780000000
0780000000
0780000000
0780000000
0780000000
0F00000000
0F00000000
0FFFFFFC00
0FFFFFFC00
0FFFFFF800
1FFFFFF800
1E00000000
1E00000000
1E00000000
1E00000000
3E00000000
3C00000000
3C00000000
3C00000000
3C00000000
7C00000000
7800000000
7800000000
7800000000
7FFFFFF000
FFFFFFF000
FFFFFFF000
FFFFFFE000
ENDCHAR
STARTCHAR edotaccent
ENCODING 279
SWIDTH 556 0
DWIDTH 28 0
BBX 25 34 2 -1
BITMAP
0003C000
0003C000
00078000
00078000
00000000
00000000
001FC000
00FFF000
01FFFC00
07FFFE00
0FE07E00
0F801F00
1F000F00
3E000780
3C000780
78000780
78000780
7FFFFF80
FFFFFF80
FFFFFF80
FFFFFF80
F0000000
F0000000
F0000000
F0000000
F0001E00
F8003E00
78007C00
7C00FC00
3F07F800
1FFFF000
0FFFE000
07FF8000
01FC0000
ENDCHAR
STARTCHAR Eogonek
ENCODING 280
SWIDTH 666 0
DWIDTH 33 0
BBX 33 47 2 -11
BITMAP
01FFFFFF80
01FFFFFF80
03FFFFFF80
03FFFFFF00
03C0000000
03C0000000
03C0000000
03C0000000
0780000000
0780000000
0780000000
0780000000
0780000000
0F00000000
0F00000000
0FFFFFFC00
0FFFFFFC00
0FFFFFF800
1FFFFFF800
1E00000000
1E00000000
1E00000000
1E00000000
3E00000000
3C00000000
3C00000000
3C00000000
3C00000000
7C00000000
7800000000
7800000000
7800000000
7FFFFFF000
FFFFFFF000
FFFFFFF000
FFFFFFE000
0000070000
00000E0000
00000C0000
00001C0000
0000180000
0000380000
0000380000
00003C4000
00003F8000
00001F8000
00000F0000
ENDCHAR
STARTCHAR eogonek
ENCODING 281
SWIDTH 556 0
DWIDTH 28 0
BBX 25 38 2 -11
BITMAP
001FC000
00FFF000
01FFFC00
07FFFE00
0FE07E00
0F801F00
1F000F00
3E000780
3C000780
78000780
78000780
7FFFFF80
FFFFFF80
FFFFFF80
FFFFFF80
F0000000
F0000000
F0000000
F0000000
F0001E00
F8003E00
78007C00
7C00FC00
3F07F800
1FFFF000
0FFFE000
07FF8000
01FE0000
00380000
00300000
00700000
00600000
00E00000
00E00000
00F10000
00FE0000
007E0000
003C0000
ENDCHAR
STARTCHAR Ecaron
ENCODING 282
SWIDTH 666 0
DWIDTH 33 0
BBX 33 45 2 0
BITMAP
0003C0F000
0001E1E000
0001E3C000
0000E78000
0000FF0000
00007E0000
00007C0000
0000000000
0000000000
01FFFFFF80
01FFFFFF80
03FFFFFF80
03FFFFFF00
03C0000000
03C0000000
03C0000000
03C0000000
0780000000
0780000000
0780000000
0780000000
0780000000
0F00000000
0F00000000
0FFFFFFC00
0FFFFFFC00
0FFFFFF800
1FFFFFF800
1E00000000
1E00000000
1E00000000
1E00000000
3E00000000
3C00000000
3C00000000
3C00000000
3C00000000
7C00000000
7800000000
7800000000
7800000000
7FFFFFF000
FFFFFFF000
FFFFFFF000
FFFFFFE000
ENDCHAR
STARTCHAR ecaron
ENCODING 283
SWIDTH 556 0
DWIDTH 28 0
BBX 25 37 2 -1
BITMAP
003C0F00
001E1E00
001E3C00
000E7800
000FF000
0007E000
0007C000
00000000
00000000
001FC000
00FFF000
01FFFC00
07FFFE00
0FE07E00
0F801F00
1F000F00
3E000780
3C000780
78000780
78000780
7FFFFF80
FFFFFF80
FFFFFF80
FFFFFF80
F0000000
F0000000
F0000000
F0000000
F0001E00
F8003E00
78007C00
7C00FC00
3F07F800
1FFFF000
0FFFE000
07FF8000
01FC0000
ENDCHAR
STARTCHAR Gcircumflex
ENCODING 284
SWIDTH 777 0
DWIDTH 39 0
BBX 34 46 5 -1
BITMAP
00001F0000
00003F0000
00007F8000
0000F78000
0001E3C000
0003C3C000
000781E000
0000000000
0000FF0000
000FFFE000
003FFFF800
007FFFFC00
00FF01FE00
03F8003F00
03F0001F00
07C0000F80
0F80000F80
1F00000780
1E000007C0
3E00000300
3C00000000
3C00000000
7800000000
7800000000
7800000000
F800000000
F000000000
F000FFFF00
F000FFFF00
F001FFFF00
F001FFFE00
F000001E00
F000001E00
F000001E00
F000003E00
7800003C00
7800003C00
7C00003C00
3C00003C00
3E0000F800
1F8003F800
1FE01FF800
0FFFFFF000
03FFFFC000
01FFFE0000
003FF00000
ENDCHAR
STARTCHAR gcircumflex
ENCODING 285
SWIDTH 556 0
DWIDTH 28 0
BBX 26 46 1 -10
BITMAP
0001F000
0003F000
0007F800
000F7800
001E3C00
003C3C00
00781E00
00000000
00000000
001F8000
007FE3C0
01FFF3C0
03FFFBC0
07E0FFC0
0FC03FC0
0F801F80
1F000F80
1E000F80
3C000F80
3C000F00
7C000F00
78000F00
78000F00
78000F00
78001E00
78001E00
78001E00
78003E00
7C007C00
3C007C00
3E01FC00
3F07FC00
1FFFFC00
0FFF7800
07FE7800
01F87800
0000F800
0000F000
F000F000
F001F000
F803E000
FC07E000
7FFFC000
3FFF8000
1FFF0000
07F80000
ENDCHAR
STARTCHAR Gbreve
ENCODING 286
SWIDTH 777 0
DWIDTH 39 0
BBX 34 46 5 -1
BITMAP
0007807800
000780F000
0007C1F000
0003FFE000
0001FFC000
0000FF8000
00007E0000
0000000000
0000FF0000
000FFFE000
003FFFF800
007FFFFC00
00FF01FE00
03F8003F00
03F0001F00
07C0000F80
0F80000F80
1F00000780
1E000007C0
3E00000300
3C00000000
3C00000000
7800000000
7800000000
7800000000
F800000000
F000000000
F000FFFF00
F000FFFF00
F001FFFF00
F001FFFE00
F000001E00
F000001E00
F000001E00
F000003E00
7800003C00
7800003C00
7C00003C00
3C00003C00
3E0000F800
1F8003F800
1FE01FF800
0FFFFFF000
03FFFFC000
01FFFE0000
003FF00000
ENDCHAR
STARTCHAR gbreve
ENCODING 287
SWIDTH 556 0
DWIDTH 28 0
BBX 26 46 1 -10
BITMAP
00780780
00780F00
007C1F00
003FFE00
001FFC00
000FF800
0007E000
00000000
00000000
001F8000
007FE3C0
01FFF3C0
03FFFBC0
07E0FFC0
0FC03FC0
0F801F80
1F000F80
1E000F80
3C000F80
3C000F00
7C000F00
78000F00
78000F00
78000F00
78001E00
78001E00
78001E00
78003E00
7C007C00
3C007C00
3E01FC00
3F07FC00
1FFFFC00
0FFF7800
07FE7800
01F87800
0000F800
0000F000
F000F000
F001F000
F803E000
FC07E000
7FFFC000
3FFF8000
1FFF0000
07F80000
ENDCHAR
STARTCHAR Gdotaccent
ENCODING 288
SWIDTH 777 0
DWIDTH 39 0
BBX 34 43 5 -1
BITMAP
00001E0000
00001E0000
00003C0000
00003C0000
0000000000
0000FF0000
000FFFE000
003FFFF800
007FFFFC00
00FF01FE00
03F8003F00
03F0001F00
07C0000F80
0F80000F80
1F00000780
1E000007C0
3E00000300
3C00000000
3C00000000
7800000000
7800000000
7800000000
F800000000
F000000000
F000FFFF00
F000FFFF00
F001FFFF00
F001FFFE00
F000001E00
F000001E00
F000001E00
F000003E00
7800003C00
7800003C00
7C00003C00
3C00003C00
3E0000F800
1F8003F800
1FE01FF800
0FFFFFF000
03FFFFC000
01FFFE0000
003FF00000
ENDCHAR
STARTCHAR gdotaccent
ENCODING 289
SWIDTH 556 0
DWIDTH 28 0
BBX 26 43 1 -10
BITMAP
0001E000
0001E000
0003C000
0003C000
00000000
00000000
001F8000
007FE3C0
01FFF3C0
03FFFBC0
07E0FFC0
0FC03FC0
0F801F80
1F000F80
1E000F80
3C000F80
3C000F00
7C000F00
78000F00
78000F00
78000F00
78001E00
78001E00
78001E00
78003E00
7C007C00
3C007C00
3E01FC00
3F07FC00
1FFFFC00
0FFF7800
07FE7800
01F87800
0000F800
0000F000
F000F000
F001F000
F803E000
FC07E000
7FFFC000
3FFF8000
1FFF0000
07F80000
ENDCHAR
STARTCHAR Gcommaaccent
ENCODING 290
SWIDTH 777 0
DWIDTH 39 0
BBX 34 47 5 -10
BITMAP
0000FF0000
000FFFE000
003FFFF800
007FFFFC00
00FF00FE00
01F8003F00
03F0001F80
07C0000F80
0F80000780
1F000007C0
1F000003C0
3E00000300
3C00000000
3C00000000
7800000000
7800000000
7800000000
F800000000
F000000000
F0007FFF80
F0007FFF80
F000FFFF80
F000FFFF00
F000000F00
F000000F00
F000000F00
F000001E00
7800001E00
7800001E00
7C00001E00
7C00003E00
3E00007C00
1F8003FC00
1FF01FFC00
0FFFFFF000
07FFFFC000
01FFFF0000
003FF00000
0038000000
007E000000
007F000000
000F800000
0007800000
000F800000
07FF800000
07FF000000
07F8000000
ENDCHAR
STARTCHAR gcommaaccent
ENCODING 291
SWIDTH 556 0
DWIDTH 28 0
BBX 27 49 1 -10
BITMAP
00004000
0000E000
0001C000
00018000
00038000
00030000
0003C000
0003C000
00078000
00078000
00000000
00000000
001F8000
007FE1E0
01FFF3C0
03FFFBC0
07E0FBC0
0FC03FC0
0F801FC0
1F000F80
1E000F80
3E000F80
3C000F80
7C000F80
78000F00
78000F00
78000F00
78001F00
78001E00
78001E00
78003E00
7C007E00
3C00FE00
3E01FC00
1F03FC00
1FFFBC00
0FFF7C00
07FE7800
01F87800
00007800
0000F800
F000F000
F000F000
F001E000
FC07E000
7FFFC000
3FFF8000
1FFF0000
07F80000
ENDCHAR
STARTCHAR Hcircumflex
ENCODING 292
SWIDTH 722 0
DWIDTH 36 0
BBX 34 45 2 0
BITMAP
00000F8000
00001F8000
00003FC000
00007BC000
0000F1E000
0001E1E000
0003C0F000
0000000000
0000000000
01E00003C0
01E00003C0
03E00003C0
03C0000780
03C0000780
03C0000780
03C0000780
03C0000780
0780000F00
0780000F00
0780000F00
0780000F00
0780000F00
0F00001E00
0F00001E00
0FFFFFFE00
0FFFFFFE00
0FFFFFFE00
1FFFFFFC00
1E00003C00
1E00003C00
1E00003C00
1E00003C00
3E00007C00
3C00007800
3C00007800
3C00007800
3C00007800
7C0000F800
780000F000
780000F000
780000F000
780000F000
F80001F000
F00001E000
F00001E000
ENDCHAR
STARTCHAR hcircumflex
ENCODING 293
SWIDTH 556 0
DWIDTH 28 0
BBX 24 45 2 0
BITMAP
0001F0
0003F0
0007F8
000F78
001E3C
003C3C
00781E
000000
000000
01E000
01E000
03E000
03C000
03C000
03C000
03C000
03C000
078000
0783F0
078FFC
079FFE
07BFFE
0F7C1F
0FF00F
0FC00F
0F800F
0F800F
1F000F
1F001F
1E001E
1E001E
1E001E
3E001E
3C003E
3C003C
3C003C
3C003C
7C003C
780078
780078
780078
780078
F80078
F000F0
F000F0
ENDCHAR
STARTCHAR Hbar
ENCODING 294
SWIDTH 722 0
DWIDTH 36 0
BBX 38 36 2 0
BITMAP
00F00000F0
00F00000F0
01E00001E0
01E00001E0
01E00001E0
01E00001E0
0FFFFFFFFC
1FFFFFFFFC
1FFFFFFFF8
03C00003C0
03C00003C0
07C00007C0
0780000780
0780000780
0780000780
07FFFFFF80
0FFFFFFF00
0FFFFFFF00
0FFFFFFF00
0F00000F00
1F00001F00
1E00001E00
1E00001E00
1E00001E00
1E00001E00
3C00003C00
3C00003C00
3C00003C00
3C00003C00
7C00007C00
7800007800
7800007800
7800007800
7800007800
F00000F000
F00000F000
ENDCHAR
STARTCHAR hbar
ENCODING 295
SWIDTH 556 0
DWIDTH 28 0
BBX 24 36 2 0
BITMAP
00F000
00F000
0FFFE0
0FFFE0
0FFFE0
1FFFC0
03E000
03C000
03C000
03C1F8
03C7FC
079FFE
07BFFF
07FC1F
07F00F
07E00F
0FC00F
0F800F
0F000F
0F000F
1F001E
1E001E
1E001E
1E001E
1E001E
3C003C
3C003C
3C003C
3C003C
7C007C
780078
780078
780078
780078
F000F0
F000F0
ENDCHAR
STARTCHAR Itilde
ENCODING 296
SWIDTH 277 0
DWIDTH 14 0
BBX 19 45 3 0
BITMAP
0780E0
0FE0E0
1FF1E0
1FFFC0
1CFFC0
383F80
380F00
000000
000000
01E000
01E000
03E000
03C000
03C000
03C000
03C000
03C000
078000
078000
078000
078000
078000
0F0000
0F0000
0F0000
0F0000
0F0000
1E0000
1E0000
1E0000
1E0000
1E0000
3C0000
3C0000
3C0000
3C0000
3C0000
7C0000
780000
780000
780000
780000
F80000
F00000
F00000
ENDCHAR
STARTCHAR itilde
ENCODING 297
SWIDTH 222 0
DWIDTH 11 0
BBX 17 36 2 0
BITMAP
1E0380
3F8380
7FC780
7FFF00
73FF00
E0FE00
E03C00
000000
000000
000000
03C000
078000
078000
078000
078000
078000
0F0000
0F0000
0F0000
0F0000
1E0000
1E0000
1E0000
1E0000
1E0000
3C0000
3C0000
3C0000
3C0000
7C0000
780000
780000
780000
780000
F00000
F00000
ENDCHAR
STARTCHAR Imacron
ENCODING 298
SWIDTH 277 0
DWIDTH 14 0
BBX 18 41 3 0
BITMAP
1FFFC0
3FFFC0
3FFF80
000000
000000
01E000
01E000
03E000
03C000
03C000
03C000
03C000
03C000
078000
078000
078000
078000
078000
0F0000
0F0000
0F0000
0F0000
0F0000
1E0000
1E0000
1E0000
1E0000
1E0000
3C0000
3C0000
3C0000
3C0000
3C0000
7C0000
780000
780000
780000
780000
F80000
F00000
F00000
ENDCHAR
STARTCHAR imacron
ENCODING 299
SWIDTH 222 0
DWIDTH 11 0
BBX 17 32 2 0
BITMAP
3FFF80
7FFF80
7FFF00
000000
000000
000000
03C000
078000
078000
078000
078000
078000
0F0000
0F0000
0F0000
0F0000
1E0000
1E0000
1E0000
1E0000
1E0000
3C0000
3C0000
3C0000
3C0000
7C0000
780000
780000
780000
780000
F00000
F00000
ENDCHAR
STARTCHAR Ibreve
ENCODING 300
SWIDTH 277 0
DWIDTH 14 0
BBX 19 45 3 0
BITMAP
1E01E0
1E03C0
1F07C0
0FFF80
07FF00
03FE00
01F800
000000
000000
01E000
01E000
03E000
03C000
03C000
03C000
03C000
03C000
078000
078000
078000
078000
078000
0F0000
0F0000
0F0000
0F0000
0F0000
1E0000
1E0000
1E0000
1E0000
1E0000
3C0000
3C0000
3C0000
3C0000
3C0000
7C0000
780000
780000
780000
780000
F80000
F00000
F00000
ENDCHAR
STARTCHAR ibreve
ENCODING 301
SWIDTH 222 0
DWIDTH 11 0
BBX 18 36 2 0
BITMAP
3C03C0
3C0780
3E0F80
1FFF00
0FFE00
07FC00
03F000
000000
000000
000000
03C000
078000
078000
078000
078000
078000
0F0000
0F0000
0F0000
0F0000
1E0000
1E0000
1E0000
1E0000
1E0000
3C0000
3C0000
3C0000
3C0000
7C0000
780000
780000
780000
780000
F00000
F00000
ENDCHAR
STARTCHAR Iogonek
ENCODING 302
SWIDTH 277 0
DWIDTH 14 0
BBX 14 47 0 -11
BITMAP
003C
003C
007C
0078
0078
0078
0078
0078
00F0
00F0
00F0
00F0
00F0
01E0
01E0
01E0
01E0
01E0
03C0
03C0
03C0
03C0
03C0
0780
0780
0780
0780
0780
0F80
0F00
0F00
0F00
0F00
1F00
1E00
1E00
1C00
3800
3000
7000
6000
E000
E000
F100
FE00
7E00
3C00
ENDCHAR
STARTCHAR iogonek
ENCODING 303
SWIDTH 222 0
DWIDTH 10 0
BBX 12 47 0 -11
BITMAP
00F0
00F0
01F0
01E0
0000
0000
0000
0000
0000
0000
03C0
03C0
03C0
0780
0780
0780
0780
0780
0F00
0F00
0F00
0F00
0F00
1E00
1E00
1E00
1E00
1E00
3E00
3C00
3C00
3C00
3C00
7C00
7800
7800
1C00
3800
3000
7000
6000
E000
E000
F100
FE00
7E00
3C00
ENDCHAR
STARTCHAR Idotaccent
ENCODING 304
SWIDTH 277 0
DWIDTH 14 0
BBX 13 42 3 0
BITMAP
0078
0078
00F0
00F0
0000
0000
01E0
01E0
03E0
03C0
03C0
03C0
03C0
03C0
0780
0780
0780
0780
0780
0F00
0F00
0F00
0F00
0F00
1E00
1E00
1E00
1E00
1E00
3C00
3C00
3C00
3C00
3C00
7C00
7800
7800
7800
7800
F800
F000
F000
ENDCHAR
STARTCHAR dotlessi
ENCODING 305
SWIDTH 277 0
DWIDTH 14 0
BBX 9 26 3 0
BITMAP
0780
0780
0780
0F00
0F00
0F00
0F00
0F00
1E00
1E00
1E00
1E00
1E00
3C00
3C00
3C00
3C00
3C00
7C00
7800
7800
7800
7800
F800
F000
F000
ENDCHAR
STARTCHAR IJ
ENCODING 306
SWIDTH 733 0
DWIDTH 37 0
BBX 34 37 3 -1
BITMAP
01E00003C0
01E00003C0
03E00007C0
03C0000780
03C0000780
03C0000780
03C0000780
03C0000780
0780000F00
0780000F00
0780000F00
0780000F00
0780000F00
0F00001E00
0F00001E00
0F00001E00
0F00001E00
0F00001E00
1E00003C00
1E00003C00
1E00003C00
1E00003C00
1E00003C00
3C00007800
3C00007800
3C00007800
3C3C007800
3C3C007800
7C3C00F000
783C00F000
783C01F000
783E01E000
781F07E000
F81FFFC000
F00FFF8000
F007FF0000
0001FC0000
ENDCHAR
STARTCHAR ij
ENCODING 307
SWIDTH 443 0
DWIDTH 22 0
BBX 23 46 1 -10
BITMAP
01E01E
01E01E
03E03E
03C03C
000000
000000
000000
000000
000000
000000
078078
0780F8
0780F0
0F00F0
0F00F0
0F00F0
0F01E0
0F01E0
1E01E0
1E01E0
1E03E0
1E03C0
1E03C0
3C03C0
3C03C0
3C0780
3C0780
3C0780
7C0780
780F80
780F00
780F00
780F00
F80F00
F01E00
F01E00
001E00
001E00
003E00
003C00
003C00
007C00
0FF800
1FF800
1FF000
0FC000
ENDCHAR
STARTCHAR Jcircumflex
ENCODING 308
SWIDTH 500 0
DWIDTH 25 0
BBX 29 46 2 -1
BITMAP
000007C0
00000FC0
00001FE0
00003DE0
000078F0
0000F0F0
0001E078
00000000
00000000
00000F00
00000F00
00001F00
00001E00
00001E00
00001E00
00001E00
00001E00
00003C00
00003C00
00003C00
00003C00
00003C00
00007800
00007800
00007800
00007800
00007800
0000F000
0000F000
0000F000
0000F000
0000F000
0001E000
0001E000
0001E000
F001E000
F001E000
F003C000
F003C000
F007C000
F8078000
7C1F8000
7FFF0000
3FFE0000
1FFC0000
07F00000
ENDCHAR
STARTCHAR jcircumflex
ENCODING 309
SWIDTH 222 0
DWIDTH 11 0
BBX 23 46 -7 -10
BITMAP
0001F0
0003F8
0007B8
000F38
001E3C
003C1C
00781E
000000
000000
000000
0003C0
0007C0
000780
000780
000780
000780
000F00
000F00
000F00
000F00
001E00
001E00
001E00
001E00
003E00
003C00
003C00
003C00
003C00
007800
007800
007800
007800
00F800
00F000
00F000
00F000
00F000
01E000
01E000
01E000
03C000
7FC000
7F8000
FF8000
7E0000
ENDCHAR
STARTCHAR Kcommaaccent
ENCODING 310
SWIDTH 666 0
DWIDTH 33 0
BBX 34 47 2 -11
BITMAP
00F00007C0
00F0000F80
01E0003F00
01E0007E00
01E000FC00
01E001F800
01E003F000
03C007E000
03C00F8000
03C01F0000
03C07E0000
07C0FC0000
0781F80000
0783F00000
0787E00000
078FC00000
0F1FC00000
0F7FE00000
0FFDF00000
0FF8F00000
1FF0F80000
1FE0780000
1F807C0000
1F003C0000
1E001E0000
3C001F0000
3C000F0000
3C000F8000
3C00078000
7C0007C000
780003C000
780003E000
780001E000
780000F000
F00000F800
F000007800
0000000000
003E000000
003F800000
003F800000
0007C00000
0003C00000
0003C00000
0007C00000
01FF800000
01FF000000
03FC000000
ENDCHAR
STARTCHAR kcommaaccent
ENCODING 311
SWIDTH 500 0
DWIDTH 25 0
BBX 25 47 2 -11
BITMAP
00F00000
00F00000
01E00000
01E00000
01E00000
01E00000
01E00000
03C00000
03C00000
03C00000
03C01F80
07803F00
07807E00
0780FC00
0781F800
0783F000
0F07C000
0F0F8000
0F1F0000
0F3E0000
1F7E0000
1EFE0000
1FFF0000
1FCF0000
1F8F8000
3F078000
3E078000
3C03C000
3C03C000
7803E000
7801E000
7801E000
7800F000
7800F000
F000F800
F0007800
00000000
03E00000
03F80000
03F80000
007C0000
003C0000
003C0000
007C0000
1FF80000
1FF00000
3FC00000
ENDCHAR
STARTCHAR kgreenlandic
ENCODING 312
SWIDTH 500 0
DWIDTH 25 0
BBX 25 26 2 0
BITMAP
03C00F80
07C01F00
07807E00
0780FC00
0781F000
0783E000
0F07C000
0F0F8000
0F1F0000
0F3E0000
1F7E0000
1EFF0000
1FEF0000
1FCF0000
1F878000
3E078000
3C07C000
3C03C000
3C03C000
7C01E000
7801E000
7801F000
7800F000
7800F000
F0007800
F0007800
ENDCHAR
STARTCHAR Lacute
ENCODING 313
SWIDTH 556 0
DWIDTH 28 0
BBX 25 46 2 0
BITMAP
0003F000
0007E000
0007C000
000F8000
000F0000
001E0000
001C0000
00380000
00000000
00000000
01E00000
01E00000
03E00000
03C00000
03C00000
03C00000
03C00000
03C00000
07800000
07800000
07800000
07800000
07800000
0F000000
0F000000
0F000000
0F000000
0F000000
1E000000
1E000000
1E000000
1E000000
1E000000
3C000000
3C000000
3C000000
3C000000
3C000000
7C000000
78000000
78000000
78000000
7FFFFF80
FFFFFF80
FFFFFF00
FFFFFF00
ENDCHAR
STARTCHAR lacute
ENCODING 314
SWIDTH 222 0
DWIDTH 11 0
BBX 17 46 1 0
BITMAP
001F80
003F00
003E00
007C00
007800
00F000
00E000
01C000
000000
000000
00F000
00F000
01F000
01E000
01E000
01E000
01E000
03C000
03C000
03C000
03C000
07C000
078000
078000
078000
078000
0F0000
0F0000
0F0000
0F0000
1F0000
1E0000
1E0000
1E0000
1E0000
3C0000
3C0000
3C0000
3C0000
7C0000
780000
780000
780000
780000
F00000
F00000
ENDCHAR
STARTCHAR Lcommaaccent
ENCODING 315
SWIDTH 556 0
DWIDTH 28 0
BBX 25 47 2 -11
BITMAP
01E00000
01E00000
03E00000
03C00000
03C00000
03C00000
03C00000
03C00000
07800000
07800000
07800000
07800000
07800000
0F000000
0F000000
0F000000
0F000000
0F000000
1E000000
1E000000
1E000000
1E000000
1E000000
3C000000
3C000000
3C000000
3C000000
3C000000
7C000000
78000000
78000000
78000000
7FFFFF80
FFFFFF80
FFFFFF00
FFFFFF00
00000000
03E00000
03F80000
03F80000
007C0000
003C0000
003C0000
007C0000
1FF80000
1FF00000
3FC00000
ENDCHAR
STARTCHAR lcommaaccent
ENCODING 316
SWIDTH 222 0
DWIDTH 11 0
BBX 17 47 -4 -11
BITMAP
000780
000780
000F80
000F00
000F00
000F00
000F00
001E00
001E00
001E00
001E00
003E00
003C00
003C00
003C00
003C00
007800
007800
007800
007800
00F800
00F000
00F000
00F000
00F000
01E000
01E000
01E000
01E000
03E000
03C000
03C000
03C000
03C000
078000
078000
000000
0F8000
0FE000
0FE000
01F000
00F000
00F000
01F000
7FE000
7FC000
FF0000
ENDCHAR
STARTCHAR Lcaron
ENCODING 317
SWIDTH 556 0
DWIDTH 28 0
BBX 24 36 2 0
BITMAP
01E00F
01E00F
03E01E
03C01E
03C006
03C006
03C00E
03C00C
078018
078078
078060
078000
078000
0F0000
0F0000
0F0000
0F0000
0F0000
1E0000
1E0000
1E0000
1E0000
1E0000
3C0000
3C0000
3C0000
3C0000
3C0000
7C0000
780000
780000
780000
7FFFFF
FFFFFF
FFFFFE
FFFFFE
ENDCHAR
STARTCHAR lcaron
ENCODING 318
SWIDTH 281 0
DWIDTH 14 0
BBX 17 36 1 0
BITMAP
01E780
01E780
03EF00
03CF00
03C300
03C300
03C600
03C600
079C00
079000
078000
078000
078000
0F0000
0F0000
0F0000
0F0000
0F0000
1E0000
1E0000
1E0000
1E0000
1E0000
3C0000
3C0000
3C0000
3C0000
3C0000
7C0000
780000
780000
780000
780000
F80000
F00000
F00000
ENDCHAR
STARTCHAR Ldot
ENCODING 319
SWIDTH 556 0
DWIDTH 28 0
BBX 25 36 2 0
BITMAP
01E00000
01E00000
03E00000
03C00000
03C00000
03C00000
03C00000
03C00000
07800000
07800000
07800000
07800000
07800000
0F000000
0F000000
0F000000
0F000000
0F007800
1E007800
1E00F000
1E00F000
1E000000
1E000000
3C000000
3C000000
3C000000
3C000000
3C000000
7C000000
78000000
78000000
78000000
7FFFFF80
FFFFFF80
FFFFFF00
FFFFFF00
ENDCHAR
STARTCHAR ldot
ENCODING 320
SWIDTH 399 0
DWIDTH 20 0
BBX 17 36 1 0
BITMAP
00F000
00F000
01F000
01E000
01E000
01E000
01E000
03C000
03C000
03C000
03C000
07C000
078000
078000
078000
078000
0F0000
0F0780
0F0780
0F0F00
1F0F00
1E0000
1E0000
1E0000
1E0000
3C0000
3C0000
3C0000
3C0000
7C0000
780000
780000
780000
780000
F00000
F00000
ENDCHAR
STARTCHAR Lslash
ENCODING 321
SWIDTH 556 0
DWIDTH 28 0
BBX 25 36 1 0
BITMAP
00F00000
00F00000
01F00000
01E00000
01E00000
01E00000
01E00000
01E00000
03C00000
03C01000
03C07000
03C0E000
03C3E000
078FC000
07BF0000
07FE0000
07F80000
07E00000
0FC00000
3F000000
7F000000
7F000000
EF000000
9E000000
1E000000
1E000000
1E000000
1E000000
3E000000
3C000000
3C000000
3C000000
3FFFFF80
7FFFFF80
7FFFFF00
7FFFFF00
ENDCHAR
STARTCHAR lslash
ENCODING 322
SWIDTH 222 0
DWIDTH 11 0
BBX 12 36 1 0
BITMAP
01E0
01E0
01E0
03C0
03C0
03C0
03C0
03C0
0780
0780
0780
0780
0790
0F30
0FF0
0FE0
0FC0
1F80
3E00
7E00
7E00
DE00
9E00
3C00
3C00
3C00
3C00
3C00
7C00
7800
7800
7800
7800
F800
F000
F000
ENDCHAR
STARTCHAR Nacute
ENCODING 323
SWIDTH 722 0
DWIDTH 36 0
BBX 35 46 2 0
BITMAP
000003F000
000007E000
000007C000
00000F8000
00000F0000
00001E0000
00001C0000
0000380000
0000000000
0000000000
01F80001E0
01F80001E0
03F80003E0
03FC0003C0
03FC0003C0
03FE0003C0
03DE0003C0
03DE0007C0
079F000780
078F000780
078F800780
0787800780
0787800F00
0F07C00F00
0F03C00F00
0F03E00F00
0F03E01F00
0F01E01E00
1E01F01E00
1E01F01E00
1E00F01E00
1E00F83E00
1E00783C00
3C007C3C00
3C007C3C00
3C003C3C00
3C003E7800
3C003E7800
7C001E7800
78001E7800
78000FF800
78000FF000
78000FF000
F80007F000
F00007F000
F00007F000
ENDCHAR
STARTCHAR nacute
ENCODING 324
SWIDTH 556 0
DWIDTH 28 0
BBX 25 37 2 0
BITMAP
00007E00
0000FC00
0000F800
0001F000
0001E000
0003C000
00038000
00070000
00000000
00000000
0001F800
03C7FC00
07CFFE00
079FFF00
07BC1F00
07F00F00
07E00F80
0FC00F80
0F800F00
0F800F00
0F000F00
1F000F00
1E001F00
1E001E00
1E001E00
1E001E00
3C003E00
3C003C00
3C003C00
3C003C00
7C007C00
78007800
78007800
78007800
78007800
F000F000
F000F000
ENDCHAR
STARTCHAR Ncommaaccent
ENCODING 325
SWIDTH 722 0
DWIDTH 36 0
BBX 35 47 2 -11
BITMAP
01F80001E0
01F80001E0
03F80003E0
03FC0003C0
03FC0003C0
03FE0003C0
03DE0003C0
03DE0007C0
079F000780
078F000780
078F800780
0787800780
0787800F00
0F07C00F00
0F03C00F00
0F03E00F00
0F03E01F00
0F01E01E00
1E01F01E00
1E01F01E00
1E00F01E00
1E00F83E00
1E00783C00
3C007C3C00
3C007C3C00
3C003C3C00
3C003E7800
3C003E7800
7C001E7800
78001E7800
78000FF800
78000FF000
78000FF000
F80007F000
F00007F000
F00007F000
0000000000
003E000000
003F800000
003F800000
0007C00000
0003C00000
0003C00000
0007C00000
01FF800000
01FF000000
03FC000000
ENDCHAR
STARTCHAR ncommaaccent
ENCODING 326
SWIDTH 556 0
DWIDTH 28 0
BBX 25 38 2 -11
BITMAP
0001F800
03C7FC00
07CFFE00
079FFF00
07BC1F00
07F00F00
07E00F80
0FC00F80
0F800F00
0F800F00
0F000F00
1F000F00
1E001F00
1E001E00
1E001E00
1E001E00
3C003E00
3C003C00
3C003C00
3C003C00
7C007C00
78007800
78007800
78007800
78007800
F000F000
F000F000
00000000
03E00000
03F80000
03F80000
007C0000
003C0000
003C0000
007C0000
1FF80000
1FF00000
3FC00000
ENDCHAR
STARTCHAR Ncaron
ENCODING 327
SWIDTH 722 0
DWIDTH 36 0
BBX 35 45 2 0
BITMAP
0001E07800
0000F0F000
0000F1E000
000073C000
00007F8000
00003F0000
00003E0000
0000000000
0000000000
01F80001E0
01F80001E0
03F80003E0
03FC0003C0
03FC0003C0
03FE0003C0
03DE0003C0
03DE0007C0
079F000780
078F000780
078F800780
0787800780
0787800F00
0F07C00F00
0F03C00F00
0F03E00F00
0F03E01F00
0F01E01E00
1E01F01E00
1E01F01E00
1E00F01E00
1E00F83E00
1E00783C00
3C007C3C00
3C007C3C00
3C003C3C00
3C003E7800
3C003E7800
7C001E7800
78001E7800
78000FF800
78000FF000
78000FF000
F80007F000
F00007F000
F00007F000
ENDCHAR
STARTCHAR ncaron
ENCODING 328
SWIDTH 556 0
DWIDTH 28 0
BBX 25 36 2 0
BITMAP
003C0F00
001E1E00
001E3C00
000E7800
000FF000
0007E000
0007C000
00000000
00000000
0001F800
03C7FC00
07CFFE00
079FFF00
07BC1F00
07F00F00
07E00F80
0FC00F80
0F800F00
0F800F00
0F000F00
1F000F00
1E001F00
1E001E00
1E001E00
1E001E00
3C003E00
3C003C00
3C003C00
3C003C00
7C007C00
78007800
78007800
78007800
78007800
F000F000
F000F000
ENDCHAR
STARTCHAR napostrophe
ENCODING 329
SWIDTH 614 0
DWIDTH 31 0
BBX 28 36 2 0
BITMAP
1E000000
1E000000
3E000000
3C000000
0C000000
0C000000
1C000000
18000000
38000000
70003F00
E078FF80
C0F9FFC0
00F3FFE0
00F783E0
00FE01E0
00FC01F0
01F801F0
01F001E0
01F001E0
01E001E0
03E001E0
03C003E0
03C003C0
03C003C0
03C003C0
078007C0
07800780
07800780
07800780
0F800F80
0F000F00
0F000F00
0F000F00
0F000F00
1E001E00
1E001E00
ENDCHAR
STARTCHAR Eng
ENCODING 330
SWIDTH 723 0
DWIDTH 36 0
BBX 34 38 2 -1
BITMAP
00003FC000
00F0FFF000
00F3FFF800
01E7FFFC00
01FFC07E00
01FF001F00
01FC000F00
01F8000F80
03F0000780
03E0000780
03E00003C0
03C00003C0
07C00003C0
07800003C0
07800003C0
07800003C0
07800003C0
0F000003C0
0F000003C0
0F000003C0
0F00000780
1E00000780
1E00000780
1E00000780
1E00000F00
1E00000F00
3C00000F00
3C00001F00
3C00001E00
3C00003E00
7800007C00
7800007C00
780000F800
780303F000
7807FFF000
F007FFC000
F00FFF8000
0001FE0000
ENDCHAR
STARTCHAR eng
ENCODING 331
SWIDTH 556 0
DWIDTH 28 0
BBX 24 37 2 -10
BITMAP
0001F8
03C7FC
078FFE
079FFF
07BC1F
07F00F
07E00F
0FC00F
0F800F
0F800F
0F000F
1F001E
1F001E
1E001E
1E001E
1E001E
3E003C
3C003C
3C003C
3C003C
7C007C
780078
780078
780078
780078
F000F0
F000F0
0000F0
0000F0
0001E0
0001E0
0001E0
0003E0
007FC0
007FC0
00FF80
007E00
ENDCHAR
STARTCHAR Omacron
ENCODING 332
SWIDTH 777 0
DWIDTH 39 0
BBX 33 42 5 -1
BITMAP
000FFFE000
001FFFE000
001FFFC000
0000000000
0003FC0000
001FFF8000
003FFFE000
00FFFFF000
01FE03F800
03F800FC00
07E0007C00
0FC0003E00
0F80001E00
1F00001F00
3E00000F00
3E00000F00
3C00000780
7C00000780
7800000780
7800000780
F800000780
F000000780
F000000780
F000000780
F000000F80
F000000F80
F000000F00
F000000F00
F000001F00
F000001E00
7800003E00
7800003C00
7800007C00
3C0000F800
3E0001F800
1F0003F000
1F800FE000
0FF03FC000
07FFFF8000
03FFFE0000
00FFF80000
001FE00000
ENDCHAR
STARTCHAR omacron
ENCODING 333
SWIDTH 556 0
DWIDTH 28 0
BBX 25 33 2 -1
BITMAP
007FFF00
00FFFF00
00FFFE00
00000000
00000000
001FC000
00FFF000
03FFF800
07FFFC00
0FE07E00
0F801F00
1F000F00
3E000F80
3C000780
7C000780
78000780
78000780
F8000780
F0000780
F0000780
F0000F80
F0000F00
F0000F00
F0001F00
F0003E00
F8003E00
78007C00
7C01FC00
3F07F800
3FFFF000
1FFFE000
07FF8000
01FC0000
ENDCHAR
STARTCHAR Obreve
ENCODING 334
SWIDTH 777 0
DWIDTH 39 0
BBX 33 46 5 -1
BITMAP
0007807800
000780F000
0007C1F000
0003FFE000
0001FFC000
0000FF8000
00007E0000
0000000000
0003FC0000
001FFF8000
003FFFE000
00FFFFF000
01FE03F800
03F800FC00
07E0007C00
0FC0003E00
0F80001E00
1F00001F00
3E00000F00
3E00000F00
3C00000780
7C00000780
7800000780
7800000780
F800000780
F000000780
F000000780
F000000780
F000000F80
F000000F80
F000000F00
F000000F00
F000001F00
F000001E00
7800003E00
7800003C00
7800007C00
3C0000F800
3E0001F800
1F0003F000
1F800FE000
0FF03FC000
07FFFF8000
03FFFE0000
00FFF80000
001FE00000
ENDCHAR
STARTCHAR obreve
ENCODING 335
SWIDTH 556 0
DWIDTH 28 0
BBX 25 37 2 -1
BITMAP
00780780
00780F00
007C1F00
003FFE00
001FFC00
000FF800
0007E000
00000000
00000000
001FC000
00FFF000
03FFF800
07FFFC00
0FE07E00
0F801F00
1F000F00
3E000F80
3C000780
7C000780
78000780
78000780
F8000780
F0000780
F0000780
F0000F80
F0000F00
F0000F00
F0001F00
F0003E00
F8003E00
78007C00
7C01FC00
3F07F800
3FFFF000
1FFFE000
07FF8000
01FC0000
ENDCHAR
STARTCHAR Ohungarumlaut
ENCODING 336
SWIDTH 777 0
DWIDTH 39 0
BBX 33 47 5 -1
BITMAP
000078F000
0000F1E000
0001E3C000
0001C38000
0003C78000
0003870000
00070E0000
000E1C0000
0000000000
0003FC0000
001FFF8000
003FFFE000
00FFFFF000
01FE03F800
03F800FC00
07E0007C00
0FC0003E00
0F80001E00
1F00001F00
3E00000F00
3E00000F00
3C00000780
7C00000780
7800000780
7800000780
F800000780
F000000780
F000000780
F000000780
F000000F80
F000000F80
F000000F00
F000000F00
F000001F00
F000001E00
7800003E00
7800003C00
7800007C00
3C0000F800
3E0001F800
1F0003F000
1F800FE000
0FF03FC000
07FFFF8000
03FFFE0000
00FFF80000
001FE00000
ENDCHAR
STARTCHAR ohungarumlaut
ENCODING 337
SWIDTH 556 0
DWIDTH 28 0
BBX 25 38 2 -1
BITMAP
0003C780
00078F00
000F1E00
000E1C00
001E3C00
001C3800
00387000
0070E000
00000000
00000000
001FC000
00FFF000
03FFF800
07FFFC00
0FE07E00
0F801F00
1F000F00
3E000F80
3C000780
7C000780
78000780
78000780
F8000780
F0000780
F0000780
F0000F80
F0000F00
F0000F00
F0001F00
F0003E00
F8003E00
78007C00
7C01FC00
3F07F800
3FFFF000
1FFFE000
07FF8000
01FC0000
ENDCHAR
STARTCHAR OE
ENCODING 338
SWIDTH 1000 0
DWIDTH 50 0
BBX 50 38 4 -1
BITMAP
0001FC00000000
000FFF07FFFFC0
003FFF87FFFFC0
00FFFFEFFFFFC0
01FE07EFFFFF80
03F801FF000000
07E000FF000000
07C0007F000000
0F80007E000000
1F00003E000000
1E00003E000000
3E00003E000000
3C00003C000000
7C00003C000000
7800003C000000
7800003C000000
7800003C000000
F800007FFFFC00
F000007FFFFC00
F000007FFFFC00
F000007FFFF800
F00000F0000000
F00000F0000000
F00000F0000000
F00000F0000000
F00001F0000000
F00001E0000000
F80003E0000000
780003E0000000
780007E0000000
7C0007E0000000
3E000FC0000000
3F003FC0000000
1FC0FFFFFFF000
0FFFFFFFFFF000
07FFFFFFFFE000
01FFE7FFFFE000
007F8000000000
ENDCHAR
STARTCHAR oe
ENCODING 339
SWIDTH 943 0
DWIDTH 47 0
BBX 43 28 3 -1
BITMAP
003F8003F000
00FFF01FFC00
03FFF83FFF00
07FFFC7FFF80
0FE0FEFE0F80
1F803FF807C0
1F001FE003C0
3E001FE001E0
3C000FC001E0
7C000F8001E0
78000F8001E0
78000FFFFFE0
F8000FFFFFE0
F0000FFFFFE0
F0000FFFFFE0
F0001F000000
F0001F000000
F0001F000000
F0003F000000
F0003F0003C0
F8007F800780
7800FF800F80
7C01FFC01F00
3F07F7F07E00
3FFFE3FFFC00
1FFFC1FFF800
0FFF00FFE000
01FC003F8000
ENDCHAR
STARTCHAR Racute
ENCODING 340
SWIDTH 722 0
DWIDTH 36 0
BBX 34 46 2 0
BITMAP
00000FC000
00001F8000
00001F0000
00003E0000
00003C0000
0000780000
0000700000
0000E00000
0000000000
0000000000
01FFFFF000
01FFFFFE00
03FFFFFF00
03FFFFFF80
03C0001F80
03C00007C0
03C00007C0
03C00003C0
07800003C0
07800003C0
07800003C0
07800007C0
0780000780
0F00000F80
0F00001F80
0F00007F00
0FFFFFFE00
0FFFFFFC00
1FFFFFF000
1FFFFF8000
1E003E0000
1E000F0000
1E00078000
3C0003C000
3C0003C000
3C0001E000
3C0001E000
3C0000F000
7C0000F000
780000F800
7800007800
7800007C00
7800003C00
F800003E00
F000001E00
F000001E00
ENDCHAR
STARTCHAR racute
ENCODING 341
SWIDTH 333 0
DWIDTH 17 0
BBX 19 37 2 0
BITMAP
0007E0
000FC0
000F80
001F00
001E00
003C00
003800
007000
000000
000000
0007C0
078FE0
079FC0
073FC0
0F7880
0FE000
0FC000
0F8000
0F8000
1F0000
1F0000
1E0000
1E0000
1E0000
3E0000
3C0000
3C0000
3C0000
3C0000
7C0000
780000
780000
780000
780000
F80000
F00000
F00000
ENDCHAR
STARTCHAR Rcommaaccent
ENCODING 342
SWIDTH 722 0
DWIDTH 36 0
BBX 34 47 2 -11
BITMAP
01FFFFF000
01FFFFFE00
03FFFFFF00
03FFFFFF80
03C0001F80
03C00007C0
03C00007C0
03C00003C0
07800003C0
07800003C0
07800003C0
07800007C0
0780000780
0F00000F80
0F00001F80
0F00007F00
0FFFFFFE00
0FFFFFFC00
1FFFFFF000
1FFFFF8000
1E003E0000
1E000F0000
1E00078000
3C0003C000
3C0003C000
3C0001E000
3C0001E000
3C0000F000
7C0000F000
780000F800
7800007800
7800007C00
7800003C00
F800003E00
F000001E00
F000001E00
0000000000
003E000000
003F800000
003F800000
0007C00000
0003C00000
0003C00000
0007C00000
01FF800000
01FF000000
03FC000000
ENDCHAR
STARTCHAR rcommaaccent
ENCODING 343
SWIDTH 333 0
DWIDTH 17 0
BBX 23 38 -2 -11
BITMAP
00007C
0078FE
0079FC
0073FC
00F788
00FE00
00FC00
00F800
00F800
01F000
01F000
01E000
01E000
01E000
03E000
03C000
03C000
03C000
03C000
07C000
078000
078000
078000
078000
0F8000
0F0000
0F0000
000000
0F8000
0FE000
0FE000
01F000
00F000
00F000
01F000
7FE000
7FC000
FF0000
ENDCHAR
STARTCHAR Rcaron
ENCODING 344
SWIDTH 722 0
DWIDTH 36 0
BBX 34 45 2 0
BITMAP
0003C0F000
0001E1E000
0001E3C000
0000E78000
0000FF0000
00007E0000
00007C0000
0000000000
0000000000
01FFFFF000
01FFFFFE00
03FFFFFF00
03FFFFFF80
03C0001F80
03C00007C0
03C00007C0
03C00003C0
07800003C0
07800003C0
07800003C0
07800007C0
0780000780
0F00000F80
0F00001F80
0F00007F00
0FFFFFFE00
0FFFFFFC00
1FFFFFF000
1FFFFF8000
1E003E0000
1E000F0000
1E00078000
3C0003C000
3C0003C000
3C0001E000
3C0001E000
3C0000F000
7C0000F000
780000F800
7800007800
7800007C00
7800003C00
F800003E00
F000001E00
F000001E00
ENDCHAR
STARTCHAR rcaron
ENCODING 345
SWIDTH 333 0
DWIDTH 17 0
BBX 20 36 2 0
BITMAP
03C0F0
01E1E0
01E3C0
00E780
00FF00
007E00
007C00
000000
000000
0007C0
078FE0
079FC0
073FC0
0F7880
0FE000
0FC000
0F8000
0F8000
1F0000
1F0000
1E0000
1E0000
1E0000
3E0000
3C0000
3C0000
3C0000
3C0000
7C0000
780000
780000
780000
780000
F80000
F00000
F00000
ENDCHAR
STARTCHAR Sacute
ENCODING 346
SWIDTH 666 0
DWIDTH 33 0
BBX 29 47 4 -1
BITMAP
00001F80
00003F00
00003E00
00007C00
00007800
0000F000
0000E000
0001C000
00000000
000FF000
007FFE00
00FFFF80
03FFFFC0
03F01FE0
07C003E0
078001F0
0F0000F0
0F0000F8
0F000078
0F000078
0F000078
0F800000
07C00000
07F00000
03FC0000
01FF0000
007FE000
003FF800
000FFE00
0001FF00
00007F80
00001FC0
000007C0
000003E0
300003E0
F00001E0
F00001E0
F00001E0
F80001E0
780003C0
7C0007C0
7E000F80
3FC03F80
1FFFFF00
0FFFFE00
03FFF800
007FC000
ENDCHAR
STARTCHAR sacute
ENCODING 347
SWIDTH 500 0
DWIDTH 25 0
BBX 23 38 2 -1
BITMAP
0001F8
0003F0
0003E0
0007C0
000780
000F00
000E00
001C00
000000
000000
007F80
01FFE0
07FFF8
0FFFF8
0F80FC
1F003E
1E001E
1E001E
1F0000
1FC000
0FF000
0FFC00
07FF00
01FFC0
007FE0
001FF0
0007F0
0001F8
F000F8
F00078
F00078
F80078
7C00F0
7F03F0
3FFFE0
1FFFC0
0FFF80
01FC00
ENDCHAR
STARTCHAR Scircumflex
ENCODING 348
SWIDTH 666 0
DWIDTH 33 0
BBX 29 46 4 -1
BITMAP
0000F800
0001F800
0003FC00
0007BC00
000F1E00
001E1E00
003C0F00
00000000
000FF000
007FFE00
00FFFF80
03FFFFC0
03F01FE0
07C003E0
078001F0
0F0000F0
0F0000F8
0F000078
0F000078
0F000078
0F800000
07C00000
07F00000
03FC0000
01FF0000
007FE000
003FF800
000FFE00
0001FF00
00007F80
00001FC0
000007C0
000003E0
300003E0
F00001E0
F00001E0
F00001E0
F80001E0
780003C0
7C0007C0
7E000F80
3FC03F80
1FFFFF00
0FFFFE00
03FFF800
007FC000
ENDCHAR
STARTCHAR scircumflex
ENCODING 349
SWIDTH 500 0
DWIDTH 25 0
BBX 23 37 2 -1
BITMAP
0007C0
000FC0
001FE0
003DE0
0078F0
00F0F0
01E078
000000
000000
007F80
01FFE0
07FFF8
0FFFF8
0F80FC
1F003E
1E001E
1E001E
1F0000
1FC000
0FF000
0FFC00
07FF00
01FFC0
007FE0
001FF0
0007F0
0001F8
F000F8
F00078
F00078
F80078
7C00F0
7F03F0
3FFFE0
1FFFC0
0FFF80
01FC00
ENDCHAR
STARTCHAR Scedilla
ENCODING 350
SWIDTH 666 0
DWIDTH 33 0
BBX 29 47 4 -10
BITMAP
000FF000
007FFE00
00FFFF80
03FFFFC0
03F01FE0
07C003E0
078001F0
0F0000F0
0F0000F8
0F000078
0F000078
0F000078
0F800000
07C00000
07F00000
03FC0000
01FF0000
007FE000
003FF800
000FFE00
0001FF00
00007F80
00001FC0
000007C0
000003E0
300003E0
F00001E0
F00001E0
F00001E0
F80001E0
780003C0
7C0007C0
7E000F80
3FC03F80
1FFFFF00
0FFFFE00
03FFF800
007FC000
00380000
007E0000
000F0000
00078000
00078000
000F8000
07FF8000
07FF0000
07F80000
ENDCHAR
STARTCHAR scedilla
ENCODING 351
SWIDTH 500 0
DWIDTH 25 0
BBX 23 37 2 -10
BITMAP
007F80
01FFE0
07FFF8
0FFFF8
0F80FC
1F003E
1E001E
1E001E
1F0000
1FC000
0FF000
0FFC00
07FF00
01FFC0
007FE0
001FF0
0007F0
0001F8
F000F8
F00078
F00078
F80078
7C00F0
7F03F0
3FFFE0
1FFFC0
0FFF80
01FC00
01C000
03F000
007800
003C00
003C00
007C00
3FFC00
3FF800
3FC000
ENDCHAR
STARTCHAR Scaron
ENCODING 352
SWIDTH 666 0
DWIDTH 33 0
BBX 29 46 4 -1
BITMAP
001E0780
000F0F00
000F1E00
00073C00
0007F800
0003F000
0003E000
00000000
000FF000
007FFE00
00FFFF80
03FFFFC0
03F01FE0
07C003E0
078001F0
0F0000F0
0F0000F8
0F000078
0F000078
0F000078
0F800000
07C00000
07F00000
03FC0000
01FF0000
007FE000
003FF800
000FFE00
0001FF00
00007F80
00001FC0
000007C0
000003E0
300003E0
F00001E0
F00001E0
F00001E0
F80001E0
780003C0
7C0007C0
7E000F80
3FC03F80
1FFFFF00
0FFFFE00
03FFF800
007FC000
ENDCHAR
STARTCHAR scaron
ENCODING 353
SWIDTH 500 0
DWIDTH 25 0
BBX 23 37 2 -1
BITMAP
00F03C
007878
0078F0
0039E0
003FC0
001F80
001F00
000000
000000
007F80
01FFE0
07FFF8
0FFFF8
0F80FC
1F003E
1E001E
1E001E
1F0000
1FC000
0FF000
0FFC00
07FF00
01FFC0
007FE0
001FF0
0007F0
0001F8
F000F8
F00078
F00078
F80078
7C00F0
7F03F0
3FFFE0
1FFFC0
0FFF80
01FC00
ENDCHAR
STARTCHAR Tcommaaccent
ENCODING 354
SWIDTH 610 0
DWIDTH 31 0
BBX 30 46 6 -10
BITMAP
7FFFFFFC
7FFFFFF8
7FFFFFF8
FFFFFFF8
00078000
00078000
000F8000
000F0000
000F0000
000F0000
000F0000
001E0000
001E0000
001E0000
001E0000
001E0000
003C0000
003C0000
003C0000
003C0000
00780000
00780000
00780000
00780000
00780000
00F00000
00F00000
00F00000
00F00000
01F00000
01E00000
01E00000
01E00000
01E00000
03C00000
03C00000
01C00000
01C00000
03F00000
00780000
003C0000
003C0000
007C0000
3FFC0000
3FF80000
3FC00000
ENDCHAR
STARTCHAR tcommaaccent
ENCODING 355
SWIDTH 277 0
DWIDTH 14 0
BBX 16 46 0 -10
BITMAP
0008
0018
0078
00F0
00F0
00F0
00F0
01F0
01E0
01E0
0FFF
0FFF
1FFE
1FFE
03C0
03C0
0780
0780
0780
0780
0780
0700
0F00
0F00
0F00
0F00
0E00
1E00
1E00
1E00
1E00
1E00
3E00
3FE0
1FE0
1FC0
07C0
0700
0FC0
01E0
00F0
00F0
01F0
FFF0
FFE0
FF00
ENDCHAR
STARTCHAR Tcaron
ENCODING 356
SWIDTH 610 0
DWIDTH 31 0
BBX 30 45 6 0
BITMAP
003C0F00
001E1E00
001E3C00
000E7800
000FF000
0007E000
0007C000
00000000
00000000
7FFFFFFC
7FFFFFF8
7FFFFFF8
FFFFFFF8
00078000
00078000
000F8000
000F0000
000F0000
000F0000
000F0000
001E0000
001E0000
001E0000
001E0000
001E0000
003C0000
003C0000
003C0000
003C0000
00780000
00780000
00780000
00780000
00780000
00F00000
00F00000
00F00000
00F00000
01F00000
01E00000
01E00000
01E00000
01E00000
03C00000
03C00000
ENDCHAR
STARTCHAR tcaron
ENCODING 357
SWIDTH 354 0
DWIDTH 18 0
BBX 20 37 2 -1
BITMAP
0020F0
0060F0
01E1E0
03C1E0
03C060
03C060
03C040
07C0C0
078180
078380
3FFE00
3FFC00
7FF800
7FF800
0F0000
0F0000
1E0000
1E0000
1E0000
1E0000
1E0000
1C0000
3C0000
3C0000
3C0000
3C0000
380000
780000
780000
780000
780000
780000
F80000
FF8000
7F8000
7F0000
1F0000
ENDCHAR
STARTCHAR Tbar
ENCODING 358
SWIDTH 610 0
DWIDTH 31 0
BBX 30 36 5 0
BITMAP
3FFFFFFC
3FFFFFFC
7FFFFFF8
7FFFFFF8
00078000
00078000
000F8000
000F0000
000F0000
000F0000
000F0000
001E0000
001E0000
001E0000
001E0000
001E0000
003C0000
7FFFFE00
7FFFFE00
FFFFFC00
00780000
00780000
00780000
00780000
00780000
00F00000
00F00000
00F00000
00F00000
01F00000
01E00000
01E00000
01E00000
01E00000
03C00000
03C00000
ENDCHAR
STARTCHAR tbar
ENCODING 359
SWIDTH 277 0
DWIDTH 14 0
BBX 16 37 0 -1
BITMAP
0004
000C
0038
0078
0078
0078
00F8
00F0
00F0
00F0
0FFF
0FFF
0FFF
1FFE
01E0
03E0
03C0
03C0
03C0
03C0
0780
7FFE
7FFC
7FFC
FFFC
0F00
0F00
0F00
0F00
1F00
1E00
1E00
1F00
1FF0
1FE0
0FE0
07E0
ENDCHAR
STARTCHAR Utilde
ENCODING 360
SWIDTH 722 0
DWIDTH 36 0
BBX 32 46 5 -1
BITMAP
0003C070
0007F070
000FF8F0
000FFFE0
000E7FE0
001C1FC0
001C0780
00000000
00000000
0780000F
0780000F
0780000F
0F00001E
0F00001E
0F00001E
0F00001E
1F00001E
1E00003C
1E00003C
1E00003C
1E00003C
3E00007C
3C000078
3C000078
3C000078
3C000078
7C0000F8
780000F0
780000F0
780000F0
780000F0
F80001F0
F00001E0
F00001E0
F00003E0
F00003C0
F00003C0
F00007C0
F8000F80
7C001F80
7E003F00
3F80FE00
1FFFFC00
0FFFF800
03FFE000
00FF8000
ENDCHAR
STARTCHAR utilde
ENCODING 361
SWIDTH 556 0
DWIDTH 28 0
BBX 25 37 3 -1
BITMAP
003C0700
007F0700
00FF8F00
00FFFE00
00E7FE00
01C1FC00
01C07800
00000000
00000000
00000000
07800780
0F000F80
0F000F00
0F000F00
0F000F00
1F000F00
1E001E00
1E001E00
1E001E00
3E001E00
3C003E00
3C003C00
3C003C00
3C003C00
78007C00
78007800
78007800
7800F800
F800F800
F001F800
F003F000
F807F000
FC1EF000
7FFCF000
7FF9E000
3FE1E000
0F800000
ENDCHAR
STARTCHAR Umacron
ENCODING 362
SWIDTH 722 0
DWIDTH 36 0
BBX 32 42 5 -1
BITMAP
000FFFE0
001FFFE0
001FFFC0
00000000
00000000
0780000F
0780000F
0780000F
0F00001E
0F00001E
0F00001E
0F00001E
1F00001E
1E00003C
1E00003C
1E00003C
1E00003C
3E00007C
3C000078
3C000078
3C000078
3C000078
7C0000F8
780000F0
780000F0
780000F0
780000F0
F80001F0
F00001E0
F00001E0
F00003E0
F00003C0
F00003C0
F00007C0
F8000F80
7C001F80
7E003F00
3F80FE00
1FFFFC00
0FFFF800
03FFE000
00FF8000
ENDCHAR
STARTCHAR umacron
ENCODING 363
SWIDTH 556 0
DWIDTH 28 0
BBX 25 33 3 -1
BITMAP
007FFF00
00FFFF00
00FFFE00
00000000
00000000
00000000
07800780
0F000F80
0F000F00
0F000F00
0F000F00
1F000F00
1E001E00
1E001E00
1E001E00
3E001E00
3C003E00
3C003C00
3C003C00
3C003C00
78007C00
78007800
78007800
7800F800
F800F800
F001F800
F003F000
F807F000
FC1EF000
7FFCF000
7FF9E000
3FE1E000
0F800000
ENDCHAR
STARTCHAR Ubreve
ENCODING 364
SWIDTH 722 0
DWIDTH 36 0
BBX 32 46 5 -1
BITMAP
000F00F0
000F01E0
000F83E0
0007FFC0
0003FF80
0001FF00
0000FC00
00000000
00000000
0780000F
0780000F
0780000F
0F00001E
0F00001E
0F00001E
0F00001E
1F00001E
1E00003C
1E00003C
1E00003C
1E00003C
3E00007C
3C000078
3C000078
3C000078
3C000078
7C0000F8
780000F0
780000F0
780000F0
780000F0
F80001F0
F00001E0
F00001E0
F00003E0
F00003C0
F00003C0
F00007C0
F8000F80
7C001F80
7E003F00
3F80FE00
1FFFFC00
0FFFF800
03FFE000
00FF8000
ENDCHAR
STARTCHAR ubreve
ENCODING 365
SWIDTH 556 0
DWIDTH 28 0
BBX 25 37 3 -1
BITMAP
00F00F00
00F01E00
00F83E00
007FFC00
003FF800
001FF000
000FC000
00000000
00000000
00000000
07800780
0F000F80
0F000F00
0F000F00
0F000F00
1F000F00
1E001E00
1E001E00
1E001E00
3E001E00
3C003E00
3C003C00
3C003C00
3C003C00
78007C00
78007800
78007800
7800F800
F800F800
F001F800
F003F000
F807F000
FC1EF000
7FFCF000
7FF9E000
3FE1E000
0F800000
ENDCHAR
STARTCHAR Uring
ENCODING 366
SWIDTH 722 0
DWIDTH 36 0
BBX 32 47 5 -1
BITMAP
0000F800
0001FC00
00038E00
00030600
00030600
00030600
00038E00
0001FC00
0000F800
00000000
0780000F
0780000F
0780000F
0F00001E
0F00001E
0F00001E
0F00001E
1F00001E
1E00003C
1E00003C
1E00003C
1E00003C
3E00007C
3C000078
3C000078
3C000078
3C000078
7C0000F8
780000F0
780000F0
780000F0
780000F0
F80001F0
F00001E0
F00001E0
F00003E0
F00003C0
F00003C0
F00007C0
F8000F80
7C001F80
7E003F00
3F80FE00
1FFFFC00
0FFFF800
03FFE000
00FF8000
ENDCHAR
STARTCHAR uring
ENCODING 367
SWIDTH 556 0
DWIDTH 28 0
BBX 25 39 3 -1
BITMAP
000F8000
001FC000
0038E000
00306000
00306000
00306000
0038E000
001FC000
000F8000
00000000
00000000
00000000
07800780
0F000F80
0F000F00
0F000F00
0F000F00
1F000F00
1E001E00
1E001E00
1E001E00
3E001E00
3C003E00
3C003C00
3C003C00
3C003C00
78007C00
78007800
78007800
7800F800
F800F800
F001F800
F003F000
F807F000
FC1EF000
7FFCF000
7FF9E000
3FE1E000
0F800000
ENDCHAR
STARTCHAR Uhungarumlaut
ENCODING 368
SWIDTH 722 0
DWIDTH 36 0
BBX 32 47 5 -1
BITMAP
00003C78
000078F0
0000F1E0
0000E1C0
0001E3C0
0001C380
00038700
00070E00
00000000
00000000
0780000F
0780000F
0780000F
0F00001E
0F00001E
0F00001E
0F00001E
1F00001E
1E00003C
1E00003C
1E00003C
1E00003C
3E00007C
3C000078
3C000078
3C000078
3C000078
7C0000F8
780000F0
780000F0
780000F0
780000F0
F80001F0
F00001E0
F00001E0
F00003E0
F00003C0
F00003C0
F00007C0
F8000F80
7C001F80
7E003F00
3F80FE00
1FFFFC00
0FFFF800
03FFE000
00FF8000
ENDCHAR
STARTCHAR uhungarumlaut
ENCODING 369
SWIDTH 556 0
DWIDTH 28 0
BBX 25 38 3 -1
BITMAP
0003C780
00078F00
000F1E00
000E1C00
001E3C00
001C3800
00387000
0070E000
00000000
00000000
00000000
07800780
0F000F80
0F000F00
0F000F00
0F000F00
1F000F00
1E001E00
1E001E00
1E001E00
3E001E00
3C003E00
3C003C00
3C003C00
3C003C00
78007C00
78007800
78007800
7800F800
F800F800
F001F800
F003F000
F807F000
FC1EF000
7FFCF000
7FF9E000
3FE1E000
0F800000
ENDCHAR
STARTCHAR Uogonek
ENCODING 370
SWIDTH 722 0
DWIDTH 36 0
BBX 32 47 5 -11
BITMAP
0780000F
0780000F
0780000F
0F00001E
0F00001E
0F00001E
0F00001E
1F00001E
1E00003C
1E00003C
1E00003C
1E00003C
3E00007C
3C000078
3C000078
3C000078
3C000078
7C0000F8
780000F0
780000F0
780000F0
780000F0
F80001F0
F00001E0
F00001E0
F00003E0
F00003C0
F00003C0
F00007C0
F8000F80
7C001F80
7E003F00
3F80FE00
1FFFFC00
0FFFF800
03FFE000
00FF8000
000E0000
000C0000
001C0000
00180000
00380000
00380000
003C4000
003F8000
001F8000
000F0000
ENDCHAR
STARTCHAR uogonek
ENCODING 371
SWIDTH 556 0
DWIDTH 28 0
BBX 25 37 3 -11
BITMAP
07800780
0F000F80
0F000F00
0F000F00
0F000F00
1F000F00
1E001E00
1E001E00
1E001E00
3E001E00
3C003E00
3C003C00
3C003C00
3C003C00
78007C00
78007800
78007800
7800F800
F800F800
F001F800
F003F000
F807F000
FC1EF000
7FFCF000
7FF9E000
3FE1E000
0F81C000
00038000
00030000
00070000
00060000
000E0000
000E0000
000F1000
000FE000
0007E000
0003C000
ENDCHAR
STARTCHAR Wcircumflex
ENCODING 372
SWIDTH 943 0
DWIDTH 48 0
BBX 47 45 6 0
BITMAP
000001F00000
000003F00000
000007F80000
00000F780000
00001E3C0000
00003C3C0000
0000781E0000
000000000000
000000000000
F00007C0001E
F00007C0003E
F0000FC0003C
F0000FC0007C
F0001FC00078
F0003FC000F8
F0003FC000F0
F8007BE001F0
F8007BE001E0
7800FBE003E0
7800F3E003C0
7801F3E007C0
7801E3E00780
7803E3E00F80
7803C1E00F00
7807C1E01F00
780781E01E00
780F81E03E00
780F01E03C00
781F01E07C00
781E01E07800
783E01E0F800
7C3C01E0F000
7C7C01F1F000
7C7801F1E000
7CF001F3E000
7CF001F3C000
3CE001F7C000
3DE001F78000
3DC000F78000
3FC000FF0000
3F8000FE0000
3F8000FE0000
3F0000FC0000
3F0000FC0000
3E0000F80000
ENDCHAR
STARTCHAR wcircumflex
ENCODING 373
SWIDTH 722 0
DWIDTH 36 0
BBX 34 36 4 0
BITMAP
00007C0000
0000FC0000
0001FE0000
0003DE0000
00078F0000
000F0F0000
001E078000
0000000000
0000000000
0000000000
F001F003C0
F003F003C0
F003F00780
F003F00780
7807F00780
7807700F00
780F700F00
780E781E00
780E781E00
781E781C00
781C783C00
781C783800
7838787800
3C38787800
3C78787000
3C7078F000
3C7078E000
3CE039E000
3CE039C000
3CE039C000
3DC03B8000
3FC03F8000
1F803F8000
1F803F0000
1F803F0000
1F003E0000
ENDCHAR
STARTCHAR Ycircumflex
ENCODING 374
SWIDTH 666 0
DWIDTH 33 0
BBX 30 45 7 0
BITMAP
0003E000
0007E000
000FF000
001EF000
003C7800
00787800
00F03C00
00000000
00000000
F000007C
F8000078
780000F0
7C0001F0
3C0003E0
3C0003C0
1E0007C0
1E000F80
1F000F00
0F001F00
0F803E00
07807C00
07C07800
03C0F800
03E1F000
01E1E000
01F3E000
00F7C000
00FF8000
007F0000
007F0000
003E0000
003C0000
003C0000
003C0000
00780000
00780000
00780000
00780000
00F80000
00F00000
00F00000
00F00000
00F00000
01E00000
01E00000
ENDCHAR
STARTCHAR ycircumflex
ENCODING 375
SWIDTH 500 0
DWIDTH 25 0
BBX 27 46 0 -10
BITMAP
0000F800
0001F800
0003FC00
0007BC00
000F1E00
001E1E00
003C0F00
00000000
00000000
00000000
078001E0
078003E0
078003C0
03C007C0
03C00780
03C00F00
03C01F00
03C01E00
03C03E00
03C03C00
01E07C00
01E07800
01E0F800
01E0F000
01E1F000
01E1E000
01E3C000
00E7C000
00F78000
00FF8000
00FF0000
00FF0000
00FE0000
00FE0000
007C0000
007C0000
00780000
00F00000
01F00000
01E00000
03E00000
07C00000
FF800000
FF800000
FE000000
FC000000
ENDCHAR
STARTCHAR Ydieresis
ENCODING 376
SWIDTH 666 0
DWIDTH 33 0
BBX 30 42 7 0
BITMAP
003C3C00
003C3C00
00787800
00787800
00000000
00000000
F000007C
F8000078
780000F0
7C0001F0
3C0003E0
3C0003C0
1E0007C0
1E000F80
1F000F00
0F001F00
0F803E00
07807C00
07C07800
03C0F800
03E1F000
01E1E000
01F3E000
00F7C000
00FF8000
007F0000
007F0000
003E0000
003C0000
003C0000
003C0000
00780000
00780000
00780000
00780000
00F80000
00F00000
00F00000
00F00000
00F00000
01E00000
01E00000
ENDCHAR
STARTCHAR Zacute
ENCODING 377
SWIDTH 610 0
DWIDTH 31 0
BBX 32 46 1 0
BITMAP
00001F80
00003F00
00003E00
00007C00
00007800
0000F000
0000E000
0001C000
00000000
00000000
03FFFFFF
03FFFFFF
03FFFFFF
03FFFFFE
0000003E
0000007C
000000F8
000001F0
000003E0
000007C0
00000F80
00000F00
00001F00
00003E00
00007C00
0000F800
0001F000
0003E000
0003C000
0007C000
000F8000
001F0000
003E0000
007C0000
00F80000
01F00000
01E00000
03E00000
07C00000
0F800000
1F000000
3E000000
7FFFFFF0
7FFFFFF0
FFFFFFF0
FFFFFFE0
ENDCHAR
STARTCHAR zacute
ENCODING 378
SWIDTH 500 0
DWIDTH 23 0
BBX 23 37 1 0
BITMAP
0000FC
0001F8
0001F0
0003E0
0003C0
000780
000700
000E00
000000
000000
000000
0FFFFE
0FFFFE
1FFFFC
1FFFFC
0000F8
0001F0
0003E0
0003C0
0007C0
000F80
001F00
003E00
007C00
00F800
01F000
03E000
03E000
07C000
0F8000
1F0000
3E0000
7C0000
7FFFF0
FFFFF0
FFFFE0
FFFFE0
ENDCHAR
STARTCHAR Zdotaccent
ENCODING 379
SWIDTH 610 0
DWIDTH 31 0
BBX 32 42 1 0
BITMAP
00003C00
00003C00
00007800
00007800
00000000
00000000
03FFFFFF
03FFFFFF
03FFFFFF
03FFFFFE
0000003E
0000007C
000000F8
000001F0
000003E0
000007C0
00000F80
00000F00
00001F00
00003E00
00007C00
0000F800
0001F000
0003E000
0003C000
0007C000
000F8000
001F0000
003E0000
007C0000
00F80000
01F00000
01E00000
03E00000
07C00000
0F800000
1F000000
3E000000
7FFFFFF0
7FFFFFF0
FFFFFFF0
FFFFFFE0
ENDCHAR
STARTCHAR zdotaccent
ENCODING 380
SWIDTH 500 0
DWIDTH 23 0
BBX 23 33 1 0
BITMAP
000780
000780
000F00
000F00
000000
000000
000000
0FFFFE
0FFFFE
1FFFFC
1FFFFC
0000F8
0001F0
0003E0
0003C0
0007C0
000F80
001F00
003E00
007C00
00F800
01F000
03E000
03E000
07C000
0F8000
1F0000
3E0000
7C0000
7FFFF0
FFFFF0
FFFFE0
FFFFE0
ENDCHAR
STARTCHAR Zcaron
ENCODING 381
SWIDTH 610 0
DWIDTH 31 0
BBX 32 45 1 0
BITMAP
000781E0
0003C3C0
0003C780
0001CF00
0001FE00
0000FC00
0000F800
00000000
00000000
03FFFFFF
03FFFFFF
03FFFFFF
03FFFFFE
0000003E
0000007C
000000F8
000001F0
000003E0
000007C0
00000F80
00000F00
00001F00
00003E00
00007C00
0000F800
0001F000
0003E000
0003C000
0007C000
000F8000
001F0000
003E0000
007C0000
00F80000
01F00000
01E00000
03E00000
07C00000
0F800000
1F000000
3E000000
7FFFFFF0
7FFFFFF0
FFFFFFF0
FFFFFFE0
ENDCHAR
STARTCHAR zcaron
ENCODING 382
SWIDTH 500 0
DWIDTH 23 0
BBX 23 36 1 0
BITMAP
00F03C
007878
0078F0
0039E0
003FC0
001F80
001F00
000000
000000
000000
0FFFFE
0FFFFE
1FFFFC
1FFFFC
0000F8
0001F0
0003E0
0003C0
0007C0
000F80
001F00
003E00
007C00
00F800
01F000
03E000
03E000
07C000
0F8000
1F0000
3E0000
7C0000
7FFFF0
FFFFF0
FFFFE0
FFFFE0
ENDCHAR
STARTCHAR longs
ENCODING 383
SWIDTH 222 0
DWIDTH 11 0
BBX 18 36 1 0
BITMAP
003F80
007FC0
00FF80
01FF80
01F000
01E000
01E000
03C000
03C000
03C000
03C000
07C000
078000
078000
078000
078000
0F0000
0F0000
0F0000
0F0000
1F0000
1E0000
1E0000
1E0000
1E0000
3C0000
3C0000
3C0000
3C0000
7C0000
780000
780000
780000
780000
F00000
F00000
ENDCHAR
STARTCHAR uni0180
ENCODING 384
SWIDTH 556 0
DWIDTH 28 0
BBX 25 37 2 -1
BITMAP
01E00000
01E00000
01E00000
0FFFF000
0FFFF000
0FFFF000
1FFFE000
03C00000
03C00000
07C3E000
078FF800
07BFFC00
07FFFE00
07F83F00
0FE01F00
0FC00F00
0FC00F80
0F800780
0F000780
1F000780
1F000780
1E000780
1E000780
1E000780
3E000F80
3E000F00
3E000F00
3E001F00
3E001E00
7E003E00
7F007C00
7F00FC00
7FC1F800
7BFFF000
F1FFE000
F0FF8000
003E0000
ENDCHAR
STARTCHAR uni0181
ENCODING 385
SWIDTH 730 0
DWIDTH 37 0
BBX 34 36 3 0
BITMAP
07FFFFE000
1FFFFFFC00
7FFFFFFE00
7FFFFFFF00
FC78001F80
F8F00007C0
F0F00007C0
F0F00003C0
F0F00003C0
01F00003C0
01E00003C0
01E0000780
01E0000F80
01E0001F00
03E000FE00
03FFFFFC00
03FFFFF000
03FFFFF800
03FFFFFC00
0780007E00
0780001F00
0780000F80
0780000780
0780000780
0F00000780
0F00000780
0F00000780
0F00000F80
0F00000F00
1E00001F00
1E00007E00
1E0001FC00
1FFFFFF800
1FFFFFF000
3FFFFFE000
3FFFFF0000
ENDCHAR
STARTCHAR uni0182
ENCODING 386
SWIDTH 650 0
DWIDTH 33 0
BBX 32 36 2 0
BITMAP
01FFFFFF
01FFFFFF
01FFFFFE
01FFFFFE
01E00000
03E00000
03C00000
03C00000
03C00000
03C00000
07800000
07800000
07800000
07800000
07800000
0FFFFE00
0FFFFFC0
0FFFFFE0
0FFFFFF0
1F0003F8
1E000078
1E00007C
1E00003C
1E00003C
3E00003C
3C00003C
3C00007C
3C000078
3C0000F8
780001F0
780003F0
78003FE0
7FFFFFC0
7FFFFF80
FFFFFE00
FFFFF000
ENDCHAR
STARTCHAR uni0183
ENCODING 387
SWIDTH 556 0
DWIDTH 28 0
BBX 25 37 2 -1
BITMAP
01FFFE00
01FFFE00
01FFFC00
01FFFC00
01E00000
03C00000
03C00000
03C00000
03C00000
07C3E000
078FF800
07BFFC00
07FFFE00
07F83F00
0FE01F00
0FC00F00
0FC00F80
0F800780
0F000780
1F000780
1F000780
1E000780
1E000780
1E000780
3E000F80
3E000F00
3E000F00
3E001F00
3E001E00
7E003E00
7F007C00
7F00FC00
7FC1F800
7BFFF000
F1FFE000
F0FF8000
003E0000
ENDCHAR
STARTCHAR uni0184
ENCODING 388
SWIDTH 650 0
DWIDTH 33 0
BBX 30 36 2 0
BITMAP
00200000
00600000
01E00000
03E00000
07E00000
1FC00000
3FC00000
3FC00000
1FC00000
0FC00000
07800000
07800000
07800000
07800000
0F800000
0FFFFE00
0FFFFFC0
0FFFFFE0
0FFFFFF0
1F0003F8
1E000078
1E00007C
1E00003C
1E00003C
3C00003C
3C00003C
3C00007C
3C000078
3C0000F8
780001F0
780003F0
78003FE0
7FFFFFC0
7FFFFF80
FFFFFE00
FFFFF000
ENDCHAR
STARTCHAR uni0185
ENCODING 389
SWIDTH 556 0
DWIDTH 28 0
BBX 25 37 2 -1
BITMAP
00200000
00E00000
01E00000
07E00000
1FE00000
1FC00000
0FC00000
07C00000
07C00000
07C3E000
078FF800
07BFFC00
07FFFE00
07F83F00
0FE01F00
0FC00F00
0FC00F80
0F800780
0F000780
1F000780
1F000780
1E000780
1E000780
1E000780
3E000F80
3E000F00
3E000F00
3E001F00
3E001E00
7E003E00
7F007C00
7F00FC00
7FC1F800
7BFFF000
F1FFE000
F0FF8000
003E0000
ENDCHAR
STARTCHAR uni0186
ENCODING 390
SWIDTH 722 0
DWIDTH 36 0
BBX 32 38 4 -1
BITMAP
0003FC00
001FFF80
007FFFE0
00FFFFF0
01FC07F8
03F001F8
07C0007C
0F80003C
0F00003E
1F00001E
1E00001E
3E00001F
1C00000F
0000000F
0000000F
0000000F
0000000F
0000000F
0000000F
0000000F
0000001F
0000001E
0000001E
0000001E
0000003E
0000003C
F000007C
F0000078
F80000F8
780001F0
7C0003F0
7C0007E0
3F001FC0
1FC07F80
0FFFFF00
07FFFC00
03FFF800
007FC000
ENDCHAR
STARTCHAR uni0187
ENCODING 391
SWIDTH 722 0
DWIDTH 36 0
BBX 42 42 5 -1
BITMAP
000000003F80
00000000FFC0
00000001FF80
00000001FF80
0001FE03E000
000FFFC3C000
003FFFE3C000
00FFFFFBC000
01FE03FF8000
03F800FF8000
07E0007F8000
0FC0003F8000
0F80001F8000
1F00001F8000
1E00000F0000
3E00000F0000
3C0000000000
7C0000000000
780000000000
780000000000
780000000000
F00000000000
F00000000000
F00000000000
F00000000000
F00000000000
F00000000000
F00000000000
F00000000000
F00000380000
F000007C0000
780000780000
780000F80000
7C0000F00000
3C0001F00000
3E0003E00000
1F800FC00000
1FE03F800000
0FFFFF000000
07FFFE000000
01FFF8000000
003FC0000000
ENDCHAR
STARTCHAR uni0188
ENCODING 392
SWIDTH 500 0
DWIDTH 25 0
BBX 32 32 3 -1
BITMAP
000000FE
000003FF
000007FE
000007FE
003F8F80
00FFFF00
03FFFF00
07FFFF00
0FE0FF00
1F803E00
1F003E00
3E001E00
3C001E00
7C000000
78000000
78000000
F8000000
F0000000
F0000000
F0000000
F0000000
F0000000
F0007800
F000F800
F000F000
7801F000
7C03E000
7E0FC000
3FFFC000
1FFF8000
0FFE0000
03F80000
ENDCHAR
STARTCHAR uni0189
ENCODING 393
SWIDTH 722 0
DWIDTH 36 0
BBX 33 36 3 0
BITMAP
01FFFF0000
01FFFFE000
01FFFFF000
03FFFFF800
03C001FC00
03C0007E00
03C0003E00
03C0001F00
0780000F00
0780000F00
0780000780
0780000780
0780000780
0F00000780
0F00000780
7FFFE00780
7FFFE00780
FFFFC00780
FFFFC00780
1E00000F00
1E00000F00
1E00000F00
1E00001F00
3E00001E00
3C00003E00
3C00003C00
3C00007C00
3C0000F800
7C0001F000
780003F000
78000FE000
7800FFC000
7FFFFF0000
FFFFFE0000
FFFFF00000
FFFF800000
ENDCHAR
STARTCHAR uni018A
ENCODING 394
SWIDTH 784 0
DWIDTH 39 0
BBX 35 36 3 0
BITMAP
07FFFFC000
3FFFFFF000
7FFFFFFC00
7FFFFFFE00
FCF8007F00
F8F0001F80
F0F0000F80
F0F00007C0
F0F00003C0
01F00003C0
01E00001E0
01E00001E0
01E00001E0
01E00001E0
03E00001E0
03C00001E0
03C00001E0
03C00001E0
03C00001E0
07800003E0
07800003C0
07800003C0
07800007C0
0780000780
0F00000F80
0F00000F80
0F00001F00
0F00003E00
0F00007E00
1E0000FC00
1E0003F800
1E001FF000
1FFFFFE000
1FFFFF8000
3FFFFE0000
3FFFF00000
ENDCHAR
STARTCHAR uni018B
ENCODING 395
SWIDTH 650 0
DWIDTH 33 0
BBX 33 36 1 0
BITMAP
003FFFFF80
003FFFFF80
007FFFFF00
007FFFFF00
0000000F00
0000000F00
0000001E00
0000001E00
0000001E00
0000001E00
0000001E00
0000003C00
0000003C00
0000003C00
0000003C00
001FFFFC00
00FFFFF800
03FFFFF800
0FFFFFF800
1FE0007800
3F0000F800
3C0000F000
780000F000
780000F000
F00000F000
F00001E000
F00001E000
F00001E000
F00001E000
F80001E000
FC0003C000
7F0003C000
7FFFFFC000
3FFFFFC000
0FFFFFC000
01FFFF8000
ENDCHAR
STARTCHAR uni018C
ENCODING 396
SWIDTH 556 0
DWIDTH 28 0
BBX 27 37 3 -1
BITMAP
0007FFE0
000FFFE0
000FFFE0
000FFFE0
000003C0
000003C0
000003C0
000003C0
000007C0
003F0780
00FFC780
03FFE780
07FFF780
0FC1FF80
1F807F00
1F003F00
3E003F00
3C001F00
7C001F00
78001E00
78001E00
F8001E00
F0001E00
F0003E00
F0003C00
F0003C00
F0007C00
F0007C00
F000FC00
F800F800
7801F800
7C03F800
7E0FF800
3FFFF800
1FFEF000
0FF8F000
03E00000
ENDCHAR
STARTCHAR uni018D
ENCODING 397
SWIDTH 555 0
DWIDTH 28 0
BBX 27 37 0 -10
BITMAP
0007F000
001FFC00
007FFF00
00FFFF80
01FC1F80
03F007C0
03E003C0
07C003E0
0F8001E0
0F8001E0
0F0001E0
1F0001E0
1E0001E0
1E0001E0
1E0001E0
1E0003C0
1E0003C0
1E0007C0
1E000780
1F000F80
0F001F00
0F803F00
07C0FE00
07FFFC00
03FFF800
01FFE000
00FF8000
003E0000
001F0000
000F8000
0007C000
0003E000
0001F000
7FFFF000
FFFFF800
FFFFF000
FFFFF000
ENDCHAR
STARTCHAR uni018E
ENCODING 398
SWIDTH 666 0
DWIDTH 33 0
BBX 32 36 2 0
BITMAP
03FFFFFF
03FFFFFE
07FFFFFE
07FFFFFE
0000001E
0000003E
0000003C
0000003C
0000003C
0000003C
00000078
00000078
00000078
00000078
00000078
000000F0
000000F0
07FFFFF0
07FFFFF0
0FFFFFF0
0FFFFFE0
000001E0
000001E0
000001E0
000001E0
000003C0
000003C0
000003C0
000003C0
000003C0
00000780
00000780
7FFFFF80
7FFFFF80
FFFFFF80
FFFFFF00
ENDCHAR
STARTCHAR uni018F
ENCODING 399
SWIDTH 777 0
DWIDTH 39 0
BBX 34 38 5 -1
BITMAP
0001FE0000
000FFFC000
003FFFF000
007FFFF800
00FE01FC00
01F8007E00
03E0003F00
07C0001F00
0F80000F80
0F00000780
1F00000780
06000003C0
00000003C0
00000003C0
00000003C0
00000003C0
FFFFFFFFC0
FFFFFFFFC0
FFFFFFFFC0
FFFFFFFFC0
F0000007C0
F000000780
F000000780
F000000F80
F000000F80
F000001F00
F000001F00
7800003E00
7800007E00
7C00007C00
7C0000F800
3E0003F800
1F0007F000
1FE03FE000
0FFFFF8000
07FFFF0000
01FFFC0000
003FE00000
ENDCHAR
STARTCHAR uni0190
ENCODING 400
SWIDTH 613 0
DWIDTH 31 0
BBX 30 38 2 -1
BITMAP
0001FE00
000FFFC0
001FFFE0
007FFFF0
00FE03F8
01F800F8
03E00078
03C0007C
03C0003C
0780003C
0780003C
0780003C
07800030
07C00000
03C00000
03F00000
01FFC000
00FFC000
03FF8000
07FF8000
0FE00000
1F000000
3E000000
7C000000
78000000
78000000
F0000180
F00003E0
F00003C0
F00007C0
F0000F80
F8001F00
7C007E00
7F01FE00
3FFFF800
1FFFF000
07FFC000
01FE0000
ENDCHAR
STARTCHAR uni0191
ENCODING 401
SWIDTH 610 0
DWIDTH 31 0
BBX 40 46 -6 -10
BITMAP
0001FFFFFF
0001FFFFFF
0001FFFFFE
0001FFFFFE
0001E00000
0003C00000
0003C00000
0003C00000
0003C00000
0007C00000
0007800000
0007800000
0007800000
0007800000
000F800000
000FFFFFF8
000FFFFFF8
000FFFFFF0
000FFFFFF0
001E000000
001E000000
001E000000
001E000000
001E000000
003C000000
003C000000
003C000000
003C000000
003C000000
0078000000
0078000000
0078000000
0078000000
00F8000000
00F0000000
00F0000000
00F0000000
00F0000000
01E0000000
01E0000000
03E0000000
07E0000000
7FC0000000
7FC0000000
FF80000000
7E00000000
ENDCHAR
STARTCHAR florin
ENCODING 402
SWIDTH 556 0
DWIDTH 28 0
BBX 25 46 1 -10
BITMAP
00007F00
0001FF80
0001FF80
0003FF80
0003E080
0007C000
00078000
00078000
00078000
00078000
00FFFC00
01FFFC00
01FFFC00
01FFF800
000F0000
000F0000
001E0000
001E0000
001E0000
001E0000
001E0000
001E0000
003C0000
003C0000
003C0000
003C0000
003C0000
007C0000
00780000
00780000
00780000
00780000
00780000
00F80000
00F00000
00F00000
00F00000
00F00000
00F00000
01E00000
01E00000
03E00000
7FE00000
FFC00000
FFC00000
7F000000
ENDCHAR
STARTCHAR uni0193
ENCODING 403
SWIDTH 777 0
DWIDTH 39 0
BBX 43 42 5 -1
BITMAP
000000001FC0
000000007FE0
00000000FFC0
00000000FFC0
0001FF01F000
000FFFE1E000
003FFFF1E000
007FFFFDE000
01FE01FDE000
03F8007FC000
07E0003FC000
07C0001FC000
0F80000FC000
1F00000FC000
1E0000078000
3E0000078000
3C0000000000
3C0000000000
780000000000
780000000000
780000000000
F80000000000
F00000000000
F000FFFE0000
F000FFFE0000
F001FFFE0000
F001FFFE0000
F000003E0000
F000003C0000
F000003C0000
F000003C0000
F800003C0000
7800007C0000
7C0000780000
3C0000780000
3E0000F80000
1F0003F80000
1FE01FF80000
0FFFFFE00000
03FFFF800000
01FFFE000000
003FE0000000
ENDCHAR
STARTCHAR uni0194
ENCODING 404
SWIDTH 496 0
DWIDTH 25 0
BBX 30 46 2 -10
BITMAP
7800007C
780000F8
3C0000F0
3C0001F0
3C0001E0
3C0003C0
3C0007C0
1E000780
1E000F80
1E001F00
1E001E00
1F003E00
0F007C00
0F007800
0F00F800
0F01F000
0781E000
0783E000
0783C000
07878000
078F8000
03CF0000
03DF0000
03FE0000
03FC0000
03FC0000
01F80000
01F00000
01F00000
03E00000
03F00000
07F00000
07F00000
0FF00000
1FF00000
1E780000
3E780000
3C780000
78780000
78780000
78F80000
F8F00000
FFF00000
7FE00000
7FC00000
1F000000
ENDCHAR
STARTCHAR uni0195
ENCODING 405
SWIDTH 879 0
DWIDTH 44 0
BBX 42 37 2 -1
BITMAP
01E000000000
01E000000000
01E000000000
01E000000000
01E000000000
03C000000000
03C000000000
03C000000000
03C000000000
07C1F0000000
078FFC0003C0
079FFE000780
07BFFE000780
07FC1F000780
0FF00F000780
0FC00F000780
0F800F000F00
0F800F000F00
0F001F000F00
1F001E000F00
1E001E001F00
1E001E001E00
1E001E001E00
1E001E001E00
3C003C001E00
3C003C003C00
3C003C003C00
3C003C003C00
3C003C007C00
78003C007800
78003C00F800
78003E01F000
78001F83F000
78001FFFE000
F0000FFFC000
F00007FF8000
000000FC0000
ENDCHAR
STARTCHAR uni0196
ENCODING 406
SWIDTH 222 0
DWIDTH 11 0
BBX 12 36 1 0
BITMAP
00F0
00F0
01F0
01E0
01E0
01E0
01E0
03C0
03C0
03C0
03C0
07C0
0780
0780
0780
0780
0F00
0F00
0F00
0F00
1F00
1E00
1E00
1E00
1E00
3C00
3C00
3C00
3C00
7C00
7800
7800
7800
7800
F000
F000
ENDCHAR
STARTCHAR uni0197
ENCODING 407
SWIDTH 277 0
DWIDTH 14 0
BBX 12 36 3 0
BITMAP
01E0
01E0
01E0
01E0
01E0
03C0
03C0
03C0
03C0
03C0
0780
0780
0780
0780
0F80
0F00
7FF0
FFF0
FFF0
FFE0
1E00
1E00
1E00
1E00
3C00
3C00
3C00
3C00
3C00
7800
7800
7800
7800
7800
F000
F000
ENDCHAR
STARTCHAR uni0198
ENCODING 408
SWIDTH 666 0
DWIDTH 33 0
BBX 33 37 2 0
BITMAP
003F800000
007FC00F80
00FFC01F00
01FF807E00
01F000FC00
03E001F800
03C003F000
03C007E000
03C00F8000
03C01F0000
07C07E0000
0780FC0000
0781F80000
0783F00000
0787E00000
0F0FC00000
0F1FC00000
0F3FE00000
0FFDE00000
0FF8F00000
1FF0F80000
1FE0780000
1FC07C0000
1F003C0000
1E003E0000
3C001E0000
3C000F0000
3C000F8000
3C00078000
3C0007C000
780003C000
780003E000
780001E000
780000F000
780000F800
F000007800
F000007C00
ENDCHAR
STARTCHAR uni0199
ENCODING 409
SWIDTH 500 0
DWIDTH 25 0
BBX 24 36 2 0
BITMAP
003F80
00FFC0
00FF80
01FF80
01E000
03E000
03C000
03C000
03C000
03C000
07801F
07803E
07807C
0780F8
0781F0
0F03E0
0F07C0
0F0F80
0F1F00
1F3E00
1E7E00
1EFE00
1FFF00
1FCF00
3F8F00
3F0780
3E0780
3C07C0
3C03C0
7803C0
7801E0
7801E0
7801F0
7800F0
F000F0
F00078
ENDCHAR
STARTCHAR uni019A
ENCODING 410
SWIDTH 222 0
DWIDTH 11 0
BBX 11 36 1 0
BITMAP
01E0
01E0
01E0
01E0
01E0
03C0
03C0
03C0
03C0
07C0
0780
0780
0780
0780
0F80
0F00
7FE0
FFE0
FFE0
FFC0
1E00
1E00
1E00
1E00
3C00
3C00
3C00
3C00
3C00
7800
7800
7800
7800
7800
F000
F000
ENDCHAR
STARTCHAR uni019B
ENCODING 411
SWIDTH 492 0
DWIDTH 25 0
BBX 23 36 -1 0
BITMAP
000786
00079E
0007FC
0007F0
001FC0
00FFC0
01FBC0
01E3C0
0181C0
0001E0
0001E0
0003E0
0003E0
0007E0
000FE0
000FF0
001EF0
001EF0
003CF0
003CF0
007870
00F878
00F078
01E078
01E078
03C078
03C038
07803C
0F803C
0F003C
1E003C
1E003C
3C003C
7C001E
78001E
F8001E
ENDCHAR
STARTCHAR uni019C
ENCODING 412
SWIDTH 846 0
DWIDTH 42 0
BBX 40 37 3 -1
BITMAP
03C007800F
03C007800F
03C007800F
07800F800F
07800F000F
07800F001E
07800F001E
07800F001E
0F000F001E
0F001E001E
0F001E003C
0F001E003C
0F001E003C
1E001E003C
1E003C007C
1E003C0078
1E003C0078
1E003C0078
3C003C0078
3C007800F8
3C007800F0
3C007800F0
7C007800F0
78007800F0
7800F801E0
7800F001E0
7800F001E0
F801F003E0
F001F007E0
F003F007C0
F007F00FC0
F00FF01FC0
F83FF87FC0
FFFDFFFBC0
7FF8FFF780
3FE07FC780
1F801F0000
ENDCHAR
STARTCHAR uni019D
ENCODING 413
SWIDTH 722 0
DWIDTH 36 0
BBX 43 46 -6 -10
BITMAP
0001E00001E0
0001F00001E0
0001F00003C0
0001F80003C0
0001F80003C0
0003FC0003C0
0003FC0007C0
0003FE000780
0003FE000780
0003DF000780
00079F000780
00078F800F80
00078F800F00
000787C00F00
000F87C00F00
000F03E00F00
000F03E01F00
000F01F01E00
000F01F01E00
001F00F81E00
001E00F81E00
001E007C3C00
001E007C3C00
001E003E3C00
003C003E3C00
003C001F3C00
003C001F7800
003C000FF800
003C000FF800
00780007F800
00780007F800
00780003F000
00780003F000
00F80001F000
00F00001F000
00F00000F000
00F000000000
00F000000000
01E000000000
01E000000000
03E000000000
03E000000000
7FC000000000
7F8000000000
FF8000000000
7E0000000000
ENDCHAR
STARTCHAR uni019E
ENCODING 414
SWIDTH 556 0
DWIDTH 28 0
BBX 24 37 2 -10
BITMAP
0001F8
0787FC
079FFE
07BFFF
07FC1F
0FF00F
0FC00F
0FC00F
0F800F
0F000F
1F001F
1E001E
1E001E
1E001E
1E001E
3C003E
3C003C
3C003C
3C003C
3C003C
78007C
780078
780078
780078
780078
F000F0
F000F0
0000F0
0000F0
0000F0
0001E0
0001E0
0001E0
0001E0
0001E0
0003C0
0003C0
ENDCHAR
STARTCHAR uni019F
ENCODING 415
SWIDTH 777 0
DWIDTH 39 0
BBX 34 38 5 -1
BITMAP
0003FE0000
000FFFC000
003FFFF000
00FFFFF800
01FE03FC00
03F8007E00
07E0003E00
0FC0001F00
0F80000F00
1F00000F80
1E00000780
3E00000780
3C000003C0
7C000003C0
78000003C0
78000003C0
F8000003C0
FFFFFFFFC0
FFFFFFFFC0
FFFFFFFFC0
FFFFFFFFC0
F0000007C0
F000000780
F000000780
F000000F80
F000000F00
7800001F00
7800001E00
7800003E00
3C00007C00
3E0000F800
1F0001F800
1FC007F000
0FF01FE000
07FFFF8000
01FFFF0000
00FFFC0000
001FE00000
ENDCHAR
STARTCHAR Ohorn
ENCODING 416
SWIDTH 811 0
DWIDTH 41 0
BBX 39 38 5 -1
BITMAP
0001FE0000
000FFFC01E
003FFFF01E
00FFFFF83E
01FE03FC3C
03F8007E0C
07E0003F0C
0FC0001F0C
0F80000F9C
1F00000F98
3E000007B8
3E000007F0
3C000003E0
7C000003C0
78000003C0
78000003C0
F8000003C0
F0000003C0
F0000003C0
F0000003C0
F0000007C0
F0000007C0
F000000780
F000000780
F000000F80
F000000F00
7800001F00
7800001E00
7800003E00
3C00007C00
3E0000F800
1F0001F800
1FC007F000
0FF01FE000
07FFFFC000
03FFFF0000
00FFFC0000
001FE00000
ENDCHAR
STARTCHAR ohorn
ENCODING 417
SWIDTH 604 0
DWIDTH 30 0
BBX 31 28 2 -1
BITMAP
001FC000
00FFF01E
03FFFC1E
07FFFE3E
0FE07E3C
0F801F0C
1F000F0C
3E000F8C
3C000798
7C000798
780007B0
780007F0
F80007C0
F0000780
F0000780
F0000F80
F0000F00
F0000F00
F0001F00
F0003E00
F8003E00
78007C00
7C00FC00
3F03F800
3FFFF000
1FFFC000
07FF8000
01FC0000
ENDCHAR
STARTCHAR uni01A2
ENCODING 418
SWIDTH 868 0
DWIDTH 43 0
BBX 39 47 5 -10
BITMAP
0003FC000E
001FFF80FE
007FFFCFFC
00FFFFFFFC
01FE07FFFC
03F001F83C
07E000F078
0FC000F078
0F8000F078
1F0000F078
3E0001F078
3E0001E0F0
3C0001E0F0
7C0001E0F0
780001E0F0
780003E0F0
F80003C1E0
F00003C1E0
F00003C1E0
F00003C1E0
F00007C3E0
F0000783C0
F0000783C0
F0000783C0
F0000783C0
F0000F87C0
F0000F0780
78000F0780
78000F0780
7C000F0780
7C001F0F00
3E001E0F00
1F001E0F00
1FC07E0F00
0FFFFE0F00
07FFFC1E00
01FFF01E00
007F801E00
0000001E00
0000001E00
0000003C00
0000003C00
0000003C00
0000003C00
0000003C00
0000007800
0000007800
ENDCHAR
STARTCHAR uni01A3
ENCODING 419
SWIDTH 667 0
DWIDTH 33 0
BBX 31 37 2 -10
BITMAP
003F800E
00FFE0FE
03FFFFFC
07FFFFFC
0FE0F83C
1F80783C
1F00787C
3E00F878
3C00F078
7C00F078
7800F078
7800F0F0
F801E0F0
F001E0F0
F001E0F0
F001E0F0
F001E1E0
F003C1E0
F003C1E0
F003C1E0
F803C3E0
7807C3C0
7C0783C0
3F0783C0
3FFF83C0
1FFF87C0
0FFF0780
01FC0780
00000780
00000780
00000F00
00000F00
00000F00
00000F00
00000F00
00001E00
00001E00
ENDCHAR
STARTCHAR uni01A4
ENCODING 420
SWIDTH 730 0
DWIDTH 37 0
BBX 36 36 3 0
BITMAP
07FFFFFC00
3FFFFFFF00
7FFFFFFFC0
7FFFFFFFC0
FC780007E0
F8F00001E0
F0F00001F0
F0F00000F0
F0F00000F0
00F00000F0
01E00000F0
01E00001F0
01E00001E0
01E00003E0
03E00007C0
03C0000FC0
03C0007F80
03FFFFFF00
03FFFFFE00
07FFFFF800
07FFFF8000
0780000000
0780000000
0780000000
0F00000000
0F00000000
0F00000000
0F00000000
0F00000000
1E00000000
1E00000000
1E00000000
1E00000000
1E00000000
3C00000000
3C00000000
ENDCHAR
STARTCHAR uni01A5
ENCODING 421
SWIDTH 556 0
DWIDTH 28 0
BBX 28 46 -1 -10
BITMAP
000FE000
001FF000
003FE000
007FE000
007C0000
00780000
00F80000
00F00000
00F00000
00F0FC00
00F3FF00
01EFFF80
01FFFFC0
01FE0FE0
01F803E0
03F001E0
03E001F0
03E000F0
03C000F0
03C000F0
078000F0
078000F0
078000F0
078000F0
070001F0
0F0001E0
0F0001E0
0F0003E0
0F8003C0
0F8007C0
1F800F80
1FC01F00
1FF07F00
1EFFFE00
3E7FF800
3C3FF000
3C0FC000
3C000000
3C000000
78000000
78000000
78000000
78000000
78000000
F0000000
F0000000
ENDCHAR
STARTCHAR uni01A6
ENCODING 422
SWIDTH 666 0
DWIDTH 33 0
BBX 32 44 2 -8
BITMAP
01F00000
01E00000
01E00000
01E00000
01FFFFC0
03FFFFF0
03FFFFF8
03FFFFFC
03C0007E
03C0001E
0780001F
0780000F
0780000F
0780000F
0780000F
0F00000F
0F00001F
0F00001E
0F00003E
1F00007C
1E0000FC
1E0007F8
1FFFFFF0
1FFFFFC0
3FFFFF00
3FFFF000
3C03C000
3C03E000
3C01E000
7800F000
7800F800
78007800
78007C00
78003E00
F0001E00
F0001F00
00000F00
00000780
000007C0
000003C0
000003E0
000001E0
000000F0
000000F8
ENDCHAR
STARTCHAR uni01A7
ENCODING 423
SWIDTH 666 0
DWIDTH 33 0
BBX 29 38 3 -1
BITMAP
0003FE00
001FFFC0
007FFFE0
00FFFFF0
01FE03F0
03F000F8
07C00078
0F800078
0F000078
1F000078
1E0000F0
000000F0
000001E0
000007E0
00001FC0
00007F80
0003FE00
000FFC00
003FF000
01FF8000
03FE0000
0FF00000
1FC00000
3F000000
3E000000
7C0000F0
780001F0
F00001E0
F00003E0
F00003C0
F00007C0
F0001F80
F8003F00
7E01FE00
7FFFFC00
3FFFF800
0FFFE000
03FF0000
ENDCHAR
STARTCHAR uni01A8
ENCODING 424
SWIDTH 500 0
DWIDTH 25 0
BBX 22 28 2 -1
BITMAP
001FC0
00FFF0
03FFF8
07FFF8
0FE07C
1F803C
1F003C
3E003C
3C007C
0001F8
0007F0
003FF0
00FFC0
03FF80
0FFC00
1FF000
3F8000
7E0000
7C003C
F8007C
F00078
F000F8
F003F0
FC0FE0
7FFFC0
7FFF80
1FFE00
07F800
ENDCHAR
STARTCHAR uni01A9
ENCODING 425
SWIDTH 599 0
DWIDTH 30 0
BBX 33 36 1 0
BITMAP
00FFFFFF80
00FFFFFF80
01FFFFFF00
01FFFFFF00
01F0000000
00F0000000
00F8000000
007C000000
003E000000
001F000000
000F800000
0007800000
0007C00000
0003E00000
0001F00000
0000F80000
0000780000
0000FC0000
0001F80000
0003F00000
0007E00000
000FC00000
001F800000
003E000000
007C000000
00F8000000
03F0000000
07E0000000
0FC0000000
1F80000000
3F00000000
7E00000000
7FFFFFC000
7FFFFFC000
FFFFFF8000
FFFFFF8000
ENDCHAR
STARTCHAR uni01AA
ENCODING 426
SWIDTH 333 0
DWIDTH 17 0
BBX 11 46 5 -10
BITMAP
0F80
3FC0
71E0
60E0
60E0
60E0
71E0
3FE0
1FE0
01E0
01E0
03C0
03C0
03C0
03C0
07C0
0780
0780
0780
0780
0F80
0F00
0F00
0F00
0F00
1E00
1E00
1E00
1E00
3E00
3C00
3C00
3C00
3C00
7C00
7800
7800
7800
7800
F000
F000
F800
FF80
FF00
7F00
3F00
ENDCHAR
STARTCHAR uni01AB
ENCODING 427
SWIDTH 277 0
DWIDTH 14 0
BBX 17 45 -1 -10
BITMAP
000400
000C00
003C00
003C00
007C00
007800
007800
007800
007800
07FF80
0FFF80
0FFF80
0FFF00
00F000
01F000
01E000
01E000
01E000
01E000
03C000
03C000
03C000
03C000
03C000
078000
078000
078000
078000
078000
0F0000
0F0000
0F8000
0FF800
0FF800
07F000
03F000
01F000
01F000
01E000
03E000
07E000
7FC000
FFC000
FF8000
7E0000
ENDCHAR
STARTCHAR uni01AC
ENCODING 428
SWIDTH 610 0
DWIDTH 31 0
BBX 31 36 3 0
BITMAP
0FFFFFFE
3FFFFFFE
7FFFFFFC
7FFFFFFC
FC03E000
F803C000
F003C000
F003C000
F003C000
0007C000
00078000
00078000
00078000
00078000
000F8000
000F0000
000F0000
000F0000
000F0000
001E0000
001E0000
001E0000
001E0000
001E0000
003C0000
003C0000
003C0000
003C0000
003C0000
00780000
00780000
00780000
00780000
00780000
00F00000
00F00000
ENDCHAR
STARTCHAR uni01AD
ENCODING 429
SWIDTH 277 0
DWIDTH 14 0
BBX 17 37 3 -1
BITMAP
007F00
01FF80
01FF00
03FF00
03C000
07C000
078000
078000
078000
078000
7FF800
7FF800
7FF800
FFF000
0F0000
1E0000
1E0000
1E0000
1E0000
1E0000
3C0000
3C0000
3C0000
3C0000
3C0000
780000
780000
780000
780000
780000
F00000
F00000
F80000
FF8000
FF8000
7F0000
3F0000
ENDCHAR
STARTCHAR uni01AE
ENCODING 430
SWIDTH 610 0
DWIDTH 31 0
BBX 28 46 6 -10
BITMAP
7FFFFFF0
7FFFFFF0
FFFFFFE0
FFFFFFE0
000F0000
001F0000
001E0000
001E0000
001E0000
001E0000
003C0000
003C0000
003C0000
003C0000
003C0000
00780000
00780000
00780000
00780000
00780000
00F00000
00F00000
00F00000
00F00000
01F00000
01E00000
01E00000
01E00000
01E00000
03E00000
03C00000
03C00000
03C00000
03C00000
07800000
07800000
07800000
07800000
07800000
0F000000
0F000000
0F800000
0FF80000
0FF80000
07F00000
01F00000
ENDCHAR
STARTCHAR Uhorn
ENCODING 431
SWIDTH 793 0
DWIDTH 40 0
BBX 39 37 5 -1
BITMAP
0780000F1E
0780000F1E
0F00001E3E
0F00001E3C
0F00001E0C
0F00001E0C
1F00003C0C
1E00003C18
1E00003C38
1E00003C70
1E00003FE0
3C00007F80
3C00007800
3C00007800
3C00007800
7C0000F000
780000F000
780000F000
780000F000
780000F000
F00001E000
F00001E000
F00001E000
F00001E000
F00003C000
F00003C000
F00003C000
F000078000
F000078000
F0000F8000
F8001F0000
7C003E0000
3F01FE0000
3FFFFC0000
1FFFF00000
07FFE00000
00FF000000
ENDCHAR
STARTCHAR uhorn
ENCODING 432
SWIDTH 633 0
DWIDTH 32 0
BBX 31 27 4 -1
BITMAP
0F000F1E
1E001E1E
1E001E3E
1E001E3C
1E001E0C
3E003C0C
3C003C0C
3C003C18
3C003C38
3C007CF0
78007FE0
78007F80
78007800
78007800
F800F000
F000F000
F000F000
F001F000
F001F000
F003E000
F007E000
F00FE000
F83DE000
FFF9E000
7FF3C000
3FE3C000
1F800000
ENDCHAR
STARTCHAR uni01B1
ENCODING 433
SWIDTH 760 0
DWIDTH 38 0
BBX 38 37 5 -1
BITMAP
3FFF03FFFC
3FFF07FFFC
7FFE07FFF8
7FFE07FFF8
01F801F000
03E000F800
07C0007C00
0F80003C00
0F00001E00
1E00000F00
3E00000F00
3C00000F00
7C00000780
7800000780
7800000780
F800000780
F000000780
F000000780
F000000780
F000000780
F000000F80
F000000F00
F000000F00
F000001F00
F000001E00
7800003E00
7800003C00
7C00007C00
7C0000F800
3E0001F800
1F0003F000
1F8007E000
0FE03FC000
07FFFF8000
03FFFE0000
00FFF80000
003FC00000
ENDCHAR
STARTCHAR uni01B2
ENCODING 434
SWIDTH 722 0
DWIDTH 36 0
BBX 31 38 5 -1
BITMAP
000003F0
078003FC
078003FC
078003FE
0F00003E
0F00001E
0F00001E
0F00001E
0F00001E
1E00001E
1E00001E
1E00003C
1E00003C
1E00003C
3C00003C
3C000078
3C000078
3C000078
3C000078
780000F0
780000F0
780000F0
780001E0
780001E0
F00001E0
F00003C0
F00003C0
F00007C0
F0000F80
F0000F00
F8001F00
F8003E00
7C00FC00
7F03F800
3FFFF000
1FFFE000
0FFFC000
01FE0000
ENDCHAR
STARTCHAR uni01B3
ENCODING 435
SWIDTH 717 0
DWIDTH 36 0
BBX 38 37 2 0
BITMAP
0F80000000
3FC000007C
7FE00000F8
FFF00001F0
79F00001E0
20F80003E0
00780007C0
007C000F80
003C001F00
003E001E00
001E003E00
001F007C00
000F00F800
000F80F000
000781F000
0007C3E000
0003C7C000
0003E78000
0001EF8000
0001FF0000
0000FE0000
0000FC0000
0000780000
0000780000
0000780000
0000F00000
0000F00000
0000F00000
0000F00000
0000F00000
0001E00000
0001E00000
0001E00000
0001E00000
0001E00000
0003C00000
0003C00000
ENDCHAR
STARTCHAR uni01B4
ENCODING 436
SWIDTH 500 0
DWIDTH 25 0
BBX 39 46 0 -10
BITMAP
00000003E0
00000007F8
0000000FFE
0000001FFE
0000001F1C
0000003E08
0000003C00
0000007C00
0000007800
000000F000
078000F000
078001E000
078003E000
03C003C000
03C007C000
03C0078000
03C00F8000
03C00F0000
03C01E0000
03C01E0000
01E03C0000
01E07C0000
01E0780000
01E0F80000
01E0F00000
01E1E00000
00F1E00000
00F3C00000
00F3C00000
00F7800000
00FF800000
00FF000000
00FE000000
007E000000
007C000000
007C000000
0078000000
00F8000000
01F0000000
01E0000000
03E0000000
07C0000000
FF80000000
FF80000000
FE00000000
FC00000000
ENDCHAR
STARTCHAR uni01B5
ENCODING 437
SWIDTH 610 0
DWIDTH 31 0
BBX 31 36 1 0
BITMAP
03FFFFFE
03FFFFFE
07FFFFFE
07FFFFFE
0000007C
000000F8
000000F0
000001F0
000003E0
000007C0
00000F80
00001F00
00003E00
00007C00
0000F800
0000F000
1FFFFFF8
3FFFFFF0
3FFFFFF0
3FFFFFF0
001F0000
003E0000
007C0000
00F80000
00F80000
01F00000
03E00000
07C00000
0F800000
1F000000
3E000000
7C000000
FFFFFFF0
FFFFFFF0
FFFFFFE0
FFFFFFE0
ENDCHAR
STARTCHAR uni01B6
ENCODING 438
SWIDTH 500 0
DWIDTH 25 0
BBX 24 26 1 0
BITMAP
07FFFF
0FFFFF
0FFFFF
0FFFFF
00003E
00007C
0000F8
0001F0
0003E0
0007C0
000F80
1FFFFE
3FFFFC
3FFFFC
3FFFFC
01F000
03E000
07C000
0FC000
1F8000
1F0000
3E0000
7FFFFC
FFFFFC
FFFFF8
FFFFF8
ENDCHAR
STARTCHAR uni01B7
ENCODING 439
SWIDTH 610 0
DWIDTH 31 0
BBX 34 46 -2 -10
BITMAP
007FFFFFC0
007FFFFFC0
00FFFFFFC0
00FFFFFFC0
0000000F80
0000001F00
0000003E00
0000007C00
000000F800
000001F000
000003E000
000007C000
00000F8000
00001F0000
00003E0000
00007C0000
0000FF8000
0000FFC000
0000FFF000
0000FFF800
000007F800
000000FC00
0000007C00
0000003E00
0000003E00
0000001E00
0000001E00
0000001E00
0000001E00
0000001E00
0000001E00
0000001C00
0000003C00
0000003C00
3000007C00
F000007800
F00000F800
F80001F000
780003E000
7C0007E000
7E001FC000
3F80FF8000
1FFFFF0000
0FFFFC0000
03FFF00000
00FF800000
ENDCHAR
STARTCHAR uni01B8
ENCODING 440
SWIDTH 610 0
DWIDTH 31 0
BBX 32 46 1 -10
BITMAP
00FFFFFF
00FFFFFF
01FFFFFF
01FFFFFF
00F00000
00F80000
007C0000
003C0000
001E0000
000F0000
000F8000
0007C000
0003C000
0001E000
0001F000
0000F800
0007F800
003FF800
00FFF800
01FFF000
03FE0000
07F00000
0FC00000
1F800000
3F000000
3E000000
7C000000
78000000
78000000
F8000000
F0000000
F0000000
F0000000
F0000000
F0000060
F00000F8
F00000F0
F80001F0
780003E0
7C0007E0
3E000FC0
3FC07F80
1FFFFF00
0FFFFC00
03FFF000
007F8000
ENDCHAR
STARTCHAR uni01B9
ENCODING 441
SWIDTH 500 0
DWIDTH 25 0
BBX 26 36 0 -10
BITMAP
07FFFFC0
07FFFF80
07FFFF80
07FFFF80
03C00000
01E00000
01F00000
00F80000
00780000
007C0000
003E0000
001E0000
001F0000
000F8000
001F8000
00FF8000
03FF8000
07FF8000
0FE00000
1F800000
3E000000
7C000000
78000000
78000000
F0000000
F0000F00
F0001F00
F0003E00
F0007C00
F800FC00
F801F800
7E07F000
7FFFE000
3FFFC000
0FFF0000
03F80000
ENDCHAR
STARTCHAR uni01BA
ENCODING 442
SWIDTH 500 0
DWIDTH 25 0
BBX 26 36 0 -10
BITMAP
07FFFFC0
0FFFFF80
0FFFFF80
0FFFFF00
00003E00
00007C00
0001F800
0003E000
0007C000
001F8000
001FE000
003FF800
003FF800
003FFC00
00007C00
00003C00
00003C00
00007C00
0000F800
0003F000
001FE000
00FFC000
03FF0000
0FF80000
1FC00000
3F000000
7C003C00
F8007C00
F0007800
F000F800
F003F000
FC0FE000
7FFFC000
7FFF8000
3FFE0000
07F80000
ENDCHAR
STARTCHAR uni01BB
ENCODING 443
SWIDTH 556 0
DWIDTH 28 0
BBX 25 37 3 0
BITMAP
001FC000
007FF000
01FFFC00
03FFFE00
07F07F00
07C01F00
0F800F80
0F800780
0F000780
1F000780
1E000780
0E000780
00000F80
00000F00
00001F00
00003E00
00003E00
1FFFFF80
3FFFFF00
3FFFFF00
3FFFFF00
0007E000
001F8000
003F0000
007E0000
00FC0000
03F00000
07E00000
0FC00000
1F800000
1F000000
3E000000
3C000000
7FFFFC00
7FFFFC00
FFFFF800
FFFFF800
ENDCHAR
STARTCHAR uni01BC
ENCODING 444
SWIDTH 510 0
DWIDTH 26 0
BBX 26 37 2 -1
BITMAP
07FFFFC0
07FFFFC0
0FFFFF80
0FFFFF80
00F00000
00F00000
00F00000
00F00000
01E00000
01E00000
01E00000
01FF8000
01FFE000
03FFF800
03FFFC00
0000FC00
00003E00
00001E00
00001F00
00000F00
00000F00
00000F00
00000F00
00000F00
00000F00
00001F00
F0001E00
F0003E00
F0003E00
F8007C00
7800FC00
7C01F800
3F07F000
3FFFE000
1FFFC000
0FFF0000
01FC0000
ENDCHAR
STARTCHAR uni01BD
ENCODING 445
SWIDTH 437 0
DWIDTH 22 0
BBX 24 27 0 -1
BITMAP
0FFFFF
1FFFFF
1FFFFE
1FFFFE
01E000
01E000
01E000
03C000
03C000
03C000
03FE00
03FFC0
07FFE0
07FFF0
0003F0
0000F8
000078
000078
F00078
F00078
7800F8
7C01F0
7F03F0
3FFFE0
1FFFC0
0FFF80
01FC00
ENDCHAR
STARTCHAR uni01BE
ENCODING 446
SWIDTH 500 0
DWIDTH 25 0
BBX 21 36 3 -1
BITMAP
004000
00C000
03C000
078000
078000
078000
078000
078000
0F0000
7FF800
FFF000
FFF000
FFF000
1E0000
1E0000
1E0000
1E0000
1F0000
1FC000
0FF000
07FC00
03FF00
00FFC0
001FE0
0007F0
0001F8
F000F8
F00078
F00078
F80078
7C00F8
7F03F0
3FFFE0
1FFFC0
0FFF80
01FC00
ENDCHAR
STARTCHAR uni01BF
ENCODING 447
SWIDTH 556 0
DWIDTH 28 0
BBX 28 37 -1 -10
BITMAP
0000FC00
01E3FF00
01E7FF80
01EFFFC0
01FE0FE0
01F803E0
03F001E0
03E001F0
03E000F0
03C000F0
03C000F0
078000F0
078000F0
078000F0
078001F0
0F8001E0
0F0001E0
0F0003E0
0F0007C0
0F000FC0
1F001F80
1E003F00
1E007E00
1E01FC00
1E07F800
3C3FE000
3CFFC000
3FFE0000
3FF80000
3FC00000
7E000000
78000000
78000000
78000000
78000000
F0000000
F0000000
ENDCHAR
STARTCHAR uni01C0
ENCODING 448
SWIDTH 259 0
DWIDTH 13 0
BBX 4 36 5 0
BITMAP
F0
F0
F0
F0
F0
F0
F0
F0
F0
F0
F0
F0
F0
F0
F0
F0
F0
F0
F0
F0
F0
F0
F0
F0
F0
F0
F0
F0
F0
F0
F0
F0
F0
F0
F0
F0
ENDCHAR
STARTCHAR uni01C1
ENCODING 449
SWIDTH 413 0
DWIDTH 21 0
BBX 12 36 4 0
BITMAP
F0F0
F0F0
F0F0
F0F0
F0F0
F0F0
F0F0
F0F0
F0F0
F0F0
F0F0
F0F0
F0F0
F0F0
F0F0
F0F0
F0F0
F0F0
F0F0
F0F0
F0F0
F0F0
F0F0
F0F0
F0F0
F0F0
F0F0
F0F0
F0F0
F0F0
F0F0
F0F0
F0F0
F0F0
F0F0
F0F0
ENDCHAR
STARTCHAR uni01C2
ENCODING 450
SWIDTH 583 0
DWIDTH 29 0
BBX 24 36 3 0
BITMAP
003C00
003C00
003C00
003C00
003C00
003C00
003C00
003C00
003C00
003C00
003C00
FFFFFF
FFFFFF
FFFFFF
FFFFFF
003C00
003C00
003C00
003C00
003C00
003C00
003C00
FFFFFF
FFFFFF
FFFFFF
FFFFFF
003C00
003C00
003C00
003C00
003C00
003C00
003C00
003C00
003C00
003C00
ENDCHAR
STARTCHAR uni01C3
ENCODING 451
SWIDTH 277 0
DWIDTH 14 0
BBX 11 36 3 0
BITMAP
01E0
01E0
03E0
03C0
03C0
03C0
03C0
07C0
0780
0780
0780
0780
0700
0F00
0F00
0F00
0E00
0E00
1E00
1E00
1E00
1C00
1C00
1C00
3C00
3800
3800
0000
0000
0000
0000
0000
7800
7800
F000
F000
ENDCHAR
STARTCHAR uni01C4
ENCODING 452
SWIDTH 1333 0
DWIDTH 67 0
BBX 68 45 2 0
BITMAP
000000000000781E00
0000000000003C3C00
0000000000003C7800
0000000000001CF000
0000000000001FE000
0000000000000FC000
0000000000000F8000
000000000000000000
000000000000000000
00FFFF00003FFFFFF0
00FFFFE0003FFFFFF0
01FFFFF8003FFFFFF0
01FFFFFC003FFFFFE0
01E000FE00000003E0
01E0003F00000007C0
01E0001F0000000F80
03C0000F8000001F00
03C000078000003E00
03C000078000007C00
03C00003C00000F800
07C00003C00000F000
07800003C00001F000
07800003C00003E000
07800003C00007C000
07800003C0000F8000
0F000003C0001F0000
0F000003C0003E0000
0F000003C0003C0000
0F000007C0007C0000
1F0000078000F80000
1E0000078001F00000
1E00000F8003E00000
1E00000F0007C00000
1E00001F000F800000
3C00001E001F000000
3C00003E001E000000
3C00007C003E000000
3C0000FC007C000000
7C0003F800F8000000
78000FF001F0000000
78007FE003E0000000
7FFFFFC007FFFFFF00
7FFFFF0007FFFFFF00
FFFFFC000FFFFFFF00
FFFFE0000FFFFFFE00
ENDCHAR
STARTCHAR uni01C5
ENCODING 453
SWIDTH 1222 0
DWIDTH 61 0
BBX 59 36 2 0
BITMAP
00FFFF00000F03C0
00FFFFE000078780
01FFFFF800078F00
01FFFFFC00039E00
01E000FE0003FC00
01E0003F0001F800
01E0001F0001F000
03C0000F80000000
03C0000780000000
03C0000780000000
03C00003C0FFFFE0
07C00003C0FFFFE0
07800003C1FFFFC0
07800003C1FFFFC0
07800003C0000F80
07800003C0001F00
0F000003C0003E00
0F000003C0003C00
0F000003C0007C00
0F000007C000F800
1F0000078001F000
1E0000078003E000
1E00000F8007C000
1E00000F000F8000
1E00001F001F0000
3C00001E003E0000
3C00003E003E0000
3C00007C007C0000
3C0000FC00F80000
7C0003F801F00000
78000FF003E00000
78007FE007C00000
7FFFFFC007FFFF00
7FFFFF000FFFFF00
FFFFFC000FFFFE00
FFFFE0000FFFFE00
ENDCHAR
STARTCHAR uni01C6
ENCODING 454
SWIDTH 1056 0
DWIDTH 53 0
BBX 51 37 2 -1
BITMAP
000000F00F03C0
000000F0078780
000001F0078F00
000001E0039E00
000001E003FC00
000001E001F800
000001E001F000
000003E0000000
000003C0000000
003F03C0000000
00FFC3C0FFFFE0
03FFE7C0FFFFE0
07FFF7C1FFFFC0
0FE0FF81FFFFC0
0F803F80000F80
1F001F80001F00
3E001F80003E00
3C000F80003C00
7C000F00007C00
78000F0000F800
78000F0001F000
F8000F0003E000
F0000F0007C000
F0000E000F8000
F0001E001F0000
F0001E003E0000
F0001E003E0000
F0003E007C0000
F0003C00F80000
F8007C01F00000
7800FC03E00000
7C01FC07C00000
7F07FC07FFFF00
3FFFBC0FFFFF00
1FFF780FFFFE00
0FFC780FFFFE00
03F00000000000
ENDCHAR
STARTCHAR uni01C7
ENCODING 455
SWIDTH 1056 0
DWIDTH 53 0
BBX 52 37 2 -1
BITMAP
01E000000000F0
01E000000000F0
03E000000001F0
03C000000001E0
03C000000001E0
03C000000001E0
03C000000001E0
03C000000001E0
078000000003C0
078000000003C0
078000000003C0
078000000003C0
078000000003C0
0F000000000780
0F000000000780
0F000000000780
0F000000000780
0F000000000780
1E000000000F00
1E000000000F00
1E000000000F00
1E000000000F00
1E000000000F00
3C000000001E00
3C000000001E00
3C000000001E00
3C00000F001E00
3C00000F001E00
7C00000F003C00
7800000F003C00
7800000F007C00
7800000F807800
7FFFFF87C1F800
FFFFFF87FFF000
FFFFFF03FFE000
FFFFFF01FFC000
000000007F0000
ENDCHAR
STARTCHAR uni01C8
ENCODING 456
SWIDTH 778 0
DWIDTH 39 0
BBX 40 46 2 -10
BITMAP
01E000000F
01E000000F
03E000001F
03C000001E
03C0000000
03C0000000
03C0000000
03C0000000
0780000000
0780000000
078000003C
078000007C
0780000078
0F00000078
0F00000078
0F00000078
0F000000F0
0F000000F0
1E000000F0
1E000000F0
1E000001F0
1E000001E0
1E000001E0
3C000001E0
3C000001E0
3C000003C0
3C000003C0
3C000003C0
7C000003C0
78000007C0
7800000780
7800000780
7FFFFF8780
FFFFFF8780
FFFFFF0F00
FFFFFF0F00
0000000F00
0000000F00
0000001F00
0000001E00
0000001E00
0000003E00
000007FC00
00000FFC00
00000FF800
000007E000
ENDCHAR
STARTCHAR uni01C9
ENCODING 457
SWIDTH 444 0
DWIDTH 22 0
BBX 23 46 1 -10
BITMAP
00F01E
00F01E
01F03E
01E03C
01E000
01E000
01E000
03C000
03C000
03C000
03C078
07C0F8
0780F0
0780F0
0780F0
0780F0
0F01E0
0F01E0
0F01E0
0F01E0
1F03E0
1E03C0
1E03C0
1E03C0
1E03C0
3C0780
3C0780
3C0780
3C0780
7C0F80
780F00
780F00
780F00
780F00
F01E00
F01E00
001E00
001E00
003E00
003C00
003C00
007C00
0FF800
1FF800
1FF000
0FC000
ENDCHAR
STARTCHAR uni01CA
ENCODING 458
SWIDTH 1222 0
DWIDTH 61 0
BBX 59 37 2 -1
BITMAP
01F80001E00001E0
01F80001E00001E0
03F80003E00003E0
03FC0003C00003C0
03FC0003C00003C0
03FE0003C00003C0
03DE0003C00003C0
03DE0007C00003C0
079F000780000780
078F000780000780
078F800780000780
0787800780000780
0787800F00000780
0F07C00F00000F00
0F03C00F00000F00
0F03E00F00000F00
0F03E01F00000F00
0F01E01E00000F00
1E01F01E00001E00
1E01F01E00001E00
1E00F01E00001E00
1E00F83E00001E00
1E00783C00001E00
3C007C3C00003C00
3C007C3C00003C00
3C003C3C00003C00
3C003E781E003C00
3C003E781E003C00
7C001E781E007800
78001E781E007800
78000FF81E00F800
78000FF01F00F000
78000FF00F83F000
F80007F00FFFE000
F00007F007FFC000
F00007F003FF8000
0000000000FE0000
ENDCHAR
STARTCHAR uni01CB
ENCODING 459
SWIDTH 944 0
DWIDTH 47 0
BBX 47 46 2 -10
BITMAP
01F80001E01E
01F80001E01E
03F80003E03E
03FC0003C03C
03FC0003C000
03FE0003C000
03DE0003C000
03DE0007C000
079F00078000
078F00078000
078F80078078
0787800780F8
0787800F00F0
0F07C00F00F0
0F03C00F00F0
0F03E00F00F0
0F03E01F01E0
0F01E01E01E0
1E01F01E01E0
1E01F01E01E0
1E00F01E03E0
1E00F83E03C0
1E00783C03C0
3C007C3C03C0
3C007C3C03C0
3C003C3C0780
3C003E780780
3C003E780780
7C001E780780
78001E780F80
78000FF80F00
78000FF00F00
78000FF00F00
F80007F00F00
F00007F01E00
F00007F01E00
000000001E00
000000001E00
000000003E00
000000003C00
000000003C00
000000007C00
0000000FF800
0000001FF800
0000001FF000
0000000FC000
ENDCHAR
STARTCHAR uni01CC
ENCODING 460
SWIDTH 778 0
DWIDTH 39 0
BBX 39 46 2 -10
BITMAP
000000001E
000000001E
000000003E
000000003C
0000000000
0000000000
0000000000
0000000000
0000000000
0001F80000
03C7FC0078
07CFFE00F8
079FFF00F0
07BC1F00F0
07F00F00F0
07E00F80F0
0FC00F81E0
0F800F01E0
0F800F01E0
0F000F01E0
1F000F03E0
1E001F03C0
1E001E03C0
1E001E03C0
1E001E03C0
3C003E0780
3C003C0780
3C003C0780
3C003C0780
7C007C0F80
7800780F00
7800780F00
7800780F00
7800780F00
F000F01E00
F000F01E00
0000001E00
0000001E00
0000003E00
0000003C00
0000003C00
0000007C00
00000FF800
00001FF800
00001FF000
00000FC000
ENDCHAR
STARTCHAR uni01CD
ENCODING 461
SWIDTH 666 0
DWIDTH 33 0
BBX 31 45 0 0
BITMAP
0000781E
00003C3C
00003C78
00001CF0
00001FE0
00000FC0
00000F80
00000000
00000000
00003F80
00003F80
00007F80
00007BC0
0000FBC0
0000F3C0
0001F3C0
0001E3C0
0003E3C0
0003C3E0
0007C1E0
000781E0
000F81E0
000F01E0
001F01E0
001E01E0
003E00F0
003C00F0
007C00F0
00F800F0
00F800F0
01F000F0
01FFFFF8
03FFFFF8
03FFFFF8
07FFFFF8
07800078
0F800078
0F000078
1F00003C
1E00003C
3E00003C
3C00003C
7C00003C
7800003C
F800003C
ENDCHAR
STARTCHAR uni01CE
ENCODING 462
SWIDTH 556 0
DWIDTH 28 0
BBX 24 37 2 -1
BITMAP
003C0F
001E1E
001E3C
000E78
000FF0
0007E0
0007C0
000000
000000
001FC0
00FFF8
01FFFC
03FFFE
07E07F
0F801F
0F000F
1E000F
00000F
00000F
00001F
001FFF
07FFFE
1FFFFE
3FFFDE
7F801E
7C001E
F8003E
F0003C
F0003C
F0007C
F000FC
F801FC
7E07FC
7FFFBC
3FFF3C
1FFC3C
07F000
ENDCHAR
STARTCHAR uni01CF
ENCODING 463
SWIDTH 277 0
DWIDTH 14 0
BBX 18 45 3 0
BITMAP
0F03C0
078780
078F00
039E00
03FC00
01F800
01F000
000000
000000
01E000
01E000
03E000
03C000
03C000
03C000
03C000
03C000
078000
078000
078000
078000
078000
0F0000
0F0000
0F0000
0F0000
0F0000
1E0000
1E0000
1E0000
1E0000
1E0000
3C0000
3C0000
3C0000
3C0000
3C0000
7C0000
780000
780000
780000
780000
F80000
F00000
F00000
ENDCHAR
STARTCHAR uni01D0
ENCODING 464
SWIDTH 222 0
DWIDTH 11 0
BBX 17 36 2 0
BITMAP
1E0780
0F0F00
0F1E00
073C00
07F800
03F000
03E000
000000
000000
000000
03C000
078000
078000
078000
078000
078000
0F0000
0F0000
0F0000
0F0000
1E0000
1E0000
1E0000
1E0000
1E0000
3C0000
3C0000
3C0000
3C0000
7C0000
780000
780000
780000
780000
F00000
F00000
ENDCHAR
STARTCHAR uni01D1
ENCODING 465
SWIDTH 777 0
DWIDTH 39 0
BBX 33 46 5 -1
BITMAP
000781E000
0003C3C000
0003C78000
0001CF0000
0001FE0000
0000FC0000
0000F80000
0000000000
0003FC0000
001FFF8000
003FFFE000
00FFFFF000
01FE03F800
03F800FC00
07E0007C00
0FC0003E00
0F80001E00
1F00001F00
3E00000F00
3E00000F00
3C00000780
7C00000780
7800000780
7800000780
F800000780
F000000780
F000000780
F000000780
F000000F80
F000000F80
F000000F00
F000000F00
F000001F00
F000001E00
7800003E00
7800003C00
7800007C00
3C0000F800
3E0001F800
1F0003F000
1F800FE000
0FF03FC000
07FFFF8000
03FFFE0000
00FFF80000
001FE00000
ENDCHAR
STARTCHAR uni01D2
ENCODING 466
SWIDTH 556 0
DWIDTH 28 0
BBX 25 37 2 -1
BITMAP
003C0F00
001E1E00
001E3C00
000E7800
000FF000
0007E000
0007C000
00000000
00000000
001FC000
00FFF000
03FFF800
07FFFC00
0FE07E00
0F801F00
1F000F00
3E000F80
3C000780
7C000780
78000780
78000780
F8000780
F0000780
F0000780
F0000F80
F0000F00
F0000F00
F0001F00
F0003E00
F8003E00
78007C00
7C01FC00
3F07F800
3FFFF000
1FFFE000
07FF8000
01FC0000
ENDCHAR
STARTCHAR uni01D3
ENCODING 467
SWIDTH 722 0
DWIDTH 36 0
BBX 32 46 5 -1
BITMAP
000781E0
0003C3C0
0003C780
0001CF00
0001FE00
0000FC00
0000F800
00000000
00000000
0780000F
0780000F
0780000F
0F00001E
0F00001E
0F00001E
0F00001E
1F00001E
1E00003C
1E00003C
1E00003C
1E00003C
3E00007C
3C000078
3C000078
3C000078
3C000078
7C0000F8
780000F0
780000F0
780000F0
780000F0
F80001F0
F00001E0
F00001E0
F00003E0
F00003C0
F00003C0
F00007C0
F8000F80
7C001F80
7E003F00
3F80FE00
1FFFFC00
0FFFF800
03FFE000
00FF8000
ENDCHAR
STARTCHAR uni01D4
ENCODING 468
SWIDTH 556 0
DWIDTH 28 0
BBX 25 37 3 -1
BITMAP
003C0F00
001E1E00
001E3C00
000E7800
000FF000
0007E000
0007C000
00000000
00000000
00000000
07800780
0F000F80
0F000F00
0F000F00
0F000F00
1F000F00
1E001E00
1E001E00
1E001E00
3E001E00
3C003E00
3C003C00
3C003C00
3C003C00
78007C00
78007800
78007800
7800F800
F800F800
F001F800
F003F000
F807F000
FC1EF000
7FFCF000
7FF9E000
3FE1E000
0F800000
ENDCHAR
STARTCHAR uni01D5
ENCODING 469
SWIDTH 722 0
DWIDTH 36 0
BBX 32 47 5 -1
BITMAP
0003FFC0
0003FFC0
0003FFC0
00000000
00000000
000381C0
00070380
00070380
00070380
00000000
0780000F
0780000F
0780000F
0F00001E
0F00001E
0F00001E
0F00001E
1F00001E
1E00003C
1E00003C
1E00003C
1E00003C
3E00007C
3C000078
3C000078
3C000078
3C000078
7C0000F8
780000F0
780000F0
780000F0
780000F0
F80001F0
F00001E0
F00001E0
F00003E0
F00003C0
F00003C0
F00007C0
F8000F80
7C001F80
7E003F00
3F80FE00
1FFFFC00
0FFFF800
03FFE000
00FF8000
ENDCHAR
STARTCHAR uni01D6
ENCODING 470
SWIDTH 556 0
DWIDTH 28 0
BBX 25 43 3 -1
BITMAP
003FFF80
007FFF80
007FFF00
00000000
00000000
00000000
00000000
00000000
00000000
003C3C00
003C3C00
00787800
00787800
00000000
00000000
00000000
07800780
0F000F80
0F000F00
0F000F00
0F000F00
1F000F00
1E001E00
1E001E00
1E001E00
3E001E00
3C003E00
3C003C00
3C003C00
3C003C00
78007C00
78007800
78007800
7800F800
F800F800
F001F800
F003F000
F807F000
FC1EF000
7FFCF000
7FF9E000
3FE1E000
0F800000
ENDCHAR
STARTCHAR uni01D7
ENCODING 471
SWIDTH 722 0
DWIDTH 36 0
BBX 32 47 5 -1
BITMAP
000007C0
00000F00
00001E00
00003800
00000000
000381C0
00070380
00070380
00070380
00000000
0780000F
0780000F
0780000F
0F00001E
0F00001E
0F00001E
0F00001E
1F00001E
1E00003C
1E00003C
1E00003C
1E00003C
3E00007C
3C000078
3C000078
3C000078
3C000078
7C0000F8
780000F0
780000F0
780000F0
780000F0
F80001F0
F00001E0
F00001E0
F00003E0
F00003C0
F00003C0
F00007C0
F8000F80
7C001F80
7E003F00
3F80FE00
1FFFFC00
0FFFF800
03FFE000
00FF8000
ENDCHAR
STARTCHAR uni01D8
ENCODING 472
SWIDTH 556 0
DWIDTH 28 0
BBX 25 46 3 -1
BITMAP
00003F00
00007E00
00007C00
0000F800
0000F000
0001E000
0001C000
00038000
00000000
00000000
00000000
00000000
003C3C00
003C3C00
00787800
00787800
00000000
00000000
00000000
07800780
0F000F80
0F000F00
0F000F00
0F000F00
1F000F00
1E001E00
1E001E00
1E001E00
3E001E00
3C003E00
3C003C00
3C003C00
3C003C00
78007C00
78007800
78007800
7800F800
F800F800
F001F800
F003F000
F807F000
FC1EF000
7FFCF000
7FF9E000
3FE1E000
0F800000
ENDCHAR
STARTCHAR uni01D9
ENCODING 473
SWIDTH 722 0
DWIDTH 36 0
BBX 32 47 5 -1
BITMAP
0001C380
0000E700
00007E00
00003C00
00000000
000381C0
00070380
00070380
00070380
00000000
0780000F
0780000F
0780000F
0F00001E
0F00001E
0F00001E
0F00001E
1F00001E
1E00003C
1E00003C
1E00003C
1E00003C
3E00007C
3C000078
3C000078
3C000078
3C000078
7C0000F8
780000F0
780000F0
780000F0
780000F0
F80001F0
F00001E0
F00001E0
F00003E0
F00003C0
F00003C0
F00007C0
F8000F80
7C001F80
7E003F00
3F80FE00
1FFFFC00
0FFFF800
03FFE000
00FF8000
ENDCHAR
STARTCHAR uni01DA
ENCODING 474
SWIDTH 556 0
DWIDTH 28 0
BBX 25 46 3 -1
BITMAP
001E0780
000F0F00
000F1E00
00073C00
0007F800
0003F000
0003E000
00000000
00000000
00000000
00000000
00000000
003C3C00
003C3C00
00787800
00787800
00000000
00000000
00000000
07800780
0F000F80
0F000F00
0F000F00
0F000F00
1F000F00
1E001E00
1E001E00
1E001E00
3E001E00
3C003E00
3C003C00
3C003C00
3C003C00
78007C00
78007800
78007800
7800F800
F800F800
F001F800
F003F000
F807F000
FC1EF000
7FFCF000
7FF9E000
3FE1E000
0F800000
ENDCHAR
STARTCHAR uni01DB
ENCODING 475
SWIDTH 722 0
DWIDTH 36 0
BBX 32 47 5 -1
BITMAP
0000F000
00007800
00003800
00001C00
00000000
000381C0
00070380
00070380
00070380
00000000
0780000F
0780000F
0780000F
0F00001E
0F00001E
0F00001E
0F00001E
1F00001E
1E00003C
1E00003C
1E00003C
1E00003C
3E00007C
3C000078
3C000078
3C000078
3C000078
7C0000F8
780000F0
780000F0
780000F0
780000F0
F80001F0
F00001E0
F00001E0
F00003E0
F00003C0
F00003C0
F00007C0
F8000F80
7C001F80
7E003F00
3F80FE00
1FFFFC00
0FFFF800
03FFE000
00FF8000
ENDCHAR
STARTCHAR uni01DC
ENCODING 476
SWIDTH 556 0
DWIDTH 28 0
BBX 25 46 3 -1
BITMAP
001F0000
000F8000
000F8000
00078000
0003C000
0003C000
0001C000
0001E000
00000000
00000000
00000000
00000000
003C3C00
003C3C00
00787800
00787800
00000000
00000000
00000000
07800780
0F000F80
0F000F00
0F000F00
0F000F00
1F000F00
1E001E00
1E001E00
1E001E00
3E001E00
3C003E00
3C003C00
3C003C00
3C003C00
78007C00
78007800
78007800
7800F800
F800F800
F001F800
F003F000
F807F000
FC1EF000
7FFCF000
7FF9E000
3FE1E000
0F800000
ENDCHAR
STARTCHAR uni01DD
ENCODING 477
SWIDTH 556 0
DWIDTH 28 0
BBX 25 28 2 -1
BITMAP
001FC000
007FF000
01FFFC00
03FFFE00
07F07E00
0FC01F00
1F800F00
1F000F80
3E000780
3C000780
00000780
00000780
00000780
FFFFFF80
FFFFFF80
FFFFFF80
FFFFFF00
F0000F00
F0000F00
F0001E00
F0003E00
78007C00
7C00F800
3F03F800
3FFFF000
1FFFC000
07FF8000
01FC0000
ENDCHAR
STARTCHAR uni01DE
ENCODING 478
SWIDTH 666 0
DWIDTH 33 0
BBX 30 46 0 0
BITMAP
00007FF8
00007FF8
00007FF8
00000000
00000000
00007038
0000E070
0000E070
0000E070
00000000
00003F80
00003F80
00007F80
00007BC0
0000FBC0
0000F3C0
0001F3C0
0001E3C0
0003E3C0
0003C3E0
0007C1E0
000781E0
000F81E0
000F01E0
001F01E0
001E01E0
003E00F0
003C00F0
007C00F0
00F800F0
00F800F0
01F000F0
01FFFFF8
03FFFFF8
03FFFFF8
07FFFFF8
07800078
0F800078
0F000078
1F00003C
1E00003C
3E00003C
3C00003C
7C00003C
7800003C
F800003C
ENDCHAR
STARTCHAR uni01DF
ENCODING 479
SWIDTH 556 0
DWIDTH 28 0
BBX 25 43 2 -1
BITMAP
003FFF80
007FFF80
007FFF00
00000000
00000000
00000000
00000000
00000000
00000000
003C3C00
003C3C00
00787800
00787800
00000000
00000000
001FC000
00FFF800
01FFFC00
03FFFE00
07E07F00
0F801F00
0F000F00
1E000F00
00000F00
00000F00
00001F00
001FFF00
07FFFE00
1FFFFE00
3FFFDE00
7F801E00
7C001E00
F8003E00
F0003C00
F0003C00
F0007C00
F000FC00
F801FC00
7E07FC00
7FFFBC00
3FFF3C00
1FFC3C00
07F00000
ENDCHAR
STARTCHAR uni01E0
ENCODING 480
SWIDTH 666 0
DWIDTH 33 0
BBX 30 45 0 0
BITMAP
00007FF8
00007FF8
00007FF8
00000000
00000000
00000380
00000700
00000700
00000700
00003F80
00003F80
00007F80
00007BC0
0000FBC0
0000F3C0
0001F3C0
0001E3C0
0003E3C0
0003C3E0
0007C1E0
000781E0
000F81E0
000F01E0
001F01E0
001E01E0
003E00F0
003C00F0
007C00F0
00F800F0
00F800F0
01F000F0
01FFFFF8
03FFFFF8
03FFFFF8
07FFFFF8
07800078
0F800078
0F000078
1F00003C
1E00003C
3E00003C
3C00003C
7C00003C
7800003C
F800003C
ENDCHAR
STARTCHAR uni01E1
ENCODING 481
SWIDTH 556 0
DWIDTH 28 0
BBX 25 43 2 -1
BITMAP
003FFF80
007FFF80
007FFF00
00000000
00000000
00000000
00000000
00000000
00000000
0003C000
0003C000
00078000
00078000
00000000
00000000
001FC000
00FFF800
01FFFC00
03FFFE00
07E07F00
0F801F00
0F000F00
1E000F00
00000F00
00000F00
00001F00
001FFF00
07FFFE00
1FFFFE00
3FFFDE00
7F801E00
7C001E00
F8003E00
F0003C00
F0003C00
F0007C00
F000FC00
F801FC00
7E07FC00
7FFFBC00
3FFF3C00
1FFC3C00
07F00000
ENDCHAR
STARTCHAR uni01E2
ENCODING 482
SWIDTH 1000 0
DWIDTH 50 0
BBX 54 41 -2 0
BITMAP
00000000FFFE00
00000001FFFE00
00000001FFFC00
00000000000000
00000000000000
000003FFFFFFFC
000007FFFFFFFC
00000FFFFFFFF8
00000FFFFFFFF8
00001F07800000
00001E07800000
00003E07800000
00007C0F000000
0000780F000000
0000F80F000000
0000F00F000000
0001E01F000000
0003E01E000000
0003C01E000000
0007C01E000000
0007801FFFFFE0
000F003FFFFFE0
001F003FFFFFC0
001E003FFFFFC0
003E003C000000
007C007C000000
00780078000000
00FFFFF8000000
00FFFFF8000000
01FFFFF8000000
03FFFFF0000000
03C000F0000000
07C000F0000000
078000F0000000
0F0001F0000000
1F0001E0000000
1E0001E0000000
3E0001FFFFFF80
3C0001FFFFFF80
780003FFFFFF00
F80003FFFFFF00
ENDCHAR
STARTCHAR uni01E3
ENCODING 483
SWIDTH 889 0
DWIDTH 44 0
BBX 40 33 2 -1
BITMAP
00007FFF00
0000FFFF00
0000FFFE00
0000000000
0000000000
003FC00FC0
00FFF83FF0
03FFFC7FF8
07FFFEFFFC
0FC07FF07C
1F003FE03E
1E001F801E
3C001F800F
00001F000F
00001F000F
00003E000F
000FFFFFFF
07FFFFFFFF
1FFFFFFFFF
3FFFBFFFFF
7FC03E0000
7C007E0000
F8007E0000
F000FE001E
F000FE003C
F001FF003C
F003FF0078
F807DF80F8
7C0F9FC3F0
7FFF0FFFE0
3FFE07FFC0
1FFC03FF80
07E000FC00
ENDCHAR
STARTCHAR uni01E4
ENCODING 484
SWIDTH 777 0
DWIDTH 39 0
BBX 33 38 5 -1
BITMAP
0001FF0000
000FFFC000
003FFFF000
007FFFF800
01FE01FC00
03F8007E00
07E0003E00
07C0001F00
0F80000F00
1F00000F80
1E00000780
3E00000780
3C00000000
3C00000000
7800000000
7800000000
7800000000
F800000000
F000000000
F000FFFE00
F000FFFE00
F001FFFE00
F001FFFE00
F000001E00
F000003C00
F000003C00
F001FFFF80
F803FFFF00
7803FFFF00
7C03FFFF00
3C00007800
3E0000F800
1F0003F800
1FE01FF800
0FFFFFE000
03FFFFC000
01FFFE0000
003FF00000
ENDCHAR
STARTCHAR uni01E5
ENCODING 485
SWIDTH 556 0
DWIDTH 28 0
BBX 28 37 1 -10
BITMAP
001FC000
007FF1F0
00FFF9E0
01FFFDE0
03F07DE0
07C01FE0
0F800FC0
0F000FC0
1F0007C0
1E0007C0
1E000780
3C000780
3C000780
3C000780
3C000700
3C000F00
3C000F00
3C001F00
3E001F00
1E003E00
1F007E00
0F81FE00
0FFFFE00
07FFBC00
03FF3C00
00FC3C00
00003C00
FFFFFF00
FFFFFF00
00007800
7800F800
7801F000
7E03F000
3FFFE000
1FFFC000
0FFF8000
03FC0000
ENDCHAR
STARTCHAR uni01E6
ENCODING 486
SWIDTH 777 0
DWIDTH 39 0
BBX 34 46 5 -1
BITMAP
0001E07800
0000F0F000
0000F1E000
000073C000
00007F8000
00003F0000
00003E0000
0000000000
0000FF0000
000FFFE000
003FFFF800
007FFFFC00
00FF01FE00
03F8003F00
03F0001F00
07C0000F80
0F80000F80
1F00000780
1E000007C0
3E00000300
3C00000000
3C00000000
7800000000
7800000000
7800000000
F800000000
F000000000
F000FFFF00
F000FFFF00
F001FFFF00
F001FFFE00
F000001E00
F000001E00
F000001E00
F000003E00
7800003C00
7800003C00
7C00003C00
3C00003C00
3E0000F800
1F8003F800
1FE01FF800
0FFFFFF000
03FFFFC000
01FFFE0000
003FF00000
ENDCHAR
STARTCHAR uni01E7
ENCODING 487
SWIDTH 556 0
DWIDTH 28 0
BBX 26 46 1 -10
BITMAP
00781E00
003C3C00
003C7800
001CF000
001FE000
000FC000
000F8000
00000000
00000000
001F8000
007FE3C0
01FFF3C0
03FFFBC0
07E0FFC0
0FC03FC0
0F801F80
1F000F80
1E000F80
3C000F80
3C000F00
7C000F00
78000F00
78000F00
78000F00
78001E00
78001E00
78001E00
78003E00
7C007C00
3C007C00
3E01FC00
3F07FC00
1FFFFC00
0FFF7800
07FE7800
01F87800
0000F800
0000F000
F000F000
F001F000
F803E000
FC07E000
7FFFC000
3FFF8000
1FFF0000
07F80000
ENDCHAR
STARTCHAR uni01E8
ENCODING 488
SWIDTH 666 0
DWIDTH 33 0
BBX 34 45 2 0
BITMAP
0001E07800
0000F0F000
0000F1E000
000073C000
00007F8000
00003F0000
00003E0000
0000000000
0000000000
00F00007C0
00F0000F80
01E0003F00
01E0007E00
01E000FC00
01E001F800
01E003F000
03C007E000
03C00F8000
03C01F0000
03C07E0000
07C0FC0000
0781F80000
0783F00000
0787E00000
078FC00000
0F1FC00000
0F7FE00000
0FFDF00000
0FF8F00000
1FF0F80000
1FE0780000
1F807C0000
1F003C0000
1E001E0000
3C001F0000
3C000F0000
3C000F8000
3C00078000
7C0007C000
780003C000
780003E000
780001E000
780000F000
F00000F800
F000007800
ENDCHAR
STARTCHAR uni01E9
ENCODING 489
SWIDTH 500 0
DWIDTH 25 0
BBX 25 45 2 0
BITMAP
00781E00
003C3C00
003C7800
001CF000
001FE000
000FC000
000F8000
00000000
00000000
00F00000
00F00000
01E00000
01E00000
01E00000
01E00000
01E00000
03C00000
03C00000
03C00000
03C01F80
07803F00
07807E00
0780FC00
0781F800
0783F000
0F07C000
0F0F8000
0F1F0000
0F3E0000
1F7E0000
1EFE0000
1FFF0000
1FCF0000
1F8F8000
3F078000
3E078000
3C03C000
3C03C000
7803E000
7801E000
7801E000
7800F000
7800F000
F000F800
F0007800
ENDCHAR
STARTCHAR uni01EA
ENCODING 490
SWIDTH 777 0
DWIDTH 39 0
BBX 33 48 5 -11
BITMAP
0003FC0000
001FFF8000
003FFFE000
00FFFFF000
01FE03F800
03F800FC00
07E0007C00
0FC0003E00
0F80001E00
1F00001F00
3E00000F00
3E00000F00
3C00000780
7C00000780
7800000780
7800000780
F800000780
F000000780
F000000780
F000000780
F000000F80
F000000F80
F000000F00
F000000F00
F000001F00
F000001E00
7800003E00
7800003C00
7800007C00
3C0000F800
3E0001F800
1F0003F000
1F800FE000
0FF03FC000
07FFFF8000
03FFFE0000
00FFF80000
001FE00000
0003800000
0003000000
0007000000
0006000000
000E000000
000E000000
000F100000
000FE00000
0007E00000
0003C00000
ENDCHAR
STARTCHAR uni01EB
ENCODING 491
SWIDTH 556 0
DWIDTH 28 0
BBX 25 38 2 -11
BITMAP
001FC000
00FFF000
03FFF800
07FFFC00
0FE07E00
0F801F00
1F000F00
3E000F80
3C000780
7C000780
78000780
78000780
F8000780
F0000780
F0000780
F0000F80
F0000F00
F0000F00
F0001F00
F0003E00
F8003E00
78007C00
7C01FC00
3F07F800
3FFFF000
1FFFE000
07FF8000
01FC0000
00380000
00300000
00700000
00600000
00E00000
00E00000
00F10000
00FE0000
007E0000
003C0000
ENDCHAR
STARTCHAR uni01EC
ENCODING 492
SWIDTH 777 0
DWIDTH 39 0
BBX 33 52 5 -11
BITMAP
000FFFE000
001FFFE000
001FFFC000
0000000000
0003FC0000
001FFF8000
003FFFE000
00FFFFF000
01FE03F800
03F800FC00
07E0007C00
0FC0003E00
0F80001E00
1F00001F00
3E00000F00
3E00000F00
3C00000780
7C00000780
7800000780
7800000780
F800000780
F000000780
F000000780
F000000780
F000000F80
F000000F80
F000000F00
F000000F00
F000001F00
F000001E00
7800003E00
7800003C00
7800007C00
3C0000F800
3E0001F800
1F0003F000
1F800FE000
0FF03FC000
07FFFF8000
03FFFE0000
00FFF80000
001FE00000
0003800000
0003000000
0007000000
0006000000
000E000000
000E000000
000F100000
000FE00000
0007E00000
0003C00000
ENDCHAR
STARTCHAR uni01ED
ENCODING 493
SWIDTH 556 0
DWIDTH 28 0
BBX 25 43 2 -11
BITMAP
00FFFE00
01FFFE00
01FFFC00
00000000
00000000
001FC000
00FFF000
03FFF800
07FFFC00
0FE07E00
0F801F00
1F000F00
3E000F80
3C000780
7C000780
78000780
78000780
F8000780
F0000780
F0000780
F0000F80
F0000F00
F0000F00
F0001F00
F0003E00
F8003E00
78007C00
7C01FC00
3F07F800
3FFFF000
1FFFE000
07FF8000
01FC0000
00380000
00300000
00700000
00600000
00E00000
00E00000
00F10000
00FE0000
007E0000
003C0000
ENDCHAR
STARTCHAR uni01EE
ENCODING 494
SWIDTH 610 0
DWIDTH 31 0
BBX 34 55 -2 -10
BITMAP
0000F03C00
0000787800
000078F000
000039E000
00003FC000
00001F8000
00001F0000
0000000000
0000000000
007FFFFFC0
007FFFFFC0
00FFFFFFC0
00FFFFFFC0
0000000F80
0000001F00
0000003E00
0000007C00
000000F800
000001F000
000003E000
000007C000
00000F8000
00001F0000
00003E0000
00007C0000
0000FF8000
0000FFC000
0000FFF000
0000FFF800
000007F800
000000FC00
0000007C00
0000003E00
0000003E00
0000001E00
0000001E00
0000001E00
0000001E00
0000001E00
0000001E00
0000001C00
0000003C00
0000003C00
3000007C00
F000007800
F00000F800
F80001F000
780003E000
7C0007E000
7E001FC000
3F80FF8000
1FFFFF0000
0FFFFC0000
03FFF00000
00FF800000
ENDCHAR
STARTCHAR uni01EF
ENCODING 495
SWIDTH 500 0
DWIDTH 25 0
BBX 30 46 -2 -10
BITMAP
0003C0F0
0001E1E0
0001E3C0
0000E780
0000FF00
00007E00
00007C00
00000000
00000000
00000000
007FFFFC
00FFFFF8
00FFFFF8
00FFFFF8
000003E0
000007C0
00000F80
00003F00
00007E00
0000FC00
0001F000
0003E000
0007C000
000FC000
000FF000
000FFC00
001FFC00
0000FE00
00003E00
00001F00
00001F00
00000F00
00000F00
00000F00
00000F00
F0000F00
F0000F00
F8001E00
78003E00
7C003C00
7E00FC00
3F03F800
1FFFF000
0FFFE000
07FF8000
00FE0000
ENDCHAR
STARTCHAR uni01F0
ENCODING 496
SWIDTH 222 0
DWIDTH 11 0
BBX 24 46 -6 -10
BITMAP
003C0F
001E1E
001E3C
000E78
000FF0
0007E0
0007C0
000000
000000
000000
000780
000780
000780
000F00
000F00
000F00
000F00
000F00
001E00
001E00
001E00
001E00
003E00
003C00
003C00
003C00
003C00
007800
007800
007800
007800
007800
00F000
00F000
00F000
00F000
01F000
01E000
01E000
01E000
03E000
07C000
7FC000
FF8000
FF0000
7E0000
ENDCHAR
STARTCHAR uni01F1
ENCODING 497
SWIDTH 1333 0
DWIDTH 67 0
BBX 68 36 2 0
BITMAP
00FFFF00003FFFFFF0
00FFFFE0003FFFFFF0
01FFFFF8003FFFFFF0
01FFFFFC003FFFFFE0
01E000FE00000003E0
01E0003F00000007C0
01E0001F0000000F80
03C0000F8000001F00
03C000078000003E00
03C000078000007C00
03C00003C00000F800
07C00003C00000F000
07800003C00001F000
07800003C00003E000
07800003C00007C000
07800003C0000F8000
0F000003C0001F0000
0F000003C0003E0000
0F000003C0003C0000
0F000007C0007C0000
1F0000078000F80000
1E0000078001F00000
1E00000F8003E00000
1E00000F0007C00000
1E00001F000F800000
3C00001E001F000000
3C00003E001E000000
3C00007C003E000000
3C0000FC007C000000
7C0003F800F8000000
78000FF001F0000000
78007FE003E0000000
7FFFFFC007FFFFFF00
7FFFFF0007FFFFFF00
FFFFFC000FFFFFFF00
FFFFE0000FFFFFFE00
ENDCHAR
STARTCHAR uni01F2
ENCODING 498
SWIDTH 1222 0
DWIDTH 61 0
BBX 59 36 2 0
BITMAP
00FFFF0000000000
00FFFFE000000000
01FFFFF800000000
01FFFFFC00000000
01E000FE00000000
01E0003F00000000
01E0001F00000000
03C0000F80000000
03C0000780000000
03C0000780000000
03C00003C0FFFFE0
07C00003C0FFFFE0
07800003C1FFFFC0
07800003C1FFFFC0
07800003C0000F80
07800003C0001F00
0F000003C0003E00
0F000003C0003C00
0F000003C0007C00
0F000007C000F800
1F0000078001F000
1E0000078003E000
1E00000F8007C000
1E00000F000F8000
1E00001F001F0000
3C00001E003E0000
3C00003E003E0000
3C00007C007C0000
3C0000FC00F80000
7C0003F801F00000
78000FF003E00000
78007FE007C00000
7FFFFFC007FFFF00
7FFFFF000FFFFF00
FFFFFC000FFFFE00
FFFFE0000FFFFE00
ENDCHAR
STARTCHAR uni01F3
ENCODING 499
SWIDTH 1056 0
DWIDTH 53 0
BBX 51 37 2 -1
BITMAP
000000F0000000
000000F0000000
000001F0000000
000001E0000000
000001E0000000
000001E0000000
000001E0000000
000003E0000000
000003C0000000
003F03C0000000
00FFC3C0FFFFE0
03FFE7C0FFFFE0
07FFF7C1FFFFC0
0FE0FF81FFFFC0
0F803F80000F80
1F001F80001F00
3E001F80003E00
3C000F80003C00
7C000F00007C00
78000F0000F800
78000F0001F000
F8000F0003E000
F0000F0007C000
F0000E000F8000
F0001E001F0000
F0001E003E0000
F0001E003E0000
F0003E007C0000
F0003C00F80000
F8007C01F00000
7800FC03E00000
7C01FC07C00000
7F07FC07FFFF00
3FFFBC0FFFFF00
1FFF780FFFFE00
0FFC780FFFFE00
03F00000000000
ENDCHAR
STARTCHAR uni01F4
ENCODING 500
SWIDTH 777 0
DWIDTH 39 0
BBX 34 47 5 -1
BITMAP
000003F000
000007E000
000007C000
00000F8000
00000F0000
00001E0000
00001C0000
0000380000
0000000000
0000FF0000
000FFFE000
003FFFF800
007FFFFC00
00FF01FE00
03F8003F00
03F0001F00
07C0000F80
0F80000F80
1F00000780
1E000007C0
3E00000300
3C00000000
3C00000000
7800000000
7800000000
7800000000
F800000000
F000000000
F000FFFF00
F000FFFF00
F001FFFF00
F001FFFE00
F000001E00
F000001E00
F000001E00
F000003E00
7800003C00
7800003C00
7C00003C00
3C00003C00
3E0000F800
1F8003F800
1FE01FF800
0FFFFFF000
03FFFFC000
01FFFE0000
003FF00000
ENDCHAR
STARTCHAR uni01F5
ENCODING 501
SWIDTH 556 0
DWIDTH 28 0
BBX 26 47 1 -10
BITMAP
00007E00
0000FC00
0000F800
0001F000
0001E000
0003C000
00038000
00070000
00000000
00000000
001F8000
007FE3C0
01FFF3C0
03FFFBC0
07E0FFC0
0FC03FC0
0F801F80
1F000F80
1E000F80
3C000F80
3C000F00
7C000F00
78000F00
78000F00
78000F00
78001E00
78001E00
78001E00
78003E00
7C007C00
3C007C00
3E01FC00
3F07FC00
1FFFFC00
0FFF7800
07FE7800
01F87800
0000F800
0000F000
F000F000
F001F000
F803E000
FC07E000
7FFFC000
3FFF8000
1FFF0000
07F80000
ENDCHAR
STARTCHAR uni01F6
ENCODING 502
SWIDTH 1034 0
DWIDTH 52 0
BBX 50 37 2 -1
BITMAP
01E00001E00000
01E00001E00000
01E00001E00000
01E00001E00000
01E00003E00000
03C00003C00000
03C00003C00000
03C00003C00000
03C00003C00000
03C00007C00000
078000078003C0
07800007800780
07800007800780
07800007800780
0F80000F000780
0FFFFFFF000780
0FFFFFFF000F00
0FFFFFFF000F00
0FFFFFFF000F00
1F00001E000F00
1E00001E001F00
1E00001E001E00
1E00001E001E00
1E00001E001E00
3C00003C001E00
3C00003C003C00
3C00003C003C00
3C00003C003C00
3C00003C007C00
7800003C007800
7800003C00F800
7800003E01F000
7800001F03F000
7800001FFFE000
F000000FFFC000
F0000003FF8000
00000000FE0000
ENDCHAR
STARTCHAR uni01F7
ENCODING 503
SWIDTH 617 0
DWIDTH 31 0
BBX 31 47 0 -10
BITMAP
00003F80
003CFFE0
0079FFF0
007BFFF8
007FC1FC
007F007C
00FE003C
00FC003E
00F8001E
00F0001E
00F0001E
01F0001E
01E0001E
01E0001E
01E0001E
01E0003E
03C0003C
03C0003C
03C0003C
03C00078
03C00078
078000F8
078000F0
078001F0
078003E0
0F8003C0
0F0007C0
0F000F80
0F001F00
0F003E00
1F007C00
1E01F800
1E03F000
1E07E000
1E1FC000
3C7F0000
3DFE0000
3FF80000
3FE00000
3F800000
7E000000
78000000
78000000
78000000
78000000
F0000000
F0000000
ENDCHAR
STARTCHAR uni01F8
ENCODING 504
SWIDTH 722 0
DWIDTH 36 0
BBX 35 46 2 0
BITMAP
0001F00000
0000F80000
0000F80000
0000780000
00003C0000
00003C0000
00001C0000
00001E0000
0000000000
0000000000
01F80001E0
01F80001E0
03F80003E0
03FC0003C0
03FC0003C0
03FE0003C0
03DE0003C0
03DE0007C0
079F000780
078F000780
078F800780
0787800780
0787800F00
0F07C00F00
0F03C00F00
0F03E00F00
0F03E01F00
0F01E01E00
1E01F01E00
1E01F01E00
1E00F01E00
1E00F83E00
1E00783C00
3C007C3C00
3C007C3C00
3C003C3C00
3C003E7800
3C003E7800
7C001E7800
78001E7800
78000FF800
78000FF000
78000FF000
F80007F000
F00007F000
F00007F000
ENDCHAR
STARTCHAR uni01F9
ENCODING 505
SWIDTH 556 0
DWIDTH 28 0
BBX 25 37 2 0
BITMAP
001F0000
000F8000
000F8000
00078000
0003C000
0003C000
0001C000
0001E000
00000000
00000000
0001F800
03C7FC00
07CFFE00
079FFF00
07BC1F00
07F00F00
07E00F80
0FC00F80
0F800F00
0F800F00
0F000F00
1F000F00
1E001F00
1E001E00
1E001E00
1E001E00
3C003E00
3C003C00
3C003C00
3C003C00
7C007C00
78007800
78007800
78007800
78007800
F000F000
F000F000
ENDCHAR
STARTCHAR Aringacute
ENCODING 506
SWIDTH 666 0
DWIDTH 33 0
BBX 31 50 0 0
BITMAP
0000007E
000000FC
000000F8
000001F0
000001E0
000003C0
00000380
00000F80
00001FC0
000038E0
00003060
00003060
00003060
000038E0
00003FC0
00003F80
00007F80
00007BC0
0000FBC0
0000F3C0
0001F3C0
0001E3C0
0003E3C0
0003C3E0
0007C1E0
000781E0
000F81E0
000F01E0
001F01E0
001E01E0
003E00F0
003C00F0
007C00F0
00F800F0
00F800F0
01F000F0
01FFFFF8
03FFFFF8
03FFFFF8
07FFFFF8
07800078
0F800078
0F000078
1F00003C
1E00003C
3E00003C
3C00003C
7C00003C
7800003C
F800003C
ENDCHAR
STARTCHAR aringacute
ENCODING 507
SWIDTH 556 0
DWIDTH 28 0
BBX 24 48 2 -1
BITMAP
00003F
00007E
00007C
0000F8
0000F0
0001E0
0001C0
000380
000000
0007C0
000FE0
001C70
001830
001830
001830
001C70
000FE0
0007C0
000000
000000
001FC0
00FFF8
01FFFC
03FFFE
07E07F
0F801F
0F000F
1E000F
00000F
00000F
00001F
001FFF
07FFFE
1FFFFE
3FFFDE
7F801E
7C001E
F8003E
F0003C
F0003C
F0007C
F000FC
F801FC
7E07FC
7FFFBC
3FFF3C
1FFC3C
07F000
ENDCHAR
STARTCHAR AEacute
ENCODING 508
SWIDTH 1000 0
DWIDTH 50 0
BBX 54 46 -2 0
BITMAP
000000003F0000
000000007E0000
000000007C0000
00000000F80000
00000000F00000
00000001E00000
00000001C00000
00000003800000
00000000000000
00000000000000
000003FFFFFFFC
000007FFFFFFFC
00000FFFFFFFF8
00000FFFFFFFF8
00001F07800000
00001E07800000
00003E07800000
00007C0F000000
0000780F000000
0000F80F000000
0000F00F000000
0001E01F000000
0003E01E000000
0003C01E000000
0007C01E000000
0007801FFFFFE0
000F003FFFFFE0
001F003FFFFFC0
001E003FFFFFC0
003E003C000000
007C007C000000
00780078000000
00FFFFF8000000
00FFFFF8000000
01FFFFF8000000
03FFFFF0000000
03C000F0000000
07C000F0000000
078000F0000000
0F0001F0000000
1F0001E0000000
1E0001E0000000
3E0001FFFFFF80
3C0001FFFFFF80
780003FFFFFF00
F80003FFFFFF00
ENDCHAR
STARTCHAR aeacute
ENCODING 509
SWIDTH 889 0
DWIDTH 44 0
BBX 40 38 2 -1
BITMAP
000000FC00
000001F800
000001F000
000003E000
000003C000
0000078000
0000070000
00000E0000
0000000000
0000000000
003FC00FC0
00FFF83FF0
03FFFC7FF8
07FFFEFFFC
0FC07FF07C
1F003FE03E
1E001F801E
3C001F800F
00001F000F
00001F000F
00003E000F
000FFFFFFF
07FFFFFFFF
1FFFFFFFFF
3FFFBFFFFF
7FC03E0000
7C007E0000
F8007E0000
F000FE001E
F000FE003C
F001FF003C
F003FF0078
F807DF80F8
7C0F9FC3F0
7FFF0FFFE0
3FFE07FFC0
1FFC03FF80
07E000FC00
ENDCHAR
STARTCHAR Oslashacute
ENCODING 510
SWIDTH 777 0
DWIDTH 39 0
BBX 34 49 4 -3
BITMAP
00000FC000
00001F8000
00001F0000
00003E0000
00003C0000
0000780000
0000700000
0000E00100
00000003C0
0001FF03C0
000FFFE7C0
003FFFFF80
007FFFFF00
00FF03FE00
01F8007E00
03F0007F00
07C000FF00
0F8001FF80
0F8003EF80
1F0007C780
1E000787C0
3E000F83C0
3C001F03C0
3C003E03C0
3C007C03C0
7C007803C0
7800F803C0
7801F003C0
7803E003C0
7807C007C0
78078007C0
780F800780
781F000780
783E000F80
7C7C000F00
3C78001F00
3CF8001E00
3FF0003E00
3FE0007C00
1FC000FC00
1F8001F800
0FC007F000
1FF81FE000
3FFFFFC000
7DFFFF0000
787FFC0000
F81FE00000
7000000000
2000000000
ENDCHAR
STARTCHAR oslashacute
ENCODING 511
SWIDTH 610 0
DWIDTH 31 0
BBX 26 40 4 -3
BITMAP
00007E00
0000FC00
0000F800
0001F000
0001E000
0003C000
00038000
00070000
00000080
000001C0
001FE3C0
00FFFF80
01FFFF00
07FFFE00
0FF03E00
0FC03F00
1F007F00
3E007780
3E00E780
7C01E3C0
7803C3C0
780783C0
F80703C0
F00E03C0
F01E07C0
F03C07C0
F0780780
F0700F80
F0E00F80
F1E01F00
FBC01F00
7F803E00
7F00FE00
3F03FC00
1FFFF800
3FFFE000
7FFFC000
71FE0000
E0000000
60000000
ENDCHAR
STARTCHAR uni0200
ENCODING 512
SWIDTH 666 0
DWIDTH 33 0
BBX 30 45 0 0
BITMAP
000F8F80
0007C7C0
0003C3C0
0003E3E0
0001E1E0
0000E0E0
00007070
00000000
00000000
00003F80
00003F80
00007F80
00007BC0
0000FBC0
0000F3C0
0001F3C0
0001E3C0
0003E3C0
0003C3E0
0007C1E0
000781E0
000F81E0
000F01E0
001F01E0
001E01E0
003E00F0
003C00F0
007C00F0
00F800F0
00F800F0
01F000F0
01FFFFF8
03FFFFF8
03FFFFF8
07FFFFF8
07800078
0F800078
0F000078
1F00003C
1E00003C
3E00003C
3C00003C
7C00003C
7800003C
F800003C
ENDCHAR
STARTCHAR uni0201
ENCODING 513
SWIDTH 556 0
DWIDTH 28 0
BBX 24 37 2 -1
BITMAP
07C7C0
03E3E0
01E1E0
01F1F0
00F0F0
007070
003838
000000
000000
001FC0
00FFF8
01FFFC
03FFFE
07E07F
0F801F
0F000F
1E000F
00000F
00000F
00001F
001FFF
07FFFE
1FFFFE
3FFFDE
7F801E
7C001E
F8003E
F0003C
F0003C
F0007C
F000FC
F801FC
7E07FC
7FFFBC
3FFF3C
1FFC3C
07F000
ENDCHAR
STARTCHAR uni0202
ENCODING 514
SWIDTH 666 0
DWIDTH 33 0
BBX 31 45 0 0
BITMAP
00000FC0
00003FF0
00007FF8
0000FFFC
0001F87C
0001E03E
0003C01E
00000000
00000000
00003F80
00003F80
00007F80
00007BC0
0000FBC0
0000F3C0
0001F3C0
0001E3C0
0003E3C0
0003C3E0
0007C1E0
000781E0
000F81E0
000F01E0
001F01E0
001E01E0
003E00F0
003C00F0
007C00F0
00F800F0
00F800F0
01F000F0
01FFFFF8
03FFFFF8
03FFFFF8
07FFFFF8
07800078
0F800078
0F000078
1F00003C
1E00003C
3E00003C
3C00003C
7C00003C
7800003C
F800003C
ENDCHAR
STARTCHAR uni0203
ENCODING 515
SWIDTH 556 0
DWIDTH 28 0
BBX 24 37 2 -1
BITMAP
000FC0
003FF0
007FF8
00FFFC
01F87C
01E03E
03C01E
000000
000000
001FC0
00FFF8
01FFFC
03FFFE
07E07F
0F801F
0F000F
1E000F
00000F
00000F
00001F
001FFF
07FFFE
1FFFFE
3FFFDE
7F801E
7C001E
F8003E
F0003C
F0003C
F0007C
F000FC
F801FC
7E07FC
7FFFBC
3FFF3C
1FFC3C
07F000
ENDCHAR
STARTCHAR uni0204
ENCODING 516
SWIDTH 666 0
DWIDTH 33 0
BBX 33 45 2 0
BITMAP
001F1F0000
000F8F8000
0007878000
0007C7C000
0003C3C000
0001C1C000
0000E0E000
0000000000
0000000000
01FFFFFF80
01FFFFFF80
03FFFFFF80
03FFFFFF00
03C0000000
03C0000000
03C0000000
03C0000000
0780000000
0780000000
0780000000
0780000000
0780000000
0F00000000
0F00000000
0FFFFFFC00
0FFFFFFC00
0FFFFFF800
1FFFFFF800
1E00000000
1E00000000
1E00000000
1E00000000
3E00000000
3C00000000
3C00000000
3C00000000
3C00000000
7C00000000
7800000000
7800000000
7800000000
7FFFFFF000
FFFFFFF000
FFFFFFF000
FFFFFFE000
ENDCHAR
STARTCHAR uni0205
ENCODING 517
SWIDTH 556 0
DWIDTH 28 0
BBX 25 37 2 -1
BITMAP
07C7C000
03E3E000
01E1E000
01F1F000
00F0F000
00707000
00383800
00000000
00000000
001FC000
00FFF000
01FFFC00
07FFFE00
0FE07E00
0F801F00
1F000F00
3E000780
3C000780
78000780
78000780
7FFFFF80
FFFFFF80
FFFFFF80
FFFFFF80
F0000000
F0000000
F0000000
F0000000
F0001E00
F8003E00
78007C00
7C00FC00
3F07F800
1FFFF000
0FFFE000
07FF8000
01FC0000
ENDCHAR
STARTCHAR uni0206
ENCODING 518
SWIDTH 666 0
DWIDTH 33 0
BBX 33 45 2 0
BITMAP
00003F0000
0000FFC000
0001FFE000
0003FFF000
0007E1F000
000780F800
000F007800
0000000000
0000000000
01FFFFFF80
01FFFFFF80
03FFFFFF80
03FFFFFF00
03C0000000
03C0000000
03C0000000
03C0000000
0780000000
0780000000
0780000000
0780000000
0780000000
0F00000000
0F00000000
0FFFFFFC00
0FFFFFFC00
0FFFFFF800
1FFFFFF800
1E00000000
1E00000000
1E00000000
1E00000000
3E00000000
3C00000000
3C00000000
3C00000000
3C00000000
7C00000000
7800000000
7800000000
7800000000
7FFFFFF000
FFFFFFF000
FFFFFFF000
FFFFFFE000
ENDCHAR
STARTCHAR uni0207
ENCODING 519
SWIDTH 556 0
DWIDTH 28 0
BBX 25 37 2 -1
BITMAP
000FC000
003FF000
007FF800
00FFFC00
01F87C00
01E03E00
03C01E00
00000000
00000000
001FC000
00FFF000
01FFFC00
07FFFE00
0FE07E00
0F801F00
1F000F00
3E000780
3C000780
78000780
78000780
7FFFFF80
FFFFFF80
FFFFFF80
FFFFFF80
F0000000
F0000000
F0000000
F0000000
F0001E00
F8003E00
78007C00
7C00FC00
3F07F800
1FFFF000
0FFFE000
07FF8000
01FC0000
ENDCHAR
STARTCHAR uni0208
ENCODING 520
SWIDTH 277 0
DWIDTH 14 0
BBX 16 45 3 0
BITMAP
F8F8
7C7C
3C3C
3E3E
1E1E
0E0E
0707
0000
0000
01E0
01E0
03E0
03C0
03C0
03C0
03C0
03C0
0780
0780
0780
0780
0780
0F00
0F00
0F00
0F00
0F00
1E00
1E00
1E00
1E00
1E00
3C00
3C00
3C00
3C00
3C00
7C00
7800
7800
7800
7800
F800
F000
F000
ENDCHAR
STARTCHAR uni0209
ENCODING 521
SWIDTH 277 0
DWIDTH 14 0
BBX 16 36 1 0
BITMAP
F8F8
7C7C
3C3C
3E3E
1E1E
0E0E
0707
0000
0000
0000
01E0
01E0
01E0
03C0
03C0
03C0
03C0
03C0
0780
0780
0780
0780
0780
0F00
0F00
0F00
0F00
0F00
1F00
1E00
1E00
1E00
1E00
3E00
3C00
3C00
ENDCHAR
STARTCHAR uni020A
ENCODING 522
SWIDTH 277 0
DWIDTH 14 0
BBX 18 45 3 0
BITMAP
01F800
07FE00
0FFF00
1FFF80
3F0F80
3C07C0
7803C0
000000
000000
01E000
01E000
03E000
03C000
03C000
03C000
03C000
03C000
078000
078000
078000
078000
078000
0F0000
0F0000
0F0000
0F0000
0F0000
1E0000
1E0000
1E0000
1E0000
1E0000
3C0000
3C0000
3C0000
3C0000
3C0000
7C0000
780000
780000
780000
780000
F80000
F00000
F00000
ENDCHAR
STARTCHAR uni020B
ENCODING 523
SWIDTH 277 0
DWIDTH 14 0
BBX 17 36 2 0
BITMAP
03F000
0FFC00
1FFE00
3FFF00
7E1F00
780F80
F00780
000000
000000
000000
03C000
03C000
03C000
078000
078000
078000
078000
078000
0F0000
0F0000
0F0000
0F0000
0F0000
1E0000
1E0000
1E0000
1E0000
1E0000
3E0000
3C0000
3C0000
3C0000
3C0000
7C0000
780000
780000
ENDCHAR
STARTCHAR uni020C
ENCODING 524
SWIDTH 777 0
DWIDTH 39 0
BBX 33 46 5 -1
BITMAP
007C7C0000
003E3E0000
001E1E0000
001F1F0000
000F0F0000
0007070000
0003838000
0000000000
0003FC0000
001FFF8000
003FFFE000
00FFFFF000
01FE03F800
03F800FC00
07E0007C00
0FC0003E00
0F80001E00
1F00001F00
3E00000F00
3E00000F00
3C00000780
7C00000780
7800000780
7800000780
F800000780
F000000780
F000000780
F000000780
F000000F80
F000000F80
F000000F00
F000000F00
F000001F00
F000001E00
7800003E00
7800003C00
7800007C00
3C0000F800
3E0001F800
1F0003F000
1F800FE000
0FF03FC000
07FFFF8000
03FFFE0000
00FFF80000
001FE00000
ENDCHAR
STARTCHAR uni020D
ENCODING 525
SWIDTH 556 0
DWIDTH 28 0
BBX 25 37 2 -1
BITMAP
07C7C000
03E3E000
01E1E000
01F1F000
00F0F000
00707000
00383800
00000000
00000000
001FC000
00FFF000
03FFF800
07FFFC00
0FE07E00
0F801F00
1F000F00
3E000F80
3C000780
7C000780
78000780
78000780
F8000780
F0000780
F0000780
F0000F80
F0000F00
F0000F00
F0001F00
F0003E00
F8003E00
78007C00
7C01FC00
3F07F800
3FFFF000
1FFFE000
07FF8000
01FC0000
ENDCHAR
STARTCHAR uni020E
ENCODING 526
SWIDTH 777 0
DWIDTH 39 0
BBX 33 46 5 -1
BITMAP
0000FC0000
0003FF0000
0007FF8000
000FFFC000
001F87C000
001E03E000
003C01E000
0000000000
0003FC0000
001FFF8000
003FFFE000
00FFFFF000
01FE03F800
03F800FC00
07E0007C00
0FC0003E00
0F80001E00
1F00001F00
3E00000F00
3E00000F00
3C00000780
7C00000780
7800000780
7800000780
F800000780
F000000780
F000000780
F000000780
F000000F80
F000000F80
F000000F00
F000000F00
F000001F00
F000001E00
7800003E00
7800003C00
7800007C00
3C0000F800
3E0001F800
1F0003F000
1F800FE000
0FF03FC000
07FFFF8000
03FFFE0000
00FFF80000
001FE00000
ENDCHAR
STARTCHAR uni020F
ENCODING 527
SWIDTH 556 0
DWIDTH 28 0
BBX 25 37 2 -1
BITMAP
000FC000
003FF000
007FF800
00FFFC00
01F87C00
01E03E00
03C01E00
00000000
00000000
001FC000
00FFF000
03FFF800
07FFFC00
0FE07E00
0F801F00
1F000F00
3E000F80
3C000780
7C000780
78000780
78000780
F8000780
F0000780
F0000780
F0000F80
F0000F00
F0000F00
F0001F00
F0003E00
F8003E00
78007C00
7C01FC00
3F07F800
3FFFF000
1FFFE000
07FF8000
01FC0000
ENDCHAR
STARTCHAR uni0210
ENCODING 528
SWIDTH 722 0
DWIDTH 36 0
BBX 34 45 2 0
BITMAP
003E3E0000
001F1F0000
000F0F0000
000F8F8000
0007878000
0003838000
0001C1C000
0000000000
0000000000
01FFFFF000
01FFFFFE00
03FFFFFF00
03FFFFFF80
03C0001F80
03C00007C0
03C00007C0
03C00003C0
07800003C0
07800003C0
07800003C0
07800007C0
0780000780
0F00000F80
0F00001F80
0F00007F00
0FFFFFFE00
0FFFFFFC00
1FFFFFF000
1FFFFF8000
1E003E0000
1E000F0000
1E00078000
3C0003C000
3C0003C000
3C0001E000
3C0001E000
3C0000F000
7C0000F000
780000F800
7800007800
7800007C00
7800003C00
F800003E00
F000001E00
F000001E00
ENDCHAR
STARTCHAR uni0211
ENCODING 529
SWIDTH 333 0
DWIDTH 17 0
BBX 19 36 2 0
BITMAP
3E3E00
1F1F00
0F0F00
0F8F80
078780
038380
01C1C0
000000
000000
0007C0
078FE0
079FC0
073FC0
0F7880
0FE000
0FC000
0F8000
0F8000
1F0000
1F0000
1E0000
1E0000
1E0000
3E0000
3C0000
3C0000
3C0000
3C0000
7C0000
780000
780000
780000
780000
F80000
F00000
F00000
ENDCHAR
STARTCHAR uni0212
ENCODING 530
SWIDTH 722 0
DWIDTH 36 0
BBX 34 45 2 0
BITMAP
00003F0000
0000FFC000
0001FFE000
0003FFF000
0007E1F000
000780F800
000F007800
0000000000
0000000000
01FFFFF000
01FFFFFE00
03FFFFFF00
03FFFFFF80
03C0001F80
03C00007C0
03C00007C0
03C00003C0
07800003C0
07800003C0
07800003C0
07800007C0
0780000780
0F00000F80
0F00001F80
0F00007F00
0FFFFFFE00
0FFFFFFC00
1FFFFFF000
1FFFFF8000
1E003E0000
1E000F0000
1E00078000
3C0003C000
3C0003C000
3C0001E000
3C0001E000
3C0000F000
7C0000F000
780000F800
7800007800
7800007C00
7800003C00
F800003E00
F000001E00
F000001E00
ENDCHAR
STARTCHAR uni0213
ENCODING 531
SWIDTH 333 0
DWIDTH 17 0
BBX 21 36 2 0
BITMAP
003F00
00FFC0
01FFE0
03FFF0
07E1F0
0780F8
0F0078
000000
000000
0007C0
078FE0
079FC0
073FC0
0F7880
0FE000
0FC000
0F8000
0F8000
1F0000
1F0000
1E0000
1E0000
1E0000
3E0000
3C0000
3C0000
3C0000
3C0000
7C0000
780000
780000
780000
780000
F80000
F00000
F00000
ENDCHAR
STARTCHAR uni0214
ENCODING 532
SWIDTH 722 0
DWIDTH 36 0
BBX 32 46 5 -1
BITMAP
007C7C00
003E3E00
001E1E00
001F1F00
000F0F00
00070700
00038380
00000000
00000000
0780000F
0780000F
0780000F
0F00001E
0F00001E
0F00001E
0F00001E
1F00001E
1E00003C
1E00003C
1E00003C
1E00003C
3E00007C
3C000078
3C000078
3C000078
3C000078
7C0000F8
780000F0
780000F0
780000F0
780000F0
F80001F0
F00001E0
F00001E0
F00003E0
F00003C0
F00003C0
F00007C0
F8000F80
7C001F80
7E003F00
3F80FE00
1FFFFC00
0FFFF800
03FFE000
00FF8000
ENDCHAR
ENDFONT
